<mxfile host="app.diagrams.net" agent="Mozilla/5.0 (Macintosh; Intel Mac OS X 10_15_7) AppleWebKit/537.36 (KHTML, like Gecko) Chrome/131.0.0.0 Safari/537.36" version="26.0.1">
  <diagram name="Page-1" id="gwdXU3rZGkLrUVpm8juf">
    <mxGraphModel dx="1647" dy="865" grid="0" gridSize="10" guides="1" tooltips="1" connect="1" arrows="1" fold="1" page="1" pageScale="1" pageWidth="827" pageHeight="1169" math="0" shadow="0">
      <root>
        <mxCell id="0" />
        <mxCell id="1" parent="0" />
        <mxCell id="zAiGuQr0oXEZ5Z4eG5Xq-2" value="" style="shape=image;verticalLabelPosition=bottom;labelBackgroundColor=default;verticalAlign=top;aspect=fixed;imageAspect=0;image=data:image/png,iVBORw0KGgoAAAANSUhEUgAABBIAAAIcCAYAAABLgo2MAAAAAXNSR0IArs4c6QAAAIRlWElmTU0AKgAAAAgABQESAAMAAAABAAEAAAEaAAUAAAABAAAASgEbAAUAAAABAAAAUgEoAAMAAAABAAIAAIdpAAQAAAABAAAAWgAAAAAAAACQAAAAAQAAAJAAAAABAAOgAQADAAAAAQABAACgAgAEAAAAAQAABBKgAwAEAAAAAQAAAhwAAAAAccGbrAAAAAlwSFlzAAAWJQAAFiUBSVIk8AAAQABJREFUeAHsnQeAFFXWhZ/AMOSkIIIoigFBFFEMqJh1V1cx54Q56xrXtGBATGtCYc05Z3+zoihGsmJEFFzFAJJz/t938bZFM6FhZpjunnOhp7urXr16daq6u+559567yuJoQSYEhIAQEAJCQAgIASEgBISAEBACQkAICIEMEKiWQRs1EQJCQAgIASEgBISAEBACQkAICAEhIASEgCEgIkEXghAQAkJACAgBISAEhIAQEAJCQAgIASGQMQIiEjKGSg2FgBAQAkJACAgBISAEhIAQEAJCQAgIAREJugaEgBAQAkJACAgBISAEhIAQEAJCQAgIgYwREJGQMVRqKASEgBAQAkJACAgBISAEhIAQEAJCQAiISNA1IASEgBAQAkJACAgBISAEhIAQEAJCQAhkjICIhIyhUkMhIASEgBAQAkJACAgBISAEhIAQEAJCQESCrgEhIASEgBAQAkJACAgBISAEhIAQEAJCIGMERCRkDJUaCgEhIASEgBAQAkJACAgBISAEhIAQEAIiEnQNCAEhIASEgBAQAkJACAgBISAEhIAQEAIZIyAiIWOo1FAICAEhIASEgBAQAkJACAgBISAEhIAQEJGga0AICAEhIASEgBAQAkJACAgBISAEhIAQyBgBEQkZQ6WGQkAICAEhIASEgBAQAkJACAgBISAEhICIBF0DQkAICAEhIASEgBAQAkJACAgBISAEhEDGCIhIyBgqNRQCQkAICAEhIASEgBAQAkJACAgBISAERCToGhACQkAICAEhIASEgBAQAkJACAgBISAEMkZARELGUKmhEBACQkAICAEhIASEgBAQAkJACAgBISAiQdeAEBACQkAICAEhIASEgBAQAkJACAgBIZAxAiISMoZKDYWAEBACQkAICAEhIASEgBAQAkJACAgBEQm6BoSAEBACQkAICAEhIASEgBAQAkJACAiBjBEQkZAxVGooBISAEBACQkAICAEhIASEgBAQAkJACIhI0DUgBISAEBACQkAICAEhIASEgBAQAkJACGSMgIiEjKFSQyEgBISAEBACQkAICAEhIASEgBAQAkJARIKuASEgBISAEBACQkAICAEhIASEgBAQAkIgYwREJGQMlRoKASEgBISAEBACQkAICAEhIASEgBAQAiISdA0IASEgBISAEBACQkAICAEhIASEgBAQAhkjICIhY6jUUAgIASEgBISAEBACQkAICAEhIASEgBAQkaBrQAgIASEgBISAEBACQkAICAEhIASEgBDIGAERCRlDpYZCQAgIASEgBISAEBACQkAICAEhIASEgIgEXQNCQAgIASEgBISAEBACQkAICAEhIASEQMYIiEjIGCo1FAJCQAgIASEgBISAEBACQkAICAEhIAREJOgaEAJCIOsQmDJlSvjll19S4xo7dmyYPXt26r1eCAEhIASEgBAQAkJACAgBIVB5CIhIqDzstWchIASKQeDOO+8Mu+66a4o8OOuss8LJJ59cTOvcX/z444+Hl156KfcPpJgjGDp0aLj55pvD9ddfHx555JEwbdq0Ylqu+OKFCxeG6667LowYMWLFO8nCLRctWlRpo/r000/DbbfdFhYsWFBpY9COhYAQEAJCQAgIgexEoEZ2DkujEgJCoKogMH78+PDqq6+Ggw46KNStW9cOe968eWHmzJlh0qRJoWXLlmHWrFmBdpVtAwYMCGussUbYcMMNy3UoV111lfW39957h1VWWaVc+67szh544IHQo0ePpYbx1ltvhQcffHCpZWV9891334W+ffuGMWPGhP/+979l7S4rtl+8eHHYfffdwz777BMg01a2cY5eeeWVsNtuu4WNNtpoZe9e+xMCQkAICAEhIASyGAERCVl8cjQ0IVAVELjooovCO++8E1q0aGFOE8fsM6AQChizzf7aFlTCn08++SQcc8wxtueNN944dO7cOXTq1MmcrNq1a6/wiCBIIE0wZuobNmy4wn1luuHrr78ePvzww+AERqbbLW+73377zUgEyJcrrrgirLXWWuHNN9+sEFLohx9+sOGRBpMvNmfOnABB8r///a9SDunrr7+2/ZJmJCKhUk6BdioEhIAQEAJCIGsREJGQtadGAxMC+Y8AugeQCFi9evVSB+x6CB6hwPuV4WCnBlDECyc3WPXFF1/Y4/7777eWhx9+eDjggAPCFltskdpy8ODBoU6dOqF9+/apZUW9+Oabb1KLV1Y0wqBBg8JDDz0UTjvtNIuwSA2gnF94usZ5550X9thjD+vdHVLwfPfdd8Mmm2wSVl999TLv+csvv7Q+qlevXua+sqWD6dOn21CaNm260oc0Y8aM4ORMJtclbX/++efQtWvXlT5W7VAICAEhIASEgBBY+QhII2HlY649CgEh8CcCL774YgqLJFHgREL9+vVtPTP1TZo0SbVd2S9wei+//HJzuj/66KPw/fffB5xx8se7dOkSHnvsMSMSevbsadETOFUHHnhg2HPPPYPP6hY35h9//DG1CuJhZdrUqVMrdHefffaZ9b/jjjsus5/nnnsunHDCCeHQQw8N7jAv02g5FpDSgCUJqeXYPCubIjqKlQfRsrwHCCnglsl1yfV+1FFHhaeeeso307MQEAJCQAgIASGQxwiISMjjk6tDEwLZjADOI+J7bkkHcP78+bbYUwYI/W/QoIE3XenPzHJDDvz6669GaNSoUcOcu27dugWEEl9++WUL2ydC4b777gvNmjULm266qY2zd+/eJY7XnUWiL+i3Io2c+8mTJ9uD/TC2448/Puy1115GhAwfPrxcdz9u3Liw7rrrhqJm1Dt06BBWXXVVwxUBxrIax4VVhtNd1rEXtz0aIVhR+BW3TXktTwpirrbaaqV2+/e//93aXHDBBanUpFI3UgMhIASEgBAQAkIgZxEQkZCzp04DFwK5jcANN9wQJk6cmBJYrFWrVuqAEFfEycRwfrFGjRrZc/of9BPKYkQWIChXkhHaTZ4/BgFyxx13hM8//zy1CeH6ntZATjukyAsvvBCYdUcboCRz7Qcc63SDUGF89JluzPyi24ChC4DugYf3p7flPer///jHP0LHjh1tXCxDPPLtt982bYbmzZuzqEhbkcoB6COUZGCGTsMTTzwRDj744JKaZrTOo1jWX3/9jNovT6OffvopfPzxxyb6uTzbeVsIFapWENnCOX3//fcNeyeRvF36M58PzD8L6ev9PUQb+0g3rq1kSk76+pLe+3VJGwRPsZKuuV69etm1xHUPIcb1+M9//jPMnTvXtk3+IZ0HDJJWlmt99OjR4e677zZSrF27dmH77bdP6Y4k96HXQkAICAEhIASEQPkhULHTX+U3TvUkBIRAHiGAA4si/M4772wz1vfcc89S1QpwsDyVAVIBa9y4cQoBd+bfeOMNm9HebLPNwlZbbWWh8j57S2g2ufnbbLNNOOecc1LbJl8QZUC1CJxPZuVLsoKCAlvN2Imk4IHoIstHjRpljgtRBccdd5y1q1atWth8882X6ZK27733nm3HmN3RIg0iaZRMZNwutEeEwzPPPBNq1qxpzUij2GWXXWw9s8BuaE60adPG36aeIVw8/N8XXnzxxebEO9a+nGfakrrBWHFod9hhh7DddtuF7t2729iTbdNfQ3AccsghqcU4oGhFrLfeeqGwsDC1nIgTzo8bwpOMn0gPHEvGhwNPlAcESNIgIYigIAJh2223DQgTYlxTpVmm+8EJv/LKK5eqMNGnTx+ropDcB2MdMmRI+OCDD2xx27ZtAxU43NCCuOWWW0w/4NJLL02lu0DsQEoVZ04kJNN+imoLXpBNXM+uEYFzzfVBRAj7L83YF84/6S6IiHq6CdoWHhlU2jWXJHGonMH5YWzJ1BYwPfHEE+26JUUI0qEs1zrXAWlHbgh6Qoo5Dr5cz0JACAgBISAEhED5IiAioXzxVG9CQAiUggAzp4j84XTjjN955522hTvqvMGJcefJiQTP0x45cqRVT3Ani5BqZoxxXJ5++ulw1113WXQAThUOLaJxTiQQro3ugovHMYuKkatfmuEsYltuuaWNnVlgRBcxZowRW2Q/PntMlAAaEJTt8/0xW3v22WfbNv7H23tEA8vpd//997f9UFkBzDi+559/PuWgE8ExYsSIgKAhs/tgSiTE2muv7V0v9Qy+RB8QXYCzjvOFc14UifDss8+Gc88917YnEgOSZdiwYUYqUKqzX79+qQiNpXby55t11lnHHFjOAZYkOiB9Tj31VBNfZFaalAScTezTTz8NVPHgGDiPLsQJBozJ7bLLLgsPP/ywv13qmRnp0izT/YAB5xBnmusMYgVnGtLH01CoaHD00UenokY4n1ybEDf77ruvDcXJk/PPP9+c/ZNPPtmIL5z8kszTNTh2rr8//vgjtGrVKhC9AknANcDnAxKBMpFJ55mUGyyTtAQiBLjevHoI2/l1CUnjVtI1R0QI+Jxyyin22YU4gkhgbEkiATwhxyDwwLAs1zrkopMIEFdE/zjp4WPWsxAQAkJACAgBIVAxCIhIqBhc1asQEAJFIMDsO04kDsujjz5qud/uoBOF4FEHzIqiM4A5keAz8ZADOGo4uDjWnnKA00LfOPTMYqfPyj/55JPhwgsvtPKDG264Yejfv7851oRBJ2fPixi2LfKc8datWwciIZhVRUiRqAQqILjj5dvjeN90000mukhoOKKKTiJcc8015sSzjDFj7jTyukePHjzZ9rvttlu499577X0yvYPjxgnjGUfTK1xYw2L+UGITcxHL4sQWOT5s1113tRlzHEhmkv/v//7PyBKqVODkO0FijRN/iBIA3zPPPNP0IyBTOH9gggAj6Qw45/Q3cODAFJHgZBLOIQ4o5wZcmO1n/zieECeQCOANvlwzzKT37dvXRsC1ldTbSAwr9TKT/TDTjdPL+SUKgWuOMUC8uMMOSXXEEUcYOUDkAtcR1zPbXHLJJZZKwpg9SgZiBVIE4iET86gAwvYxjpnoAo4RbB544IEAkYGxTzeIAaJ8MIiZkgzCg2uZPilvyjFwXESeYJAXbiVdc4yDc8BnCwIFQgHti2+//dY3D5ANpDRxrRJtgpXlWift6bDDDjOdEj7fEDZca453asd6IQSEgBAQAkJACJQ7AtXKvUd1KASEgBAoBgGcBhxJHBIctdNPP92cIZoza4nziRGmTmoA5rnv/t5nHHFE6MfNZ7p5T6i0O804Sjh31113nTVl/zhKhJhjCA4W5xBbgz//4Ghh9MesMPoHzKTjzDNjTyh50tyZ9XQCd85vvfVWcz6ZsWVbN599Z+w4zhgz18xaEznBM7PQbk60/Otf/8qIRPDteHZH2NMqWAYunkbhjjZOLyQChkO83377GQGAQ/z777/b8uL+cL4gXTAU/SEVEKOETPCymQhoImDp2HqUCSQCYfJEPhx77LHWB8swj0yAUOCaoXwk15Jb8rUvS3/OZD/MrmOcow022MBSMMCHa9avF4gssOD84ISDFSQJxjFxLjEnyAi7h3jI1BwXHH1SasAOIo1rHQKGsTnR5p8PtA1I6cGIokhGuhS1X7Q+OC4ccsgQrks+c77v1157LbVZSdecX++kK2B8RoiU4bqGgMGuvvpqO9+QCZAiZb3WOQ/XXnutXRMcJ4Qez3zWkwSI7Vx/hIAQEAJCQAgIgXJFQERCucKpzoSAECgOAW7yPdwa55HZSxwJn8nHaU06yh4B4GKLOP+Yi8AlnWCWT5gwITULS446TgaztDhJpE+480j6AyJwjAGHBocnE/Nxkl+PkWoBKcDMM30xdoQR3XxWdPDgwbbIt+vatau9h1ggP57ZWR6kPeBw+Qzz7bffbpEIOK44RsyO48y7eXRCJqH8vo0/ewUMn/GGuNlnn32sjCVtHGPXHfDtOF+MGwInk5B5T08pzqlzjEjRwDiHGHhwvRA5gdOMkdKCQWCw/zXXXNPSNMAGEsTTBEoTzqSPTPaDw44uBccLAcY1A3kEmeLmRAHaERj7RlSR8WOcU8wjQCA9nMSxFaX8cXwYB+kiGOfOSTKqOrhz/9Zbb5nzz/XoBBVjLs38c7HTTjtZU4gAyCkMTCFwnBwo6ZrzdZRHdYPIoH80LoiqIUKBSBTXIymvax3yAIIJ3RWw4rsFfRIiXmRCQAgIASEgBIRAxSDw111pxfSvXoWAEBAC5sgTzs+MLLPsPHPDj6OJc0F0gM98AxfOks/k+0ynOx3MQpMLTd49Dg4OLbPCjz32mCGNE+GibzgYOFUQBpAK5LZ7yUkcmuWpFsCYcYo8QoKdQVZwPMziMtPM7DmOFE6VO9qePuCOFqHXaAB4yUPGC9kAccDsrc9eQ1IwG0x6gRtEA849mLhDilPMjPnymI+FdBAcY/QXMK8cQTrFm2++abPsRBMQoUBbluEkk5aSJDWK2zfiihh6EUUJT3qpRic0vNwhpJI7yx7VQLoK5wt8SCnh/ENQgBkkD3iSJgLhQmqEO+FFjS2T/XC9QFBwjbmApvfFeCGSaENUAtcVs+9EkjAWxkC0CtckkTMeLVBaJQvv359xuLkOzjjjDKvIweeC1AYIK65HxDo5HwhhIoqZJJUYD2kGpZmTPczsQ4yAI9EI6H1wzo466ig7DjAt6ZrjGCF4HFv2e+SRR1r6iWuRgE2yHGp5XOuMG+KLzyHfDWABRhAq4AYm6WlOpWGi9UJACAgBISAEhEDpCIhIKB0jtRACQqAMCOCAQiLg3OOkpJcZdMcjmRpA/jdK/+RXsx0OCkKBGLOkON0QAu4AsxyHGEc+qe6PACERCDhGN954o/WFQ0outac6sG0mhtOGI8hY0o0ZacZLXjlEA4467Xh46TycTUgDQtJ5sI7jgOxgpppoDRw5HE/IBkLrmdFFBI/UDMLaCW9nO2bL3TnyMPv0MZX0nm1xQMGGB8Y4IFcwyAMiOZhJRocAoz144li6k28rSvhDn1hS/yHZHDIJ45iwk046ybQUXKSQZRAW7NdLWxKCD1kD3tjWW29tWEFKQEhBNhC9UFL1hkz2gy4BVRXYNw4xEQGQW+wb4ooqDCznvBCJAInAucJ5JcqFWX3IDoQdu3TpYvjZgJfjD0QA1wXXOmkebhwjwo2cEwyijH0RxcMYcPqJMMnE+LxAOkDOuPApn1eIMaKBcMy53rDSrjk+Bx7hQHuIA0QzwZvXEFA8u9G+rNc6nze0Ioh4gHSDQAIHj2jiXPm4fb96FgJCQAgIASEgBMqOwCrxRmFJkfay96UehIAQEALLIIDzi/NFmLXrGyQbEapODjhOuIeN4wQQ7o7zjtOPU0u7zp07Jzc1goAZemZVi5shZ1t0DTw0fKkOlvMN/fisbFGb8nWadOwZG+1dc4B0DGa5ec9sti+nLxwiKirgHNIPJAOh9DhCGA4YFSOOP/54w4HoBMoN4ugl92mNM/hD9QVmhwmNR0Ef7L26gG/OODgXjAuMfWbd12fyDIlQ0rbM7nvof0n9JbFFmBNiAeFDnOCksT/6K+56SLYt6nVyPzjXEClEYrhx3qiQQKUPd+QZD+fS33tbZspZzvnhPPK8otch1z9YQVKknyffH8/oEECCEKHQ+k+NiuT6ol5zfr/66ivTDgFPj1KgLdc8UTVgXdo1R1uu+XQcOCeM2SuvJMdQ1msdko3PCZ8XPutufF4gXKi84UKtvk7PQkAICAEhIASEQNkREJFQdgzVgxAQAkKgwhBAfwFn1FMlKmxH6rhYBHCOiUYhuiRJ/hS7QSWtgIwiHYFUF9dnqKShrNBuy3qtQ7QQEQHp4TogKzQQbSQEhIAQEAJCQAiUioBSG0qFSA2EgBAQApWHgIf9V94ItGf0OzKd3a9MtF5++WWL0smknGlljrO4fZf1WicSJZPoluL2r+VCQAgIASEgBIRA5gioakPmWKmlEBACQkAICIGsReCBqBWAocchEwJCQAgIASEgBIRARSIgIqEi0VXfQkAICAEhIARWAgJob1ChhEoPSY2DlbBr7UIICAEhIASEgBCoggiISKiCJ12HLASEgBAQAvmFgAsKJktA5tcR6miEgBAQAkJACAiBbEJAYovZdDY0FiEgBISAEMhqBKhM8N1334W2bdtm1TipvNC/f3+r7KGIhKw6NRqMEBACQkAICIG8REARCXl5WnVQQqDqIYCDd91111nZyKp39OV7xD///HPo169fuPbaa8N///vf8OOPP5bvDiq4N0qOHnbYYVa2srx3NXDgwLDHHnuEoUOHlnfXZeqP0py77bab0hrKhKI2FgJCQAgIASEgBDJFQFUbMkVK7YSAEMhqBJgl7tu3bxgzZow5v1k92Cwe3PDhw8O+++671Ahvu+22MHjw4FC3bt2llmfrmylTpoSPPvooTJgwIay++urlOsx58+ZZfz/99JOVWizXztWZEBACQkAICAEhIARyBAERCTlyojRMISAESkbghx9+sAZjx44tuWGer/3Pf/4T1lxzzbAiJQCJ6rjssssMoeuvvz6Qbz969OhAWcEFCxbkDHKLFy+2sf7666/lTiSAEeaEgr3RHyEgBISAEBACQkAIVDEERCRUsROuwxUC+YrAl19+aYdWvXr1fD3EjI7rtddeC3Pnzl0hIuHzzz835f+DDjootX2HDh3Cfvvtl9G+s6WRCw+OHz++xCERZVGnTp3Qvn37EtslV86ZM8fe1qtXL7lYr4WAEBACQkAICAEhUKUQEJFQpU63DlYI5C8CpDRgcvBCmDhx4gqd6K+++sq223XXXVdo+2zZqHbt2jaU+fPnFzskIlgOPPBAW//666+HjTbaqNi2yRWzZ8+2tw0aNEgu1mshIASEgBAQAkJACFQpBCS2WKVOtw5WCOQvApMnT7aDK++c+FxBjNQDZuCJRpg5c2Y4//zzTXBwn332sefp06eXeiikAmCbb755qW2zuQFRBpinIRQ11mbNmoVNN93UVvXu3buoJkUu8xSP+vXrF7leC4WAEBACQkAICAEhUBUQUERCVTjLOkYhUAUQ8Jni9ddfv9SjHTduXHjqqafCmWeeGcin//jjj03hv2PHjqFRo0ap7UmXIBd+k002CeWVMkG0ADPm7uymdhZflLQ/tArefffd8Mknn9h4V1111cBMOgKICP9RSQACwe3pp5+2lxtvvHFo1apVqTn9f/zxR0oHgVKCmRjtqBaQbpnim77drbfeav1xXtLt/fffD02bNl0qcgBRRTDbYIMNbJ1v4xEJJREJRK688MILAXHJJk2a+KapZ87T999/H1q2bGkPX+EYFxWRUNL58+31LASEgBAQAkJACAiBfEBAREI+nEUdgxDIEQSmTZsWPvzwQyudx4zudtttt9TsNzPq77zzTujWrVsgLP3iiy82p/m+++4LOPlJox+cQCIQtt122+C56zvvvHOyWZGvcchvueWW0LVr13DppZeGr7/+2tr94x//CHfccYfN7OPM4rRjOO0QD+utt5699z//+9//wquvvmqOPDP+Xbp0sbHjyOJwXnXVVaY1sNlmm/km4eijjw6QHezfjeMuaX8PPfRQuPzyy715WGuttULz5s1T5AYOtTu43uixxx4LnTp1MtLClxX3DHbJKITHH3/czg0OerrDTAoJVRzee+89S6HYYYcdrG337t1DQUGB7aI0fIsaB0TQTTfdZKvoK5miwj6POuqowL7AAmOM4OvHzTY9e/a0dU76JFMb6J/x1ajx188eJEjyuNmYiANKXt5www3WF3/OPvvscO6559r7GTNm2HMSl9LOn22gP0JACAgBISAEhIAQyCcE4mycTAgIASFQ4QjEcnyLYx764ugE24PXPGJefmrfL730kq2j7bHHHptqu//++6fa8CI6/6l13p8/x1nypdoW9SaSArb9jjvuaM+9evVa/Pbbby+OefOLp06dutiXX3fddYsffvhhaxOdyVRX0SldHB37IsfANlgkOmx9dHaX2o5x0r9baftjvR/bBRdcsHjWrFm+6VLP33zzzeJIKCw+9dRTrX10opdaX9qbE044IbUf3x/PkexZfOeddy6OkRmLn3nmmVSbrbbayvbFM+0i+bP4l19+sd2UhG9x42C8jnskiJZqdt5559k+6BeLJIK932WXXRY/99xzqWslRm3Y+lGjRtn6Bx980N77eCKhszhGGdgy/kSCYnEkdBb7NcMzGHM8XJsXXXRR6pqN1UBsu3//+9+2PhIY9r6082eN9EcICAEhIASEgBAQAnmGwLIxqfnEkuhYhIAQyAoEmPE/9NBDbSzRuQvRgbNZX2aTb7/99tQYfUab2XciE7bffvtAaP6QIUNSYfeRbAjRubcoAfri/WmnnZbqw2eoUwuKeEGIPIbgHrPal1xySYhOaVhnnXXCvffea8sjkRGiU5mKQkiGvzNzzr4ZW48ePSzFgDB5jHB/jFQEbMMNN7Rn/jzwwAP2OplfX9r+aHvYYYfZdk8++WS45pprwoQJE+x98g/7adiwYWomPzq4ydWlvr777rsNCxqiq0AZSK/WAN5EPbzxxhvWD2KMAwYMCH379g0ffPCBRVcQHXL44YdbqkhJ+BY3ECIFzjrrLFtNSoFbJEgCaRpEexxwwAEBLYwrr7zSVt9///1h9913T0VdeBSDpzYQXUD0BHoRGOkKkQiw1/wZNmyYRUFEAsSWvfnmmwGM11133RDJrHDttdfaMe61116p9Ae/vrwyRGnnL7UzvRACQkAICAEhIASEQB4hICIhj06mDkUIZCsCffr0saHhEMZZZ8uDxwnEXn755VR4ulcb+O677yz8v1+/fgGHHmMZ9uyzz9ozBAJ9oV9AmoNb8rUvS39u3LixLYozz+GII45IrSb83VMOcPpbt26dKoOYbDdo0CDbhrEcd9xxlmpwxRVX2DLXPqAvbM0117Tn33//Pbion+sKZLK/VVZZxRxa9rXFFltYaD/PMfIhoGuQbk7GILro1r9//+Dj8WVFPXO8GLieeOKJhsXAgQMDD8gB7xvypVatWtYWAgDCAY0GiBmOszh8bYMS/rBfDHICY8znnHOOveZ4wY2UBnfmSY1p165deOWVV4xscaFNHyfX2H/+8x8TVQQDCAKOZdKkSdanEw8QWxg6DNiNN96Y0spgTBAmTv7EiBBrw3nJ5PxZY/0RAkJACAgBISAEhECeIfBXsmieHZgORwgIgexBgNlrdAZiuLhFFjBLTMQBQoE4hTGtwLQFfKad5eTC47y5vsDIkSNtexzVNdZYwxx0Zv+vv/768Nlnn5mTiCOLU4lTW5K5U5guouiz+CeffHJg1h0RRogBZr3XXnvtVJccC4bYIdoIaDiwb6ywsNCefR9ffPFF6Ny5c7j66qttOceGtgKW6f5oC3kAmQCWRETg3PIgomPvvfemiRlRCZjn8n/66adGduBUl6Yf4WMG46IM4UnM9Si8zdChQy1agfOy2mqrBXe20/H19sU9Q0BsueWWIaYrWPQBpAHRLEQgQPpgyegBsCXyg+oLu+22W6pbJ03AmTE98sgjpvVw0EEHGQEzYsQIw8IjJwYPHmw6D4hSYmBMtImfy1THiRccoxMapV0vic30UggIASEgBISAEBACeYFAtbw4Ch2EEBACWY3ANttskxLm22mnnQLq/Ajnxdx1GzfCgJjPFDPj3aJFC1vms+Q49RjOJmUKSTs4/vjjA1ELOPY4iziUL774YpGh/7bxn388IuC3335LLk45jlETwMQMEdljZt5JBHf8CbHHWE8KAOJ+MZ/elvksN6H4GAQCzjERFFGLwUgOIi9wkN1RLW1/hNjjTOPgM0POMUIM4CSfccYZVl3Adhb/eDQAxAsRC5ANGCROacaMPeakSHp7d9aPOeYYO4f0DT5Rw8JIoUcffdTEDIvDN72/ot57xQYiQIhW4XgRWnTz4+N8cx7A/W9/+5udAwgOHlSNcANbF0YkfQUDGwzSA/PzimgnBtEFgcX1RdoMApmQEIgqQgRhvM70/NkG+iMEhIAQEAJCQAgIgTxCQBEJeXQydShCIFsRIC8d5w7nGaefGVzy4XG6cdBIeYBEOOmkkwK55/vuu2/qUAidx5mjtB6GXgD5605CbL311ub4EdZOBYaDDz7YHMWSZt+ZiXaHMLWj+AInFe0DHGWcU9IWmKVn5puUCQgAQuP33HNPi0ZgJp79Qo5E0Uib7fZ+IUDoi5SHZs2amfYCzimVH5hxJ1UD5z6T/THDTqoF+fhESjB+KmDwwHD827RpY68hUzCvMsDrKMBopAOvSzKiGSA90CEoyg488ECLpiACwysscLycH5x9J3+Kw7eoPtOXUUkDcgLNBsaCU+/EBG0hGtDMIGLl559/Nu0EIllIN0Gn4ZBDDrHri3FxPTkebIuOBHoHn3/+OW8NE8gYSjxiHTp0sJKQ99xzj5XaJFIG45qFZOBagBTj2oPYOvLIIzM6fx5NYZ3pjxAQAkJACAgBISAE8gCBVRCPzIPj0CEIASGQ5QjwVcMsLk5ZsgQfwyaf32d3izsMticvHUP4D2IBAcT0mXacYBy+9H2k94vzTX8ILKbba6+9FnAmcVjdiDBg5p1Z8KRj6+vJ62cWnVl6nNWSjMgCnHbXGShtfwsXLjTygTQGT4ugf7CEOIE0cPE/luPkM2NPOgQilyWRKrRPGiH74OKChcl1/ppzAYlBagnHURQeJeHr/ZT0DEZFXStsQwQB0R1JfQ2cdUgISA2IAdpwHaSPDTIoVmBIlX0kgoGIEtdVSI4J3NnerzvWsQwSoW3btqmIhtLOX/oYkvvQayEgBISAEBACQkAI5CICIhJy8axpzEJACKwUBCAsyINn1ro0ZxD9Ahz6u+66q1SNhuIGn8n+0GTAGYZE8ZD94vrL9+UQGRArpCh4SkllHnMm568yx6d9CwEhIASEgBAQAkKgvBDIi9QGQqJ99osbOWaiOnXqFFr/qUBeXmCpHyEgBKoWAo0aNUqp95d25ITZY0XNbJe2ra/PZH/MsvOQBSN3sul7PpPzp/MmBISAEBACQkAICIF8QCBniQRExAgnffPNt0yAbOzYMTYrxQ02Nch9to58ZHJ3XUQrH06ajkEICIHsQ8CFIpMpBtk3So1ICAgBISAEhIAQEAIhvPb6GykYZs2ZG+rUWlJ16tNPlohbs/K9996zNghk+3teI/qMBhFkPqLIPGRVD4GcTG1AsO3mm2+2WuPbb799FNvaNuZDF4S1Ynm2+QsWhHnz5oZaNQtMzAzxLfJfCUs+/PDDw1ZbbVX1zrKOWAgIgQpHAEFJhBN56Ae1wuHWDoSAEBACQkAICIHlQOCWW24Jc+fND4NiyeNPomj1Gi3WiFpETcOgTz824Wi6qlmzMNSuUzssjP4U/tXIkUvEiZO7mT9/fuotr+dEnauOkVSgFDe6Q7PjA92itdda23wzfLXtt+9q20yfOSu17RrNlpTSTi3Qi5xDIOeIhHfffTf06dPHxLS6detmKtuoc8+eOy/MnDUvCoQVhlUbNwg1InlALjGCXYMHDzEF8FqRaUMtnu1kQkAICIHyROCdd94J3bt3D5RA3G677cqza/UlBISAEBACQkAICIGMERgwYEAYMWKEPfr3729Vjnxjn+zwZ482YL0v87Yr+sz+MSZXEDimbPe3334bWkQx5M232Cpc0etaW79+6zVDvbq17bX+5B4COUUkoEJ+Zawvv//+B4azzzozsmhNTKl8wYKFYcbM2WFmLJFG9AEXZL3IpmEwb7+PnxB+GD06DBk6JJb9+ixsH2/yKS8mEwJCQAiUJwJUjCBPPqnyX579qy8hIASEgBAQAkJACBSHAA78P//5T3PeSe9GiBhyALKgvEiC4vadyXLG99xzz8dJ4dsiobBF2GLLbULzpk1Cz549M9lcbbIMgZwhEmDVqCtOzfaTTj4l1CysZWRBzZjCMH3GrDBn3rzQqH69GF4zL5DnA5FQo3q1MC2G0BTEOvSQC1MmTwkPPfxQeC9exNRVp068TAgIASEgBISAEBACQkAICAEhkMsIHHvssYHog379+qUIhGw+niuuuCJ8O+q7mIo+KtSuVTtceeUVWUF2ZDNm2Ta2nCAShg4dGnr37h2aN28err322kAqw8zZc8KsWXPCwlj+C6KgUcN6ls5AObA5c+eHWXH9vJi3UzumM9SvWydqKFQ37MeNG2epERMnTgo9evYIa8YQG5kQEAJCQAgIASEgBISAEBACQiBXEejYsWNAByEbIg+WB0MIBSaFhw4ZFHr06JFz41+eY823ttVy4YB+/PHHUFhYGHbbbTdj2Agbrlu7ViyzViMSBnPtENBEwBBVLIikAYTC/PkLYqpDtRSJwPrVmjYNW3TeMqZCzIxijR+ySCYEhIAQEAJCQAgIASEgBISAEMhZBGrXzl2tAaU25OZllzNEwoKoHtq2bdsUyrPnzDP9g1qFNcOChQuj0OIcW4deAqkNpDysHnNuFi1aHCZNmR6rOSxckvYQiQdyhurXqxuJhIFh/PjxqT71QggIASEgBISAEBACQkAICAEhkGsIICiP6DMz/Dyy3dBL6Np1hzBx8tSQrOaQ7ePW+P5CoMZfL7Pz1c8//xxGjRoVIwmahfqNVjVRxWrVVrELjrQFIhMo+Yg2QpgdYrmShQEyoVGDuia8iPjirFmzI5kwzaIUqJG6Xpt1LU3iu+++s8oOzZo1y86D16iWCwGiUIhIyQV79dVXreJIq1atcmG4GqMQEAJCQAgIASEgBIRAFiNAdQQeOOZ9br05MMu/YxRa5JENYoteyQGSY+HCRZaC3u+eBw3RGdFXw2jDeGW5gUDWEwkLY7QB2gg80DqYMm2GIVu/Xh17D6lA+gLpDpAFOJKrNW5oJAINSXOoHh9zp88Mi+N7RBjrxW3XXHPNJR+2iRNDmzZtrE/9yV0E+LL8+uuvw5NPPpkTB3HDDTfE+rxdQq9evXJivBqkEBACQkAICAEhIASEQPYj0P3EUwOPIYM/DUMHDzJi4dLLLrOBf/Thh2H77buGXXbZOXUgXv6xPBx4Jwvo/L333jNiANIAQ7vuzLP/GQ4/5viYZr6VLdOf3EYg64mExYsXh59++slQLozpCmghzI0XIgQCDwwSgYsU0UWep0bSoEH9ukYiEJ2AVoLXKKW6Q8HcGmHGjBlh0qRJYWbUSpDlPgIjR44MY8aMyZkDIVJmypQp5TLe2bHs6XnnnRdOOeWUsMkmm5RLn+pECAgBISAEhIAQEAJCILcQ6LLttqkB46y7ww6xkG4QDURqP/fCS6FmQUF4+ZXXUk0+/niJjtw22/zVny9LNYovWJ9c7qTBllttHTp07BRJgzapMSS3K+q1ExpFrdOy7EQgJ4iE+ZE4gBBAB6FOnVqhYY26AY0EKjPUiakNPBMSQ6pD7aiZwPupMXIBnYTFUSOheoxSYDtCEsjB4TF+woSAKEnTKL4oy30EIIWIMskVqxFJr+nTp5fLcGfNmhVeeeWV0LhxYxEJ5YKoOhECQiDXEfjkk0/ize3H4dNPPw1bbbWVPXNMvJYJgXxFIHm9+7X+z3/+M18PV8dVBAJJx7+I1UstcpKhXYeOSy3nzRHHnpDRsuLaLrOxFuQlAllPJKy99tqR7domjPvl1xhB8EdYd53WdiKIQqBiA2UgEVSEQKgbyQJIg3rV6hhZMCnmCEE0rNq4QSrVgfSIEZ99Fr75+puw0UZtQ+vWS/qzTvUnZxH4/fffTUQzVw6gfv365S70OXny5Fw5/DKPEyeBEkd+o+Q3T2XuWB0IgSxFwK9xf+Z3ceutt87S0VbOsJLkwTnnnBPkQFXOedBesweBm2++OfDA9HnInvOikQiBfEEg64kENA/WWWcdm00YPmxoaLPuOoY9aQ7z5s0Pk6ZOC7Vq1oziivWMRGAlmgmQCzHnISyKqRFUbCCUHEOY8e233grTpk0NnTt3tnKStkJ/chYBIlZIUUFHI1esXr164fvvvy/zcOfOnRt++eUX64e8tPPPP99SPMCkffv2oXfv3mXeRzZ14I4CTtQTTzyRTUPTWITASkUA54AZd0wOQjBnCZJFBMJKvQy1syxHIPndIEIhy0+WhicEchCBarkw5l122cXCth955JEwdOhQGzLkAGUfEVZE/2Ba1EWYHcs+YkQpkMfAOggHUhmo6sA2gwYPCW/37x8222yzsN1221l7/ckuBHCO77zzzjAhpp8kDa0MbpwJ5U8aaQ3Yaqutlly83K9xUvmhPeiggwKRMKeddlqxfVAhIhNDPXfQoEFh6tSpyzSfGIU+k0YVkQceeCB88803ycX2+ssvvwzDhw+PGiALU+vefPPNsMEGG4R//OMftgwy5emnnw5DhgyxtJ2GDRum2ub6C87NoYceaofBjZFmYnP9jGr8ZUWAz4E7Ce4glLXPXN2e43dyUd8NuXoWNe6KRoDvCz4n/lta0ftT/5WDwLw4YZqLNmPmkqoNuTj2qjzmnCASyCfv3r27RRVcd9114dNBg60MJMIgDerVjY86oaAg5pzPmGXKpEQq1KlVy1IdqO5Qu7DQ1r0z4P1wxx23R/HFeWGnnXYKKvu48i/9u+66K+yzzz7hxx9/LHbnVGC45pprwrBhw6zNgvil+O9//9uIH34AN9poo/DSSy+ltnciAY2AFTH6hzQ45JBDLFwex3/dddctkph4//337VokSqZTp07h9NNPN32C9P1CHLAO4RiICUQQ33nnnfRm9p62//rXv8Kuu+4aevToYSSKNxw/fryNa8899wz77ruvRdGMHj3aVlMaNWmM+fXXX7dIB6pX0Gc+GCQCaQxEIMhJyIczqmMoTwTcOaiqZIKTCPpuKM+rSn3lKwJ8TojaEZmQr2e4Yo8LcUYed/btU7E7Uu85g0BOEAmg2a5du3D44YdbBYfrr78+fP/dtyaguKR6Q7UAYUAqw9Tps6yKQ2FhgT1T5aFO7cIwYsTw0DeSCON//y0cc/TRckgq6RJ9+eWXw2dRo8LD+pnZp4KG2+effx4ee+yxsNZaa8XyNNvb4nPPPTc8+OCDYY899jCHEocZsgECAPPqBx999JEREGeddVa4LJa5eeqppwLaCaVZ/xihglghBlH1ww8/hHfffTdceeWVS2166aWXhqOOOsoIgY033jhsvvnm1g4S4uKLLw5z5hAJE2LazDRz/jnW9ddfP+y///62nLSDdIMQgdR6/PHHLUrmhRdeCDfddJM1835wpCElKBVJFMPtt99u64855pjAPohgqFu3rhFjkCwQb/lkTiLk0zHpWIRAeSKAc8BMY1UjE0QilOdVpL6qCgIiE6rKmS7f4zyp+1Hh1ptusMe4mFJ7y3+uL98dqLecRCBnPA40DgjhRpkfh2q//fYNe+21VzjzzDMDTt3sKLyIU1pYs0aYGyMSeNSKAozjxo0Lb7zxRnj//YFhrTVbht26H2Mz202aNMnJE5brg4YQgkjACMXv1q1b2HDDDWOkyB1GDEAAYDfeeGMkiuqED2O92xdffNHOcZ8+fcyRhkDg/LnuhRMRr722pGwNTnWDBg3Cww8/HNZYY43w/PPP27N1XMQfflQ33XRTGxfkAdUUIAxqxagWN64tUmuwCy64IJxxxhn2mn3fdtttFkVQM2p1XHHFFeHWW28NX3/9tREIN9xwgzn2pCCkpzLQAdcvduGFF4aTTz55KRLg3nvvNVLj2GOPtX2S/4v5tcvxd+jQwZZxvEX1bytz+A+OArMnMiEgBEpGgO8xUr8gHnldVawqHWtVOac6zopHgM8Nv61V7fui4pHNzz0QgdC85ZqhS9ddUgfY/41XQu+rrwwXX/bv1DK9qHoI5AyRwKkpjCkKzALfc889gZlbHC0cUZzTjdq1t1B0nLkJE8bHCg+Tw4QYFk7KA47XLrvsbDdXEBGUfZRVDgLMmGOLowjmc889F9AFIDUBR/3RRx81Zx7H2dX4cdKxL774wvQA7E38wyw1lTsw10wgjYDoBYgl1pEOgfPPrP2JJ55obYv6g5YAZAPRAUQkXH311aFfv37WF2kJXHeIfkJQrLrqqhYd4P0gmggJwH5IXYBIQLuAthBeHh1w6qmn+ib2TNUGN0iMI488MtWW5bNnz7Zj5DW6CTzcjjjiCH+Zei4oKAhoS7gRHUEaxu677+6LcvZZjkLOnjoNfCUjQFRCVYnggWR0jYiVDLN2JwTyAgF+W0lxkHBxXpzOCj0IiIRrbuq71D522WOvcE/fW5ZapjdVD4GcIhI4PThmaBsceOCBlitPOPvIkSPDiChEN3PmDJvlxqnCmaS8I44rs7aEyueT+FyuXqqtWrWyoX/11VfmrPOGmXQiEohC4DxddNFFqcODLcfRJp2Fc024PykPEEpuOPcY23bs+FctXFIgsN9++82eS/rD7P5+++0X0CJAsJD0AlIZSCO4//777ToigoKZfwQPnSCAEMHJZx2pFxj6Cf/73//CwIEDU8uK2zeOPsQD0TaQGFQSgQRxcUaiFNBOYKaRCA3aIwSZbuhDuHYC6+6++27Dk88GY85Fq2ph2rl4jjTm7EJApFt2nQ+NRgjkAgKKSsiFs1R5Y0QTYYO27YocwDpt1jfNhC06b1Xk+uVdOG/+glAzTgDLcgeBnDxbqPkz+4uj9v33P4TCGIK+aNHC0DJGG4yLAnTM5pJrz0w3Dh+OKA6frPIRgODBIA0wCAIcaH/ft29fc5htZfxDe9dUOO6443yxPZOCgHNN9AIpDKQyMBPfpk2bAFHhgoyQTqXZYYcdZg47OhxEBxCJgGDh5ZdfHogAQIARrQOiKHiPrgERAJAAREtwjRHJgOH4v/fee+Gkk04ycgMii3QMxkt0DKTJr7/+am2JuCAVgggIxoChh+ARFFSvYDxnn322rfM/EA1JYgwyBZzGxioR8+bNM/IDYiVXSQQ/Ts04OhJ6FgKZIVAVwpVFMmZ2LaiVECgNAb4vmKgQCVkaUlV7/ahvvlppAHD/LMsdBHKKSEBUb8SIEeGDDz4wIoFyf3+PM8ibbLpZDDlvsiTqoH5dm82lVN7bb/cPT0Rn8LkYtn5EdBBxBIlmyHXnKncur2VHCv7oAqB3gINPpYTVV1/dKgwQieA5/74lM+vM1iNoiEPNbP+YMWMsOgFRRMJ4iSR49tlnQ8+ePS2awLflh/GSSy6xaAJfVtwzUQvoI+DkEx5M6oELNRIxAQlAqgROOqkSMPgYUQ9XXXVVOOCAAyydgWVHRzFPnHxEI2lHdAKGY+8/1q1bt7Z0DtJsqK5AOVL0FEj1gCQgwgCBSQQV//a3vwVIFMYEaYFuBGOCSKNPjAoSkGukd7jRXy6ba0Lk8jFo7EKgMhCoCo6BSMbKuLK0z3xDgHsS7qNk+YEATniHjp0q5GDGfP9dIAIhabVr1wrlFY1A+sSMqZOT3et1DiCwSpypz4mp+smTJ5sDR9g5RACzvjxWa9os/DF5aky6D6Fhg3qhft0l+gcc1uw5c8PnX3wZHoqh52++8XqoG0tFnhxniXH0yG2XVQ4CzM5DCFESEU2L0gzhQlINmP13I1KBMP8TTjgh5cCzDvHDn376yUQ5kzoEvl1xz1xf9913n+lukKbgBlEAiUGEghvjZz/oJmRCSpEK4cKQyT6IaEBLwY12RNK0b98+hQsCkmiCDBkyxJuFLl26GCkGecEYMIgOCAkcCIgXohtcjyK1YY69UA50jp0wDTdrEMj3z47yurPmUtNA8gCBfP++yINTlPEhMAm1/Q47hyt6XZvxNpk0RFRx6JBBAV0EJxMQW2zZYo1wznkXZtJFiW0gEXhcfMml4eOPPrSKaCVuoJVZg0BOEAk/x3QFZoE/iDOxazRfI5wWQ7/Xab12zFVfFGbGNIY5c+aZQ4X2XsP69WI6Q/Uwb/78MGPmbBNbrBk1E4YO/yz0uS2q6X/1RTgtCt8Rnp504rLmjGggxSJA2gKRAy1btozntaDYdmVdQeoM+yLiJVuEOYnGgeAghcPJg7IeZ7Zvr5ubbD9DGl+2IpDvjra+G7L1ytO4chGBfP++yMVzsqJjJmp3Xqxat/e++4eTT1tSFWxF+0rfbsA7/cO5Zy0RDm/fYZNw9rkXlDkaAf2Fu/ouKWl+0mlnhDHffSMiIR34LH+f1akNqPEzc02FBnLK//73v4ctttgyNGjYyKIN5kdRjjkx1LxundrxUcs+PDNnz4klIAsikbAgQr9KjFCoY6dg8802ibnnZ4R+/+0XqwM8ZjO+pDpkMqOc5eewygyPcoykBFS0NW3atKJ3sdz9N2rUKPCQCQEhIARKQ8Cr3pTWLlfXK+0pV8+cxp2NCOT790U2Yl5RY+I+cfz4CTa77/soL0Jhx513CcO+GOXdluk5nUDw9AiIBFluIZDVRAJh3uTSY927d7dQdgiC6TNmhslTp9vMbP16dULdmKOD1fyTQBj/x+RQL6Y4NIh6CW4FNQpCh43bh6uuviYMGzokPHT/PSZMd/75569wmgP574SSY8rXdKT1LASEgBAQAkKg4hCQ41Nx2KrnqomAKjfkx3mHSKhRUGgRCX5EpAy4lRep4P1l+gxxgBF9wGuIAyIQnEDwfoimkOUWAllLJHz//ffhlVdeiar89cKpp50atth8iXhIjVimrzDm1c+fvzCWCClYqkzIwkWLDP06tQst7WHajFmhYdRFqFZtFYtgmDN3nkUodI3lA6vHZffefWdANR8yIZNcfTrny9aFaVC7FYGQWxe8RisEhIAQEAJCoLwRWBTvPyjdy0NWdRHo3bu36TmdGlNoDz744JwAAoFpWX4hkCQMIBKGDh5kB3hS96PsefPOW6YOOPk6tfDPF74db/11sn2SpEjfNvneCQPIg5PCsgRCsq1e5xYCWUkkoFxPKb9pUUDuhCiOuM66bUzzAOJgbmSreBBtUL16tTBr9txILCyKxEC1JekOUbAOnQRIBYiEaTF6AeJh7p8pEEQqLFiwMHTtukPcdnZ49f9eCs/Hqg6kORSXd5+MPOAL94knnsits6zRCgEhIASEgBAQAhWGAOK/GGV/t9tuu9CiRYsK21dFdozocLt27VIVhlZ0X2j6EFWKkPHOO+8cSE3MxCBkLr300nDuueeGbEwzLOkYqND03//+16opUUVq3333zXiSqqR+tU4IlAWBdFKBvpwU4DVkAI6+Rw2wzB1/SAMnDpL90AYratmSNfpbVRDIOiJh3LhxUcPg0YBS/1lnnRU277RZmDVrjhEGpDWgi1CzoEYg6gBD6X7q9CUq+1RqINWhIK53KT7WTZ85K9SJP2KQCBhijE0a1Q9bb7ll+DgKOFIRABKBL/2kkF06geCl+6wT/ckbBDjPFWme/lLe+8g0T3hFwoAz7ZtjKq1/yDd9dsr77Ku/bEIAMVQ0fXLVecwmLHN1LDi9H330UbjgggvsEKj4QwWdw2PpaURyc8XeeOON8NVXX63wd/b48eNtIujee+81gWCO+/rrr7dSz5lgAJFA6WRKGierJWWybWW3GTBggJWE7tWrl1VOSt5PVvbYtH8hAAJFOf5OIChSQNfIiiCQVUTCtGnTAuXuqIParVu3sH1MQcCqR3JgxqzZYcrUGUYgQBa4IaxIygKEAaKLvHeDcKhVWNPIBsgDL8O3KBIOkBN16zcIB8XQs99+HWc/XJTLmzp1aqWnLuS7Y8v5Kc359HPoz+Xp2Hqfy/u8ouF/mW4nZ3t5z4jaC4HMEYAwxpjpLG+78847w4MPPhiGDh2aNZVeyvsY1V/JCBx//PFGJHB9QSjhVOJMkz552WWXhRNPPLHkDrJo7ZgxY8KPP/4YRdvG2yQLpZpLc4opiXzdddeFhx56KGy66abhlFNOCb/88otVWaJU8fIa6a2jRo2ye7ImTZqENm3aLG8XK709k1nNmjWz877DDjvESaususVe6Xhoh7mBgEcf5MZoNcpsQyCrvuW+/PJL+yHeZJOOYdfddkthtWhxzD2M7wSPNkkAAEAASURBVOpEUUXSGWbPIZ0BwmAVi1RYEMtANmwQ0xliysL0mM7QAKIh5inOihUcSHlotmrjmCYxM0yJj4YxJYLtZ0YioV4kHnbYftso1lhoX/z80P/0008B7QOMmeSSZpMzdW6X12m2nWfwJ1MHNb2rTLeTY5uOnN4LgfJBYHZMq3r33Xdt1o+bZFnFI4BTxHd2RRAJ82LqHKHckyZNMsep4o9Ge8g2BDj32FFHHRX4TDObvmDBgnD//feHq6++2gimI488cqUOm9n90ggAH9A777wT/u///i+MHDnSruWuXbv6qvD++++HtddeO/U+/QWEwdFHHx1IS+3bt2/Ya6+90ptk9P7uu+8Ow4cPt7b9+vULPDCiO/i+TNryHBvb4eSPHTs2UB6vogysfSIofbwVtU/1KwSSCGzTZdvw1ltvJxfl1Ot58TtTllsIZA2RAPuNVgGih92PPy60aNnKHH4iCWbMnG2oQhDMmz/fSAB0DhbHpfxQ148pC7VrFVpkAkQC0Ql8oS9aFFMd4jpLZWjcIMyKBMIfk6baDwppDp7qsMUWW9gPDDeCMOlJk5hiEg29FgJCoDwQeOSRR8y5oC8irzbeeOPADNaWMd2qehSUzSeDNDnvvPNshpKZzcoyHI8ffvgh/i5k7lxlOlZ+hzAIBVnVRIAZdAynm/sP7mm43oiwxFzQmeuPSRPSBxo3bmz6AT5z/fjjj4e77rprKacZMWjWX3vttdZP+h8iAdhfnTp/RWp+8MEH4fLLL7f9Q2iwre/jw5jOyffMb7/9Zk5/ly5dwt577x0eeOCB1FhJxWD7Dh06hFatWpUoIMnnGxIBMuH1118PRHYOHjzYIgm23XZbGy77TmpQkQrEOObOnRs6duxoRMH8eG8H4eLGuE4++WQbw6qrruqLLYUIQUMiH9Zff/3Qs2dP06QgtejWW28Nu+66a+jcuXOqvb+A4CDFgvPEeIoaA23RdUDnAi2s1q1b2+bsC/FvIkzq1atny4r6A1mBEYEC+SETAvmIgKdCKJIhH8/u8h9TteXfpGK2GDhwYBg0aFDYfPPNQ4f27a0iA5EDU6fNtAoMEAUQAkQlQA7MjNEGEydPtR841mGkMdSO0QUQD1OmzbDoBfQS3GrFKIZakajgR5fqD/6lz/NmnTYPBTULTRiIH1UnEG6++ebAw1lm70vPQkAICIEVRSDpcPLdx8zboYceajfAfN8wc5Yvxg0+N+FPPvnkch/ShAkTLES8qA1xXP72t7+FY445pqjVyyxzsTcciOIMQuCtt94Kv//+e3FNilyOM4XVrftXyeEiG2ph3iIAOYCdffbZ4cwzzzStJ65flPufeuope544caJpMaGdgCjfv/71r1QqJdu+/fbbS0W0MDv/9NNPB7bjcfvttweuNZxlCAYmPw455BBzpJ3MIoryiCOOMHKSdB62R/cAg3RAs4HoA5x/tAjOOOOMMGfOHLvPIR0D4gHygKiCtdZaq0QSgT5J6yESAZFGSASM4yfVo23btvb497//bcv5w/cAEzZoSUBegAWRoBAN7J/0IIgDIiJ33HFHe+0bQ8Lg5D/77LPhhhtuMGcdwgODGAFTMMSIEAEfDBFE12mARChuDLSFBPn1119TeidgBhFDpIaTMbRLN/S9nOyhrUwI5BsCiDIed9Rh4aUXXwhUf8i0YkO+4aDjWRqBrCASYO379+9voXP8QJK+sIQcWJKegOOfJASYsaOkI8uxBVFwEUMDgUgFCIeC+OBHh3UQBbymwgP9QESQ6kD0AsshHurWbxh/uLaxHyN+zDDIBH/w48yNPjf5MiEgBITAiiIAScBN7T777BOGDRtmM2TMWnJD3LBhQ3MsiE544YUXVnQXWbkd6u3La+RZQxQwe5luOC6I8q6++urpq4p87zO2zHwWZ88991w44YQT7Lt+eqwalKk5kVC/fv1MN1G7PEOAz/Iee+xhn1tIBSYfiDyCLCC9kfsQnGBSbHDkCX1n4qRPnz42ew8cRDHgxGMQA8xsY0T04GzjPBP+j+OOw33xxReHL774wkgGnFfugfgegdBCPNrTLSAEMO53MMbBfZc7vvSH807Yf4MGDWxCxRpm8Ofll18Om2222VLijEQJkCIKmcBYICw4HiIlLrzwQksvYub/mmuuMWcfgW2M/a+22mqWGoJmVroR8QDxCvmAFgHkgc/8+zGyDcQBY3rzzTetix49etjxUQ2itDFAUBKR4REk3PNBSLCtk5Hp4+I9xwx2VAB78cUXbT8s51xzX0u0iUwIZIpAWSYvvcpCpvvKpB2kwbj42Tj4qONDl667hGtu6htGf/9D6H31lZlsrjZ5jEBWEAn8ePIDB/vMD8nCqHlANAJkAcKK/ACjaTA//hDxIBqByIJVGzUwogAigIoOtCH1oXHD+qFl86ZW9hGyAAJhemxDeee6dWpZVEO9unUs1eG3CZG1jkKOpDnssfuu9qPETStiQ0mDUCDUjWd+WEQqJNHRayEQFLWT4UXgN8g4Bty8M8tFCC0OLIQqIbgYM5ueL5xh11nXjNBlbswxCFpmURFeg0TBCSrNuDHHuPlPGo47zgnOw5VXZnYj40QCzlZxRig35wQnCycwU3NyonbtJZWBMt1O7fIDAa5znM1ddtnFHNiiwt+/+eabMGTIEKsShXAgn213dP2Z7wK/lm655RYjCYg4YGbf7T//+Y8551yjOKwQajjrEAqIE0IKQGgw48+9Ct8jXNfYH3/84d2YOOhhhx1mTrNHU7CysLDQUg68Ifc8jL04Q1iSY0n2TaQQJCCfX3BhPBwbn1nSKhgTRioCRsSGkxy8T46BfiEkiOJ66aWXLNKC706PRPLvEfon1YHvBlIQML43iF7Amb/xxhuNqC1tDKvEG0X2xX0naSr33HOPfc9wHoozSEfO4WmnnRZ6RkKB7xCiQiBqunfvbvvl2pAJgUwRYPKSzy+PbLBJkyYbgZAcyy577BWGDhkUBrzTP7lYr6sYAjWy4XhHjx4dGjZqFNq139iIAIgEIgmISkBUcW6sygARwA8sGWikJdSNjj/PRC8gqjhl6nSLUKgfCQJPdaBE5MJFC8MfMQWCCg5NIvHgBqEwN/5YTI6VICAe6saUiXrxphShJMSRYL2LE+XhhxWDMfQPuS/z/vUsBKoaAvzw8cAQ9JRYZ9FXADeZGKG83377rZEHVKlp2bKlfYehmYCDzKwa0QvMrCWNm35udNEbKC89BcJymYXzKC/fH9+5OAnkcnOTnm58dzOzynch555jY9YQx4Yb66RSPQ4FYdYY1wbRF6UZs5o4AaS9JQ2Hgv4ImU6fJcTJ+Pnnny182skDtnUnP+mwJPvkNaHZEMkjRowIG2ywQfpqOx/MKG+44YZLjZ/0DT+vyY1Kwy/ZVq9zFwFPl3HSrKQjYWaazwtONGkPRBIwSUFKwXbbbWcRB5CNno7APUnS0FPhO4J0KEg0HFRSBSAQXOOJSAfuTXCGcYzdSI/AKK3NxA2GYw/BweQIxmed7x4iCPiuIUoHZ7g4Y9xEVCHOiJgkUTlshxPOZxT7+9//ntqcdURVIOz42WefWbQF5AiYoIuAEZXAGDC0s0hX4LuJzxPHAPHAZzt5bLSFMCFCgjZEATzzzDP2gHTYeeedaWJW0hiIHmF8ELv+e3bssceWmNbAZBjGsZMmcuqpp5reg4tFsn///rGG+iMESkHAfYqkn8EmvryUzct1NZoIs+csSd9L7xgyYcTwoWHHnUWUpWNTVd5XOpHAjx+zcMzIrRujESAMFkUigQgBL+VYGLUPiDiYFMkCfhKbROFESAQM0oAfSwiBwppR+6DGEu0DfmAgJHjQFuFFiIOCyFoT6UAJSMwqPER6gvKSVHHoGkOKuQGGyeaHNhkuZxsk/nAzLGcpAYheVmkEkj9w3MQyo8ZNWXJ5lQboz4N3Z51ZS3J6uVGnbBqir9yEMrOI4RTslqhegwNL7jE3FhiOKzfU6623nr33P4Q8Q4TiUEM07L777nZTzXqIC26SCdPFYcBwgriBJ586WaaNfnDk/Yae8XBj7iG/CJB5fjL98F3ZvHnzFLmBM580QpCJtoCQYPYwE/MIARwdnBIIChwccsV5DQHjxnIcK8owuhE2TvQD5qQLzogbM4np6Qjc8KdXtqEs8CWXXGJOim8L4ezOCRimV98oDT/vR8+5jwDXIo+koGD6UUFSQazx+aMtr0l7QJPDSyWefvrpFlWAI7zffvvZZx3iAPPPK7PczLoza4/OAYYDT94/5CKv+XzzfUGaBJ95HGKc+WOjQ0wUAvtzQxOKz4mbf59AaqAVwH2QRzR4m+Qz23Pt4zTz/QBBCClK9BHRPwgo+ueESARSQFjG9x3tIUohTdBRcSIBrOgPwoTvH6IO+M4ALz7zHDcRAhAukIykOLH9cccdZ9+n7A+c2R8kn0ctMO7SxsB3CCQCBCZYogFBREVJBgnLOfWKX7Tl/U477WTijXxvM+arrrqqpG60Tggsg0DSz+C+yicvabgy762++mLkMhEJjOGH0aPCem3W5WW52Lx5f/0+l0uH6qTCEcjsbq4Ch0EKATNKMOgN4g/Q1CiSiJMPcQABgKaBEQIx9QGxRNx/dBBcC4Hn2XPmGSHAjSJpDogu8qNDygKpDk0a1TciYUb8QVkl/iNSgXQH2iHeyL4mT5ke+1wUy0WuEjp26hyee/ZpK0VZEpFQgbCoayGQ0wj4D1w2sOnZBiQOL8Z3FE4+RAKGs4zhcHOzzyygOybcMHPjTDgzzgbhxDgLONQQNhizoeRSf/TRR/be/+Bg4FzjELz22msWFUDoMTN2GOrx/uxEAmQGub7cDHPzS8QCpAezg34D7yQC76+44oplZtyYhUM9HceE73dyml2MzXaYwR9IF27iCUfGGWLMzDjiXHBznpzlo6wjod60x2m67bbbQs+ePcOee+5pWHvkAmQNZALODGJvODT0j2OGMZOKnoOTFI49zgokCE4V5wxHCacIg5BIRliUhp9tpD95gwCkINdecVGMfqBoHuDIci36Z5tr9fvvl1QSoB0EHQ44FQ+IWPBZd8ov8vl3QoxIAjeEEflMY3wWcWyZECFiqH0Ur2YdIouM03URfFvISv8uYBnfEzjEfC9cdNFFpkfgY/Bt0p8Zq1doSK5joqhRjDb1zwaRPET88HlhuRskgH8vsgySBX0HcIBkdYKBzx+fVT63fLYhUyEiIPlIo+CzSXQEuil8dyQJEt9XaWMAX77beJAewvfDmmuu6ZsX+cw4SN2CEOFYSUXhe89JYwiZZHRUkZ1ooRAoBQG/r6JZklRYGRGgEAZjvv8urNNm6cjEn34cE274T3akX5QCn1ZXEAKVTiSgagzT3rTZ6jEaYdafJEB1c/RnRPKAiAPIAqxRTEEgLBX9BCIISFdAM6GgoHq8oYxVHeIPQKwWbOvnz48hdTEqgYgDT3VgHUQD+2lQv66RCPRLP6s3bWylIafPnBtvQvcIn3w00Gb1YOVL+xGhD5kQEALLIpAtbPqyI6u8JS7Mx3cZTgQ3xtw4M+OOU44AWfqMPTm/OBHHxhlFbm4//fRTO4DkLDizcTi7ONI8uLngBh2H2cP5nTTwWUc6YcYNc0eb14iTYUQp4Gh4zrHf/DOLD9lBmDZEBU444dJNmza17fjDDbnPZHKT72HVqQYZvmBWD4w4Fpwcz6s+8MADUz3gnODIMXuL88C+cEzAxx0vJx0gEphx5MYfg8Dh+Mhvxgi5JqLDiQT2B64QK4jdcW5Ie0geDxELECVupeHn7fScPwgUlfpT1NGlR8DQJv3zzvWH8+nRNN6PX8v+Pvns6+iLSgw8MrUkUYDzm3RYMu2jqHZgko4L4/TvkeQ2SQxwzBGkLcooF+nkaVHriW4tzTIZA1FGRHylEy/F9c3nPz0NxdtC7MiEQHkikPyMJiNAK2JGnzKPPO6+42YTWfTj6P/GK2HrbZakI/kyPVc9BCqdSCDsbtr0GaFGQWGoFh1/nH6iEPgxw+mnjGPNgoKY6lDLnjlFpCeQ5kDlhboxHQGywFMdiDCYGaMNEF6EePD0CLaj7/mRlECAcX6MQiDygX1ic6IOAy8hFVjfZdvtw/PPPWOlgEQkGET6IwTKhED6D5+H6K0MNr1MAy/njb30IwJtGDN56AqgpI5TjhI5kQYuNAjx4DfOzMTxcEPQC6MNzi6zlNShx5iNdIx9Nsz3SUQDRlqZO9TuTBCS79ER1HF3I1LCBcNoyw02zrzXdGcmFWccYTRynJPG7Kvvm+U488z8E5FRmhHejBEFQIQYhAqq7a0TDgPRBxiRAEltA3Dz43JHBcKDiAZIG6ImiFigbycSwB0nzlMpmNklMqNXr14ph48c6KRxPD77mAl+yW31WgikI0AVA1KJkoRfehu9r1gEPFKM7wfZkhlwJ7CzDQ9SKGXB7hPQmlt7nTZWmvHk084sN1juuv9h6/OSc08L6663QZy8rRWOP/HUUN7aCOgxoHUnyx0EKpVIIBqBkL41WrYKqzVtZtEIkAgYaQekH8yNQoqma7BKtRSqaCLUiCKLEAy8RpixetRGgBQgTSE+xRu/2ksqPERCAWFFUiIgCObG/BuiESAOICJMIyFuAGkBibBq44Zh2oyZoct221sILTe7fEn5jbffmKcGoxdCQAisEALclBCuzjNiY1XFnCBwgS6OGweZG1dCiRESZDYcTAjRZbYbw6knBBnMIAZwwgl3xly3gO9T9F3IG0Zt3MXOPGzf9w3p0Do64j17LgkPZnad9AXMBeMgM5jFJ3yf8XmKgDX68w9hv6iiQ0YQvYAGAg+2JXfajagziA038pdRUUdozsfk69KfGQO5ylRRcEIlfbaVFBocL2YxSe0gHQECgpQKN5x9DBKBUHBCpiEZaMcMMDgTluxRFQguQvIQrs42tCHSozhjn9jy4FdcX1pedRHgWoO8IjJJVjkIEMEFIQth6WkZlTOS7NlrciIge0ZVtUfC757/JpKOxD3D+RdcFAa8N8AiCMobHYiJ8iQn0sdHiclffxkX6sdIJlnuIFCpRALRCMxStduobQxBbRTmRCcfIgHiAIefL3MEEBFHJB2B6IPqRCrMioKMkUBoHLUPyKGbO5e2kVyIZAJkASQEYo20mx3JCGx+bLcgkgwN6tWNkQk1Q8NIJkycPC1WdJi2hHiI7BrRDBhtYveh5ZqtwnsD+ptquRMJ+jI1iPRHCKwQAkX98K1QRzm8kTuqydB4DgdygJl1dARwcnGWqXLgJAApCDjU5FgnzR1g0h6IVvAoBYgGwm1xwJlRxxAhg6ggLQGDaCBlACEw8ntJB3BRN0L60VRI5k+zHofcc62JroDg2DGmHOwQhWqp4EC+MmNv165doMwdRqgyCu1jx461ihMIFUJOlEYi2MbxD5EPXo6RfaVrLZDSQP8QKaR4JI18bLB18UfCjImi8EgF8schCSBXSMWBvMHYDuP4ybsmYoQxk64BDqwndeKOO+6w4/CSwZniZ53rjxBIQ8DJP4gxWeUhADGYJCIrbyTasxD4CwG/h2KCk2jOoiZhWrRY06IHNu+8ZYUQCn+NpvxeEYkAkcCYt+mybfl1rJ4qHIFKJRK4kUbdd4P11zPHfvqM2RYZAJEwJ96g1oziihZNEEkCSIE5URuBsg3cADaIoS+sj4kOMdpgjhEIaClAIEAUYJAQBTEfD7KAqIWmTRqm1rEeIuKPSVOtvCQkAlELsfslFpmEXWNu8IcfLtFK4AcFRXKZEBACy4cAP3wYM+n88MGcV+VqJ8yw4/iSKpBufLcRYk8qALoAGI4pYomE4eP04iiTZ00YP9oAfI/iCFMKET0DnHUcbb6ziErAnEhACf7333+32TbSFCBGIUnpk/x/lN7RhSH8H1IDDQe0ARAnJDKByAMccc4p6RQQF+gL4GxDkHDz7TPzpCA4kdCpUydTQYdscGN/mRqCapARHGtRocZEODB7CHaQLUQR4NgTncA4mLXxsRA5kZxlRGCSZZSE47p0B87zmiFZaM/54LiZMcYgFfw6JqqBfGrI8Uzxy/TY1a5qIYAY4KuvvmoiiVXryLPnaElTQivFJ5CyZ2QaSVVFgN+eTO+hWkS/isiBk7ofZc8VGUVQ1vMBgXBX39utG9Inhg4eVNYutf1KRmCVmBqA/1wphgo4qr4I1CCgQ7oBmgiIhdSJ6QhEDUAquLEOoUXyZ1jv+gYILk6KZMGsuK5xg/oxdaFOKl8VrQSiFObFNvS3JMKhmqVETI3aDNy4E/lAdQciESAUGAepDuzj1ptvshrGlB1KlmLzMelZCAiBohHwHz5SF1aEPCCNKF8jgPjO4buHR3HGV3NyPdEBEAOuX8B2qJnj6OMMe45+sj8cZCILSHXwmfbk+uRrCIjWMd0BY9+kJ5BugSOO4cijwYAGAtUYIBdYTzt3rr0davNUUfCUC2bv+Q7lRgiHn4iI9KgC20kJf4YPH27OPurzRR0rEQUcL2HhbhA2RGYgrgiZgoBaUUJvo0aNsrH68TPeokTx6JcoOBe28/1AnpAKwSwRESSZ4OfbVsRzPn92wCvfj6+s1wSRnl7+sax9afv8R4DfasyJ0fw/4tw4Qs5LMnUhk/NDagMTr5AHOOnumDPbjyGayKx/ZUQrMB6MMfm4eH/SaWekIicYZ5NGDcI1va5mlSwHEPjLS6+EwaIgTpmt9JtCv0lLUhyQBNxUexWHWVE7oXa8YeOGfFokCtgGomDBwgVGKNSJwoqUjaQdxAIEAakMk6NII1EL6C9wI9ywQT1LhZga9RJ4YNMhEWIVCPpANdlzXisBIu1SCOQUAuk/fPlKBJT1pKR/5xXVX5JEYD3RATxwhgl/Zsa8tH78u8uFBovajy9zJ5r37JvyijwQHiRCoigBRQQLeeB4Ey1AqH9R6Qo45aQAlMWISuBRnEFMEJlA6gWClUS7eYk936YoEoF1SYFG3hdHIrDOf5947cYxd+3a1d9mhF+qsV7kLQJ8LrjHgcSCiFtZhm7JxRdfbOk6LrSavm+iZxCS9mil9PV6LwSEQOUhcOihh9oETFGpC5mOyqst0D6dWCBaAXNigddlJRecKKAvJwvo09/7a8gC9pskEKyR/uQkApVKJMCYN2rU2PJtSUuYGZ1+qizUigQBEQJzIqvOzA5kwczIsBFNAJEAOWA6CXE51RcIqYAsQHwRsUXaTo+zRrPnzAv1Y0UH1z5YtXEDi3j4bfykKM5YLazWuJGRCJw5SAj2NX7ilCi42CClGsoN9TfffGM30URNeH5zTp5tDVoIVCACzBIWl7NXgbutcl3jDBfnEKeD4YKO6Q51eruS3nuIf0ltcLxLcr5L2ra811HGMkmKlHf/y9tfJvgtb59qn50IEJlDZApRQ+iFJCN10DshomdlGPcsGAKq6eUXWY7GB2lOEJIHHXSQkYEIp6aTl7TN1O677z7TRclk1jTTPmkHGYrwIalbpRGny9Ov2gqBbEagLARCcceVTix4lAJOf5IESG7PNiVZcjsnJTzawIkD3vOaZ8iDYV+MKqlLrcsxBCqNSGCWC5GwLbbcKtSuWz9Mnjbd0hggCxBNROeANAbSEtA3qBsjCryUI8TAghhtMCMKMGKEwUAiYFReWBDJCAgB2teoVt0IAn4gIQp4VI8VH0iLWLx40TLrGsUIBao5xKBji1xglgvniAoTf/zxh4gEQ1l/hMCyCCj6YFlMKnsJ31lYWYiEyj4G7V8IZDsCiHweG8VOnThA/4SUGvQOEDxleVKXo6KPBzIDK87xJkLpxRdftAorEBw8GDNlTSEWVoRQQKyVKNPyJhJ++umngDgr+CYJQtI3IC+opFKU3kxFY6z+hUCuI1CcdkKSHCjtGE8KZyzTxAkEVpRGRCyzsRbkHAKVRiQQBjtjxozQKoaf1ogkAJoEzVZtbCSCo8iPGfoHVGSgSkP8n7LqsZKDh+tCNBC1wI/m/BjZQCRCk4b1l2gdxOiEumEJCUE6A+2ardbY1pESEX8xQ61IOEyJ5AHkAmkPkAmkQKCVgDVr3iJ89vnIMGnSpNT+9UIICAEhkCsI8L0nEwJCoGIQIN0IsgDygKoliH1WpnmFEqqrFGdEKhBFRuUVCEdSly644AKr3kIZ1RVJxUDglCgook0hLzfZZJNiyYzixlXcclIxSBWBQGjVqpWJxl577bUmgoo4ZbZERBU3fi0XArmCgJz/XDlT2THOapU1DELuyM2rF0Nia1SvHhrVr2ciVjjvEAc8U/KRUo71o3M/N/7YkbKA7gGRCkQkNG5Yz5x+0htmRFFFtkFAcVGMNKgVUyAgDAoKqls6A6KLpEMQzUCkAqkM9E30wW8TJpnAI2kTjAVrHIkIyIRxv04Im0fF8dWbNV0hlr6y8NV+hYAQEAJUecBWZIZR6AkBIZAZAl4mcKeddiqRRCASkwkUDIcY4c6KMCZqsEzIAIgEHHM0TF5//XWruoKwtAvwpY8vnZR85513TBR35MiRltKBVgjlWrt16xaIJkg3okIzMdIurr766gCpgVF+FaFWhGUZKyQFgt1USQFLmRAQAhWPwPhY9WlajCavSENwX5Y7CFQakUCqQM2ohVCzZqE59IgeFsS0BEiCGbNmWUoDTj0VGhpEp79uTHmAKJg2Y2Z0/mcZGUBFB1IZWDc7Rhv8/sfksGD+wtAwVl9gOUYlBl5PnDzVBBQhD9x8HVEM7MdTJ3w976ncAAExLCqGk4ohEwJCQAjkCgIXXnhhoNpBcYJruXIcGqcQyAUEkiTBZ599Fp5//vnw5JNP2qw/46d6yOOPPx6YSUfgk5B8r4pCVMMrr7yyVKUUtqFc6yOPPMJLMxzxvfbay4QUfRnP6DK8//77NmvPe0qyetQm74sziAQ3UjnJzWZbRFTHxkoubrPifdnll19uRAnrP/jgA1v1QCwBS/UWF4Dt27evlaNl27XXXts3txK27dq1W6osra9EkJKSs7SnlOrQoUNNmwrxVK9SQ/lbRCSpznLllVfapojP9u7dOyUEC/6QC927dw/nn3++YU2ZWjeiRhxvyrmSjkeUg0wICIHSERj17dfh3rv7hSt6XBrOPPXEcHXPy8PXX31Z+oZqkdcILPG2K+EQYbVbrNEiag6sZkQCM2ZEBGCTp8LYLzYCAb0EDI2EuZFIoAQkrz1ygHXVo+ZB3ejwz40CjbxeGPsmFYJUBdIe4nycRSIQlVA9aiagv4Chy7AgRjOs0axJjHaI6+ZWW0ImxO0mT5lmBEXjqL/wYyQZFsUIiKLUuq0j/RECQqDcEaBspKxsCPC9SiUFWdVCQJ+dyjnflGqDKHBnlahLRAx33HFHK7/KPcRDDz1kaRCkQJBeQOUEyAZIP9qvt956YfTo0ZZiQKQAUQIIDe69996ms0DawhdffBGIAMDxx8FH14BlmEchoO2UiVHlhD7cGGOvXr3C559/Hnr06GEEAPdrRAQMGzYs3HDDDVYSG1IBQUnSIyh/SpQAaQ2QHOlGiVi2oyQsfV111VXWDiFSoieIYAAzyALKt1500UW2D1IWSFklsmrPPfc0LJN9DxgwwN6CL5gdeeSRVmVmhx12sH4pOfvggw+aWONaa61l54ZSuOyPqhYYeJ9++un2Wn+EgBAoGoExP3wfPv7ow1C9oDBssFEHS12aNPGP8NKLLxiJuMWf1RmK3lpL8xmBSiMSCHmrE380a9eubdoH8X43ZTj6c2NoCxEIEAnV4w8Jr0lrIDWBm+M5kUWvU63QfmSIRkBLAUIAfQTSFerF9AgiHHhdk1SGBnUtyoF0icgrGDGwOLaBKCBioWbDgvDr7xOt7cJFC0NhzO+DrGBY3436Jqy1VqvUD3RqoHohBIRAhSGw1VYlqwVX2I7VsRDIcQT02amcE8isPMTd4YcfbiH3bdu2XSqtqHnz5oFIBZzqgw8+2AbJzD4kAk42Di0VF3DGH3300YAjjJAj5ICLNTLjjhXGiE6MiAC0CXCYIS1w7O+5557gOgnWqIQ/OOrpbdE3OProo83ZJv0CIcWBAwdalALikZRXdYFDxsaDEqhEFqQbVRc43k033dTGR/QChIkTnHfeeaeRCERjbLzxxuGwww5LRUK0b9/eCAH6hKxIN7CjfycSSB0BSycG0GogOgHSA3yI5iDCgQdkAlEgkCMyIZAvCMyLvlBF2Jj4PTR27I9h3fU2DE1Xb267WK3Z6uF/Y8dEkdUvrdzyGi1aVsSu1WeWI1BpqQ18wc+PZAAEAZEGfMHPimkNvK9HOkMs28jymVGEkbKQVG+oHkkFSjOSBgGr7boHRB2QmkCqA9vVrl0YtRJmhgkTJ1tkAsQEZAQiimgj/DFpqqVBkBLhKRCcp+aRiGD/pE5APhDdgFEqCfIikzBB20B/hIAQEAJCQAhUAgLF5bZXwlCq3C7POOMMC78/8cQTLVqA+4akUT4aJ3r//fdPLSbEnrKQZ599ti279dZb7fmpp56y+xzuddyIOvA0B9cFgDQgWgBnGiKDiAjspZdesu192+KeIQQgNzx1k3sxrqF+/frZWLn/oS+cfCaAiBrAfEbf+4XY8DGxjLQBSJG3337b+iG6Alw+/PBDIzucCIEEgQChf4woC1IW3Lyd9w0J0LNnT1vduHHjZYgAylq6QXq4MCPLSBPBqCxBSgRRHh9//LEt0x8hkA8I1Ix+UEXY3HmI1S8ODeNnzo3U9NXid9r0GN09+rvvfHGZnz/++MMy96EOVh4ClUYkEALXvPnqMSKgoUUXTJoSqyREIgENgxrRgSfyoG4UWZwdHftJMc0Ap75hJAmIEsD5R98A7YI/Jk41kqDan04/0FFCktSIufMWmC5CMg0CsoH3dSLZwG88HwyMH8+Jf+6nXkyTIIViXkx7wGD8+cHiIRMCQmDlIKDw7JWDs/YiBIRA+SBAmkBJxkw/zn56muSXX34Z0AOAYCC0/7zzzrOZeBx6ohoI/0d4EI0FtAsI00f7BGOfbI/DjsAhRooF25TkJKONwIQO4ogY+ycCYuedd7Z9ME7SMHDk58e0UfqDtBg7dqwRC6QEJI37IzQIIB4gJog8YB886AuShXFyTJRsdOvcubNFCHBcDz/8sG3Hfl2DAeIFI2oCUgWCA0IDgyhwAUtSRDBSLMCG7dFdeO2114zUYB2RFPSHjkPNmjWNvGBsHJNMCAiB4hEoiJ+XWDsvfm4Kl2o0J070Tpk8KX42y084dptttl1qH3qT3QhUDHWVwTHz5U84XKOGDcK8mLJAFAAOPI6+s/hoIcyIkQjVVqlm0QC+nO5JfTBSoX5BjGSYYykORCKQJzEzpjpASCCWSMlHtBLQX4A0gCCgCgSaCogz1oofjvqRoGA5kQ2rxlQHUiKIWkCg8aXnnw3k2x177LGWy5jBoamJEBAC5YDAOeecYzed5V2XvByGpi6EQNYigPPIbLBs5SKQTD8obs9oAmDMrteqVcteE4lAeD1EATPzzzzzTNhss80snYBw/55x9t0dcxxj0iZwlokSwNBHYLIDAoLvSlIbSKFAmBANg223XfamHIe8Y8eO5uBbJ/FPnz59AuNDW4E0C5x9nG0MggGSgnQHHH7SDNAaQPiQMZLW4MQCVRS4vyNCokOHDqFNmzYmOkmKwamnnmq51SNGjAiDBw8O11xzjUUpILJI+sNll11m+2McEA/0xX0f0QoIVEJ2QGg8/fTT1o7oBQwxWdqQ1gA2HrWBcCMRH44B2JFSwrnCKNPJdhAgrVu3tmX6IwRyGQFm8zts2qncD6FJE9KrGi3TL5HiTeLnqeWarZZZpwVVA4FV4kx8ZrV4yhEPvrQRzuGHY+su28aZ/4VGCqBzgMOPo0/eHhUceNQqLLQySQwVggAhxWmRYCBygVQFiINZkRWDEEBHAUacSg8QDaQqUMaRCAbasD0kAv1jv0+YaKQEP1aN4jakNPD6/vvvN0GgFi1a2I80P1hJIqMc4VBXQkAIFIPAoYceairixazWYiEgBNIQwJHMdyIhG4+R2W4cVKIOijPuTb6LIcDuAHs7dAioHtCo0dI36rQvLqWSylekSmDMqFOdgEoQHu1An0QSOGHh+/JnZuwpw010A447D08j8DbJZ5x/Jyw4TsgOUhA8DQFygrSMr776yu7vKNXoWBD5gLbDW2+9ZeQF2+Lko4eQ3Cd9+L1Zct+kdNA3jj9EBuSEG8eN1pYbfYAlJEhyua9Pf+a+sqrf23k6lEj79Ksj995vG8k3iISTTzuzXAc/+rtR4cUXng8FNWuFZpGobNR41TB50sQwOlZy2Hjj9qHbfgcU+dldnkHc2bdPGPnZsDh5u2O4ptfVy7Op2lYiApVCJJDjhoMAM9ygUZMl2gbRibdUgujE4/Tz4zkj6iMsKQuJXkH1UFAYSzRGIgC1REQYGzWob9ED/AjMiFUXiFIgmmBJVMESQoAfJUL/fh0/0fpcfbUm1gc/smxHqN33Y3820cXnnn06huhMtjA7fpC5GUMtGJGjqv5DU4nXqHZdhRHge4LIBN3gVOGLQIeeMQI42JiIhIwhU0MhUOUR4HuDSBT9zub+pXDJpZeF3tf0Cnff/0jYvPOW5XZAMyI5N3zY0PDmG69FAfpvI5mwRtS5mxvWab1OOOuf54daCTJvRXd6/z3/DSNHDLNIqhXtQ9utfAQqJbUBBnynnXYytd1xUXEXIUQMZjj5mBeJAbQRcOJZznbzFyyKokBTLBoBkoB1/iBKoV6MZiASwZfxjB7DlKnTLFqhVmGBMfSEClJzmD4gFTbZZBNbfsopp1hNYkIMPTdv5Z8W7VEICAEQgEQgVFs3OLoehEBmCOQ7iQAK0k/J7FpQKyGQKQL6jc0Uqexux0w+OnLffPl5uRIJ9erXD1tsuZVFQf3++29W8YRJ1k023axcSISnH3sw9LnlJis5m90Ia3TpCFQKkYBAzplnnmm1iwlD8wdkgb9OPqcvpxwS4WwQADxoyzMhfP46uZw8O8LnvE/y9mhLv+QJZhL+lg6c3gsBIVDxCPjNTTaGMlf80WsPQiBzBKrSZ0TlLTO/LtRSCAiBqoUAuio8Om28Qbj4kkuNUNikYyeL8i4LEvhKbdu1D+tv2Db6YDG9PEaO16r1V1rRivTN5O/ob760KIoePXrYuFekH21TeQhUSmpD5R2u9iwEhEAuIkAOp0TkcvHMacwVjUBV/GxUJdKkoq8f9S8EpEWUv9cAhAJ2xRVX2Gx/h0godInadL9NmGTLV/afoYMH2S6HDP40jBg2xHTxIBCwHaNAqyz3EBCRkHvnTCMWAlUSAXeYOPiqEL5dJU+yDjpjBPg8UOYPe+KJJzLeLh8ayvHJh7OoY8gWBETMZcuZqNhxDBgwIPB47733bEdUpEOLbptY2WVOFLZv16FjuQzAyQI6gzDgPXoNiCkiAslzl7jPXrFSjciDcoG8UjsRkVCp8GvnQkAIrAgC3PikG2JRMiGQrwgQkYOhD0Bof1UWR+PzX5WPP1+vcR1X5SAgIqFycM+GvTq54GOBZKD63cJFC8NHH37oi0t93qLzVkW2gUBwYgESoXatmqHb3v8wPbsiN9DCnENARELOnTINWAgIgXQEmJ2VCYF8R8A1Q/L9OEs7Po9OUmRSaUhpvRAoGQEn5fVZKhmnXFpLaVdK16+77rrlPmwiGNymz5zlL4t9rl+3jgnrj4qVHv6x157FttOK3EWgUsQWcxcujVwICIFsREAO1so9Kx5WX9VC6lcuytpbcQjwefe0juLaaLkQEAKZISASITOccqXVW2+9FVq2bBlOOumkch8y4ohuyde+rKjn//04Jjz6yMMrTCT89ttv4ddffw0bbbSRCeUXtQ8tqzwEltRdrLz9a89CQAgIASGQYwgQZu+h9jk2dA03TxCgNKwikfLkZOowKgUBfX4qBfbl2ilkwF133RU+//xzqzyXycYLFiwIPEoz2gwfPry0ZmVe79X0iuvooosuCldHvYSxY8cW2YR0PvQcqBrRqlWrcOCBB5ouENX5ZJWPgIiEyj8HGoEQEAJCIOcQIEddN6I5d9ryZsBEJYjMypvTqQOpBAT4/CgaoRKAz3CXU6dONYf5/vvvD/vtt19Ye+21w1VXXRUmTSq54sL8+fNDnTp1St3LL7/8Yg56siHL+vfvn1xU5tfz5s0rcTz77LNPePfdd8M666wT9txzzzBw4MCl9tmtW7fw9ddfh06dOoU33ngjHHDAAaF37972DEkhq1wERCRULv7auxAQAkIgpxDwnFoE/+TI5dSpy7vBQmb59Zh3B6cDEgIViIA+NxUIbjl1fccdd4S2bf+fvfMAl6q63v62Y2+AqKjYO6AoScQWFVGR2AUb9t7yqcGGiorYiQW7Imo0UbFij73FgtgrKjbsvRuTzLd/K1nzP3eYO+XemTtnZt71PDNz5px9dnn3zDlnvXuV5ew++9Zbb4XbbrvNLAhWX3318P3337faCkTCHHPM0epxDrz44ovh3nvvDd99913Ycsstw9prr22WDy+99FLYYIMNKrpIQH/mnHPOVvvTL2ZwuO666+w4BPHAgQPDkUceGSAgXL766isb8worrBC222678Pjjj4f7778/TJw40Yvos0YINCyRgE/NXXfdFd58880aQatmhYAQEALpRYAHybZaFPgqFiaHba0jvcioZ/WCAA+dIhPqZbbUz7Qg4CSCX8fT0i/1oyUC3bt3D1glYPaPe8PPP/8c+vTpE95+++2AYo388MMPYcyYMeGWW27JujOwb6655spWhgvDF198kXWNQAnv2bNn2H333a3MGmusEU455RRT0DfccEOre+WVV7Zjr732Wrj11lutTa/Q3SZwt4DgSMrXX38dfvyxZRBGvif7kyzv29QJ2XDssceG9957L3z77bdGaDiZkMlkbHy4M1DfHXfcYSTI3HPP7VXos0YI1JxI4MfxySefWF7T999/vyIwYOrCD3zEiBHhhhtuqEidqkQICAEhIARaIoCfukQI1BIBkQm1RF9t1xsCIhHqZ8ZYye/UqVOYMmVK2HvvvQPXOtIzPhbTMhIrYPLkyaFv377h4YcfDoccckgYO3asDQ4rA7dIOP/88y3wIhYHG220kSnh1PPyyy9nrRoOOOCAAJngVgMsws4yyyxh8ODBFuDw7LPPDr179w577LGHkRnLLrtsuPnmm0OvXr3Cuuuua23iEvH73/8+cAwXBepwgdjwun1f7icEAf1G5plnHiNH5ptvvmxQ3ZlnntnIjBlnnDHMPvvsYdtttw377LOPtZdbl753LAI1JxI+++yzcMEFF4T11lvPmDZ8ZU477TQz5XEmqlxIfvrpJ2PJMN2BuZMIASEgBITAtAjwQFGO+EOon8P5cm9wNPRZKwT4HbK6yu/TX7Xqi9oVAmlDAKuxIUOG2AsLHlkipG2G8vcHCwQUZ6wRhg8fnl2xR+lnEXbo0KHh888/N4UefcnjBaC4E5jwnnvusVgCTz31VPjLX/4SyOaA9cL0008fcBHwOAqs/iOuyB988MEBywLcDXCvIGbCp59+GrD0vv766wN6GzEbqIt2p06davEKcIkguwKuCij6Xi/9cWIj/0iD9YljEBLIdNNNZ0QG7hcI5AFCvIjLLrss7LjjjuHCCy8MWEVKaotAzdM/Ys7ifwB+nJir8OPnB77iiivaDwl/GRguylIGsxa+82fIJ/x4MY355ZdfzOwnXxntEwJCQAgIgfIRyH0I9aCL5ZIS5besM4RAYQT8twmZgOJEHA+E3yii36jBoLcGRsBdzZzgRdHif4D1mH7/9TXxuAN88MEHYYYZZrAgi1gFEIwQRXqVVVYxq4Ibb7zR9CYyH7irAjoVehIEwIABA8zyAGsCghXiJkHwQiwHUNYRdCYsFFDMr7322tCtW7dArATEXRywinj++efNMgLCgfb2339/U+SxiOB3N27cuHDuueda7IUuXbqEo48+OpxzzjkBywpIkUKywAILhCWWWMLGghUGQRUhP0aPHm2nUR+y1lprhSWXXDLstttuoWvXrlber/NWQG8djkBNiQQUfYJlXH311fYHOOGEE8JMM80UXn/99XD77bebX85RRx1lP2zMdvjx8KOC8eKiuPHGG+cFDJ8iGDKkNbIh74naKQSEgBAQAmUjcNZZZ1l06bJP1AlCoAoIOKFA1UnFypWrKjSpKoVAKhBw0oxPEQepmJI2dwKdB6XehWwFZG7Yb7/9wvjx482CAJLBlW0WWwnCyEIrVghYBeBuAPGALoWOddJJJwWCNT799NNGJrBNfZAEWBggK620kpEXfMclArcEFPlRo0aZe8ROO+1ksQwoC7FBLDr2ERgSsgLXC2IXYJmA8HnNNdfYdr43LCCwPGCheM899wzEhoAAoR6sL6gbIgPBgh3CAbcOxpV0ochXt/ZVH4HponlMpvrN5G8BFwR+CAceeKD94NnG/AVfGRg1TFyuuuqqcNFFF5l1Aozac889Fy699NJAQBBcIPjB5cozzzxjP3JSiPCjPPPMM3OL6LsQEAJCoKkRYNU2qXAVAyO3fPI7q79/+9vfilWh40JACAgBISAEhECJCOCukLsgitqGNQHWA9x7WVQlhgALs8cff7wtzGIBwIo91gAIi7QuLMYuuOCC9pV4csSSGzRoUFhttdVsH4QEBAVtsE1dxVwTOBEXBndB4DtWEZyPhTkx8CA48gnWEPSpR48eFs8Bt4ykEI8BqwcWiekLsRPQ/TbddFPTDZNltd3xCNTUIoEfy7zzzmvBRPhjTJo0yX5smK4suuii9qOCVZ0wYYKRCpALWCYQR4HyBOTIJ1g68APmOAFJcoVjmPLw486NJIpfEMwXfwgYtYUWWsh+tG4ClFuXvgsBISAEmgGBQr6IWIix8qsVsGb4JWiMQkAICAEh0BEI5JIItOn6CMEQiUvw4IMPWnwE4hksvPDC1i3XbZIEgvfXSQS+k72BV1KIy+DCdikkAuWTJALfPQYD262RCBzDjZ1Xa7L55psHXpJ0IvB/v5Ya9Q+2CoGNIogG5i8o70sttZQp8++8846Z6sCWYR4DwwYbBUvHHwRCgXOfffZZ2+YPAQMH6cAfChMdF0x+MOfBbQLXh/nnn98ijvbv399IAxizm266yfyKIBsgOTif45jrEMVUIgSEgBBoNgQgCQr5IUIgyCqh2X4VGq8QEAJCQAjUEgH0GFweJEKgVgjUnEjAvQFTFZR+yAOYtnfffdcCjKC4E1l0hx12CFtuuaWZ4pCFAX+c5Zdf3s7BfYHUJAQGgbmDneMY9VIf2wjBQSAQSIWCy0Tnzp3NJ+iVV14x/x+sIDALoi5cKwhkglUCxMLEiRMDPjzrr79+reZJ7QoBISAEaoYAvuXluEHUrKNqWAgIgZoiAOmomCk1nQI1LgSEgBDoMARqSiRgVeD+O7Bq++67r7k5nH766WZxQARSgoBwDDcISAZiJFx55ZVhu+22M1MY8qZy4yIgR58+fcwqgRgJTjZgloPVAma5mP188sknYfvtt7dIpEQ7xe+GOglq8uijj5o/zy677BK23npry/pAXRAJRE6VCAEhIASEQH4E5N6QHxftFQLNhACko4JaNtOMa6xCQAg0MwI1JRJQ8HFBQCAJiAwKcYBrw6mnnhrGxVQiBBAhGKP72mAtgEUBVguQEA888IBZIZBmBMKBdCcezZS8p7hG4D5BKhEIAfyGcG/AsuHVV181ywTiKHhZUp1g/eApT3r16mX5Ut0nqZl/LBq7EBACzYcARG0pgntDqWVLqU9lhIAQqD8EWLQhthXXAsVMqb/5U4+FgBAQAuUgUFMigaigEAW4MBCTgECHpBjBGoCcoqeccorlIGX/n/70J4vSiWUCxAAWAnxSB767WBRAFEAiEEiRNCTETnjxxRfNRYGbGhYLffv2NTcIYioQb4HAjeuss07AxQH3B4/B4CASh4F9EiEgBIRAMyKAMlCqQlBquWbEUWMWAo2OAM9ZHksFqwRdDxp9xjU+ISAEmh2BmhIJgE+UT7IrYJ3ggRdR3sldShwDyARcGdgeNmyYuThgnUBmBuIgfPHFF+HOO+800oCb2FtvvRU222wzi41A4EZyo1Iv+UmJcXDQQQeFjz/+2M7DOmGZZZYx0gJiAesIXtQrEQJCQAgIASEgBISAECgNAY+lQmpYWSWUhplKCQEhIATqGYGaEwnkAiXtx2KLLWbZGBxMYhuw/6ijjjKSAcIAV4Zu3bpZkEXSkWBhQDDGhx56yGIgQDYMHTo07LTTTuYmgfsDqRwhESAsiJuAlQIsedJVgXohMiAwIB0I/igRAkJACAgBISAEhIAQKA8B3BsIzqpMLuXhptJCQAgIgXpDoOZEwoYbbmgxDlDkcVNICt/JujBmzBjbjSXC0ksvHU4++WTL0EBMBOIbvPzyy2ZJQJ5SyAd3Rdh5550tuGKnTp3skwwMWDhssskmVg8EArESPN4C8RBI9+jnJ/uibSEgBISAEBACQkAICIFpEcAiVCIEhIAQEALNhUDNiQTgJm1jawKZAGHgQkwFCAMEq4LevXtbPASICGItYFXgAulACkiyQ2DhAKHw4IMPhnPPPdfcKQjc+OWXX9p5AwcONEsGziE+g0QICAEhIASEgBAQAkKgOALu1pAsqUwuSTS0LQSEgBBoPARSQSSUC2vSLQGiAbeFfOIEBWV69uxpcRb69+8fJk+eHKZOnWqnENwRtwqsEXr06GGEQ766tE8ICAEhIASEgBAQAkKgNARwIyVegoIuloaXSgkBISAE6g2BuiQS2gIyFgmLLrqovQjk+P3335slBCknsXKQCAEhIASEgBAQAkJACJSHAGRBIcHtQWRCIYR0TAgIASFQnwi07lNQn+MpqdekkMQSAZcJkQglQaZCQkAICAEhIASEgBDIiwDBFV08BSTfyd5w1lln+SF9CgEhIASEQAMh0JREQgPNn4YiBISAEBACQkAICIFUIoAlQpJYSGUn1SkhIASEgBBoEwIiEtoEm04SAkJACAgBISAEhEBzI1DMrQF0sEpQVofm/p1o9EJACDQmAiISGnNeNSohIASEQEEEyPUuEQJCQAi0F4GkW0O+urBKkHtDPmS0TwgIASFQ3wiISKjv+VPvhYAQEAJCQAgIASGQagTk3pDq6VHnhIAQEAJtQkBEQptg00lCQAgIASEgBISAEGhuBIpZIzg6pZbz8voUAkJACAiB9CMgIiH9c6QeCgEhIASEgBAQAkJACAgBISAEhIAQSA0CIhJSMxXqiBAQAkJACAgBISAE6hsBxV+p7/lT74WAEBACpSIgIqFUpFROCAgBISAEhIAQEAJCQAgIASEgBISAEAgiEvQjEAJCQAgIASEgBISAEBACQkAICAEhIARKRkBEQslQqaAQEAJCQAgIASEgBISAEBACQkAICAEhICJBvwEhIASEgBAQAkJACAgBISAEhIAQEAJCoGQERCSUDJUKCgEhIASEgBAQAkJACAgBISAEhIAQEAIiEvQbEAJCQAgIASEgBISAEKgIAr/5zW8qUo8qEQJCQAgIgXQjICIh3fOj3gkBISAEhIAQEAJCQAgIASEgBISAEEgVAiISUjUd6owQEAJCQAgIASEgBISAEBACQkAICIF0IyAiId3zo94JASEgBISAEBACQkAICAEhIASEgBBIFQIiElI1HeqMEBACQqBjEJAfc8fgrFaEgBAQAkJACAgBIdCICIhIaMRZ1ZiEgBAQAkJACAgBISAEhIAQEAJCQAhUCQERCVUCVtUKASEgBISAEBACQqAZEXjiiSeacdgasxAQAkKgqRAQkdBU063BCgEhIASEgBAQAkJACAgBISAEhIAQaB8CIhLah5/OFgJCQAgIASEgBISAEBACQkAICAEh0FQIiEhoqunWYIWAEBACQkAICAEhIASEgBAQAkJACLQPAREf7cV3AABAAElEQVQJ7cNPZwsBISAEhIAQEAJCQAgIASEgBISAEGgqBEQkNNV0a7BCQAgIASEgBISAEKgeAr/73e+qV7lqFgJCQAgIgdQgICIhNVOhjggBISAEhIAQEAJCQAgIASEgBISAEEg/AiIS0j9H6qEQEAJCQAgIASEgBISAEBACQkAICIHUICAiITVToY4IASEgBISAEBACQkAICAEhIASEgBBIPwIiEtI/R+qhEBACQkAICAEhIASEgBAQAkJACAiB1CAgIiE1U6GOCAEhIASEgBAQAkJACAgBISAEhIAQSD8CIhLSP0fqoRAQAkJACAgBISAEhIAQEAJCQAgIgdQgICIhNVOhjggBISAEhIAQEAJCoP4R+Mc//lH/g9AIhIAQEAJCoCACIhIKwqODQkAICAEhIASEgBAQAkJACAgBISAEhEASAREJSTS0LQSEgBAQAkJACAgBISAEhIAQEAJCQAgUREBEQkF4dFAICAEhIASEgBAQAkJACAgBISAEhIAQSCIgIiGJhraFgBAQAk2CwJNPPtkkI9UwhYAQEAJCQAgIASEgBCqNgIiESiOq+oSAEBACQkAICAEh0KQI/Pa3v23SkWvYQkAICIHmQkBEQnPNt0YrBISAEBACQkAICAEhIASEgBAQAkKgXQiISGgXfDpZCAgBISAEhIAQEAJCQAgIASEgBIRAcyEgIqG55lujFQJCQAgIASEgBISAEBACQkAICAEh0C4ERCS0Cz6dLASEgBAQAkJACAgBISAEhIAQEAJCoLkQEJHQXPOt0QoBISAEhIAQEAJCQAgIASEgBISAEGgXAiIS2gWfThYCQkAICAEhIASEgBBIIqD0skk0tC0EhIAQaEwERCQ05rxqVEJACAgBISAEhIAQEAJCQAgIASEgBKqCgIiEqsCqSoWAEBACQkAICAEhIASEgBAQAkJACDQmAiISGnNeNSohIASEgBAQAkJACAgBISAEhIAQEAJVQUBEQlVgVaVCQAgIASEgBISAEBACQkAICAEhIAQaEwERCY05rxqVEBACQkAICAEhIASEgBAQAkJACAiBqiAgIqEqsKpSISAEhIAQEAJCQAg0JwK/+c1vmnPgGrUQEAJCoIkQEJHQRJOtoQoBIdB8CDzxxBOBVylSarlS6lIZISAEhIAQEAJCQAgIgcZFQERC486tRiYEhIAQCL/97W/DP/7xj2mQyF0xhETIV26aE7VDCAgBISAEhIAQEAJCoOkREJHQ9D8BASAEhECjI/C73/2uqFUCJML/+3//r9Gh0PiEgBAQAkJACAgBISAEKoCAiIQKgKgq0onA6NGjAy+JEBACIZx11lmCQQgIASHQIQhAXkqEgBAQAkKgsREQkdCA8/vpp5+GcePGhR9++KEBR1f6kMBhwoQJpZ+gkkKgQRHAvSHXlSE51D//+c/Jr9oWAkJACLQLAa45EiEgBISAEGhsBEQkNOD8Hn744eG4444Ljz32WKpHd+aZZ4Zrr722zX286667wjHHHNPq+f/5z3/C22+/HfiUlI/A5MmTw+677x6+//778k/WGalDoJh7g9waUjdl6pAQEAJCQAgIASEgBFKLgIiE1E5N2zr2008/hfvvv99OnmOOOdpWSQeddeedd4YxY8a0ubWnnnoqXHnlleGjjz7KW0enTp1s/9dff533uHYWRgAS5t57783+ngqX1tG0I8AKodwb0j5L6p8QEAJCQAgIASEgBOoDAREJ9TFPJffylltuyZade+65s9tp3fjiiy/a3bVvvvkmbx2zzTab7f/111/zHtfO0hBoDd/SzlaptCOAW4P8mdM+S+qfEBACQkAICAEhIATShcCM6eqOetMeBL777rtw2mmnZatIq0XCv/71r/Dll1+GX375xeI4HHbYYWHq1Km2Pfvss4eLL744zDnnnNlx5G5kMpmAlcFXX31lh04++eQw44wzho8//jhghTB8+PCwyiqrBCcS/v3vf+dWoe9FECC+xieffGKlrr76aov4//7774eZZpopbLnllmGHHXYoUoMOpxGBP/7xjzaXSf/lJ598Utka0jhZ6pMQEAJCQAgIASEgBFKMgIiEFE9OuV07/fTTAyv8KOMogm7an6wHJR7f959//jmsuOKKYeaZZ04etm3qeOutt8LCCy9sr2kKxB0olR988EHo1atXVmHPLYclAIpnUjhvwIABLQJBXn/99VZkpZVWCossskj45z//mTylxTbxDgYNGhReeuml7P4HH3zQthdddNHQo0eP7P5ZZ53VtsuJkfDyyy9b+z179gwzzDBDtq5CG9ddd12gbZSzd955J7z22ms2DvB1AYtnn302zDvvvGHppZf23e3+hIBZcMEFw/TTtzQugmhhLMsss0zo0qXLNO088cQTgXR/jz/+eMBFZODAgeH888+3ciNHjgyXXHJJ9pxXX3018OJ3xcq145otoI26QYDf6JAhQ8Lf/va3bJ8LBWHMFtKGEBACQkAICAEhIASEgBBIICAiIQFGPW+iTF9xxRVhvfXWC0sssUS49NJLw3TTTddiSBAIBx54oCmFHEABJdjhYostZuUgGS688MIAIeFy8MEHh0MOOcS/BsqccMIJ1pbvPPfcc8Mf/vAH/xo+//zzcNJJJ4Ubb7zR2th1113D0KFDTQFFwc3NJnHNNdeEVVddtSQFFeuCKVOmZNti48gjjwzbbrttmG+++VrsdyIg6dqA1UY+awcyPIANCjYy//zzBwiCpZZaqkWd+b6MGDEirL/++uG9994Lf/rTn7JFiFWx5JJLhmeeeSawEsxxBPJl/Pjx05A4lHvkkUeMpKHvG264Ydhggw3snNdff92U+6OPPtrICHaC5RprrGEpLrfaaisrx9tf//rXcOKJJ2ZxBn/6iDB/Bx10ULj99tvtO2/8Xjp37pz9/u6772a32dh0003DEUccYeRIiwP6UvcI4NagIIt1P40agBAQAkJACAgBISAEOhyBlsuYHd68GqwEAqxK77fffrZijGuDEwhJawBWlDfbbDMjEdZZZ52w1lprWZBCSAAEd4GjjjrKSARWnrfbbjur7+yzzw5JxRJSAcICqwICt6GEoqSioHo9+++/v5EIKOMEQhw1alTYcccdTbFdeeWVwz333BNeeOEFWwXnHFZES13lZkwEACQjBcoy0rt372lIBPa7RQbWF5AJZLLA6gGlG7cKl2+//TYMHjzYSAT6DgmCVUapgSBp57nnnjMSYfnllw9gevnllxtBg+UErgDUR3/32Wef8Pzzz4ebbrrJmw8ffvih4U05FDtIBggeMia4tQWBKbHcgGxweeWVV2zTP/nCSjNK/0ILLWTzA7FEX7AwQe67774siXDqqadaVosHHnjAyCErEN/ow9133x3uuOMO27XsssuKRHBwGuDT3RsaYCgaghAQAkJACAgBISAEhECNEBCRUCPgK9UsCvG+++5rSjqxBTBj9xV4VqxdWG3HEgClnkwH48aNMwW3X79+VgTlHuUVYgBz91NOOcVM3TF595V+lHeCOaKMoyxDAEAgcNxX/ydNmmQKOUQDJvOY+W+zzTZh4sSJ4ZxzzrG2UEwJBOkxHMoN5oeS3L1796xlQWvnOzkBkbDHHnvYmOkAfbnsssusL7yxTYaCXXbZxcgAt0LwcWcLtrKBZQfWBnzecMMNZp2BAk/cBsgLZPTo0RZXAHIFmWeeeeyTt912280wBzPK4XJAnAfE3TKcLPC+ceyiiy7iI0uYEDMCaxEE8gCLBsfAsca0HYsIhLJjx441Nxfb8b83yi633HI2R+xK/o6S5bRdnwjwG+A3pgwO9Tl/6rUQEAJCQAgIASEgBNKAwIxp6IT60HYEUFRZ4UaJRdHHrP22226zCtddd11TFFklx60BSwQPkoeSy8qzy8MPP2ybZ5xxRlbJ5XxeLk4EsMqO770LColbQeCXj3AebfBiJR4zf9wmcENwcYuJpHUAK+aY67sC7GXzfTp5kTwfLIhDQMwC2kYw5UfRx+pg5513DptssolZTGDFQbpMV6ggV3i5OFb+vbXPrl272iEsAbDmcMF6ANIC2XvvvX23kTW4QiC0j7VI3759Lcgk+958883s3HjASB8jJAoCTm6t4Ngz9+42suaaa1o53rAuWWCBBew7BA7WELfeemvAIoF4CBdccIG5r0D4zDLLLNnz8uGLhQkWFH369MmW00b9IUCARaQ9bg3tObf+EFOPGwEBXNe43ntcEP4Hvt0I49MYhEAuAv4b90/iHEEmS4SAEBAClUBAREIlUKxRHVgWoDwiKHgEy4NQYNXbTelRWN3tgNgCKK0QC7lCkEME5RSLg6RC6WV5CGM1G/cJrBZwCcBFIqlU4maBQEiwH+sDCANW9+kTfXEF39NTfv/993YONzpW51lNZ0W/mMw111xWhLgHCJYHxGrAQgOlnu8IJAKWFSjOKN30mVgEWDKgyCMo+sQjYKUW5Z3VfI8dYQUKvLl1wQorrNCiFAo3gosExAjWGhAcEBmOgQe7xPXg0UcfNSsO4ls4IeDz4GNl/ggoOSK6k/g8O+beHtYlkD0QEsxX//79W/QLgmCLLbawfuAugRUEsRfoJ9j778PbTFokYBbPfCVjLLSoXF/qAgHmUQpUXUyVOlkBBDy4LEpUMtBoBapWFUKgrhBgAYnnHERkcF1NnTorBFKJgIiEVE5L8U5h1o6bAoopSjCfKI0o53/5y19MMfQYASitG2+8ccDPfqONNrJyKMk//vijkQEo0O7igNUBpv48cKHEojSibJ933nlGMLDij9KLwp8UlHkUcHczQIlHGScuw4svvmiuA7hN+Oo552I5gHAcosGzBrgiawcLvLkCTzYEFGMsHhDiMCBklUAgV0gR6W2DAUQCSjlEBwKexHEguGRSGI8THsn9yW1fuf/ss89aWGr4+IgzAfYeOJFzIVTACDcCXCqwhHALCHDDyoF5dAsHiBWsCLAuQCAaUOYJYkk8A+rz9jjP40dY4fjmpAq/CeqgL9tvv72NGUsE3FqOOeYY6wMuKfxmvG3iWdAeDx88kNOmpL4RYEVKq1L1PYfqfXEE3AIB4kxKU3G8VKLxEfD/AYQCL//e+CPXCIWAEKgGAiISqoFqletEcYZEII0gSmO3bt1atPjll1/ad1akXSAIiKFw8803mysEhACC0k5mAZRvjrEaTvA9AhoirHpDMpDpgJSARPDHJQCle/HFF7cMClgnEGMAk1G3fiBQH4EFiamAoLhiyeBKN/vcVz+ZFQJrAhT/UoR+o+yyqu4pJFdbbTULBMn5HEdYcU+SAQRbZB9uGChTBI/E5QGCAYKEsbKij6sIVhSQDhA1rYm340SFl8O9ALcKsIfIIZgi8SuwTMDyg3HyoHvsscea1QCpI5kPLDmYB8SVeYiSTz75xOYQKxNu/rg50F+ybHjWCVwpsFSBRMFFBHIDYoDfDK4dzMHHH39s8REghyCMGC91I4wXUshJCepgft3agv4k3TTsJL0JASEgBFKGgJMIskBI2cSoO6lAgGcI/iMiE1IxHeqEEKhbBKaL0fozddv7Ju04SijKHTeCfLEEUAr33HPPQNo/FNBcYcp5TT/99LmHst9Js8jxXOWYVXyUcMznXXCFYBWdgIYjosk9aRM90wOkBibybsrv5/gndUGGQACQ374UlwY/l08IC6wNWMFnZZ3xujsAxzHLd8sFvru88cYbln4RNwEEiwGUd49pwD6UaJR/iIdCWEGe4JZADIpcvMAZlwFSYUK2IJAzxEQgK8Pqq69u+3LfwAVLBkgAj2+QW8a/Q0D4OLCgIOsEcTLcPQISZO211zYCaOGFFw4EZSTIIpYnXoa6sBiBJAJHF+abwI/MI9hizUBAz44WVwrcHN/9PTu6H2pPCHQUAv4b90/5NpeHPPcTkQjlYabSzYcA91asDWWZ0HxzrxELgUogICKhEig2YR2YyrOyjWLqQROBgWCK11xzTZZIqDdoIB5QrrEWKEQetGVcxLEAq86dOxc9/bDDDjMrC6wXIB7KFbI9EBuCtjxjQ746sFhgLimXj5TKd05H7vOHHClRHYm62kojAqwcuuih35HI/wlWumbkx0Z7hUAuAvq/5CKi70JACJSKQOtL0qXWoHJNiQC+9qyCJ0kEgPDV8+RKdz0BhPUC5EilSQQwgJwohUSgrFt05OLLsVKE/jM/hUgE6sG6gECbaSMRIBBYUURQmuTPb1DorYkR4H/gBEKSVGhiSAoOXdeMgvDooBDIIgDp5tmrsju1IQSEgBAoAQERCSWApCKlI4ASjuA6IGk7Ap9//rmd3FYioe0t1/5Md2PALFnKQO3nQz1IFwKQCTz4i0zIPy/CJT8u2isEWkNA99nWkNF+ISAEiiEgIqEYQjpeFgLES0Bwb5C0HwFcFJpNWBmRb3OzzbrGWw4CPPiLTGgdMbfcaL2EjggBIZBEgMwmkPgSISAEhEA5CIhIKActlS2KAFkHCNpHSkdJ2xEggwSSG7yx7TXWx5msJvJAIxECQqAwAr6K2KgP/20dF8EpJUJACJSPAEEXJUJACAiBchBQ+sdy0FLZkhAYN25c+OWXX0oqq0L5ERg2bJhl3phtttnyF2jgva4gNfAQNTQhUBEE3Le5ES14uA4k3RRKtTLwzC4VAViVCIEmQYD/m4iEJplsDVMIVBABEQkVBLPRqiIF5BlnnBEGDBgQevfuXfLwFltssZLLVrogqS8vueSSsNdee1lKyErX31H1YYkw33zzdVRzqWgnqTSkokPqhBBIOQKNTro5ecC1IXl98P0pnx51TwjUFQKy5qmr6VJnhUAqEJBrQyqmIZ2dmDx5cjj//PPDhRdemM4O5unVPffcY0TCXXfdleeodqUdASkIaZ8h9S9tCDSDbzPXBX+Bfy6xkLY5UX+EQD0iIGueepw19VkI1BYBWSTUFv9Ut/72229b/955551U9zPZOcgP5IMPPkjubqrtn376KRx66KFhn332CT179mzT2M8888zQvXv3MHjw4Dad35aTtBrSFtR0jhAIZpLc6NYJPs9JshFCgesGClByv5fVpxAQAkJACAgBIVA9BEQkVA/buq/55ZdftjHMMMMMdTOW5557zvo6/fTNa2zz448/httvvz3MO++8bSYS7rzzTotz0ZFEglZD6uZvpo6mCIFm9m128oDAjO760NYgjSmaUnVFCAgBISAEhEBdICAioS6mqTadnDJlijU8xxxz1KYDbWj1zTfftLOaMUhhLlxfffVV7q6yvn/xxRdllVdhISAEaoNA0prHFera9KR2rToGU6dOrV0n1LIQEAJCQAgIgSZCQERCE012uUN1RXSBBRYo99SalP/Xv/4VfvjhB2u7S5cuNelDrRslW8aHH35o3XjwwQfDYYcdFiCEfv3117DiiiuGk08+uWAXwfDLL780awSw5HwezNmeffbZw8UXXxzmnHPOgnXooBAQAh2LQNKax1fpO7YHtWsNCwSizYMBWSwUeb52c6GWhYAQEAJCoLkQaF777+aa5zaNFl97ZOmlly7p/H/+858Bk/gRI0aEDTbYIJC94Yorrsh7LortU089FTymQd5CZe6kTpcllljCN1v9vO6664KbwRIHggCN7s7hJ1Wjn9SNcv6f//zHm8l+FmvPTXi32WYbw3e//fbLnkugyWWWWSZsuummtg/l//rrrw8TJ04Ms846a5h77rmzZfNtvP/+++YKsfrqq4f33nvPinD+448/HsjgscgiiwTmOFfyjSO3jL63HwEykowcOTJ8+umn7a+sTmqADNtuu+3y/lfqZAjqZhUQ4Do4ZMgQe1E95AmvZokTUQVIVaUQEAJCQAgIgbIRkEVC2ZCl64Rvv/02PPbYY+GZZ56xleI111wz9OnTJ9tJlI77778/bLbZZrYqfeSRR9qKzdixY6dJ6Ug9zz77bMACoV+/fuHnn3+2etZbb71sfa1toOTwYOcBGlm9hoDI52JAX4k07spqr169wvjx48PMM89s1T///PPh448/trSTr732WjjiiCOsL+RKn2eeebJdQOmGuIAEWHbZZcPyyy9vx2g7iUH2hJwNCI/111/f+vGnP/0pexS8llxyScO0UD/9BMbzyCOPBBRx4klsuOGGRqRw/PXXX7csEkcffbTFLGDf119/HdZYY40wevTosNVWW7HLpBAuWAocdNBBFvvAy0OWdO7c2b9OE2CS42TdYB5mnLH4X51+uUWHV3rNNdeEVVdd1YgI3+efDz/8cLj88svt9zX//PPbauAmm2wSBg4c6EWa8hMC7oEHHjClppIpPD0jyaKLLhqGDh3aFNjym4TI+uyzz+y61BSD1iDzIgB5cNZZZ9kxrsvcDyRCQAgIASEgBIRA7RAorl3Urm9quQgCmHDuvvvuWeUPBfqiiy4KN9xwQ1apxm/08MMPt9VrzNJRkpETTzzRynkTw4cPD1dddZV/bfG5wgortPie7wt1O4kwYcKEVoP8vfTSS2HLLbc0M3n6wMo86SVvuummbIYAVsHpCxYL22+/fXBf/XHjxhkBQfsovKxUQjq4oMwikCmlKM6dOnUKBGe89dZbDS9W94kHgSVFKf3EhYDsCCg6Sbn22mvNEmPdddc1ooPxbLTRRlly4ZVXXrHifDqRUKy9++67L0sinHrqqQGLhNwgmDvvvHPAmmCppZYyIqVr167Z30Gyf61tr7zyygFltVu3bgHCiYCNmAvnwxJi5C9/+YtVtdJKK4WFFlrIlOfbbrvN5uy4444L4NuMAi5YDiBrrbVWAJ911lkn9O3bd5o5Kwcft96pRkYS/k8EKMVypZLS3uwfmUzGuvPRRx+JSKjkxNRJXZAH7qqA24LIg/RMHPdliP3c+1B6eqieCAEhIASEQLUREJFQbYSrVP+rr75qFgCQB7gPrL322uHRRx8NO+20UxgzZkw477zzrOWZZprJPo855hhzI0CxIfYB5u6scqMkokijuKOIs0pOtH/M/FnNRlAyigVchBz461//amX333//ADHByvx0001ndfgbCiZCO/379w+XXXaZfU9aGrjiuttuuxmJwOrrlVdeGSZNmmRleRs1apSRCChnKLWY3p922mlWvlTT7wUXXNAIAz4hX8DSpZR+0j/mYcCAAfbiQRflGyXSzf2dNEC5d4HsQZKKdrH2MNnFcgPi5IQTTgjfffedzXWyDh7oIAOQueaaK0vA2I4S37DsQHy+v/nmG/tdJE9nbE4iYMlxwAEH2OHvv/8+nHPOOUZmYV1y/PHHJ09rmu2k+weWKrwuuOACw5H/5xZbbBF69OhhePAfxHqBNJ3FYpFUMyMJ1i5YI0EEQQoh7OP3xe/ZrYXsQBlv7c3+4e0W+08//fTTZv1EHBBJYyDgFghYHzSrywIZeF544YXAdZht7t1c+7EW5J7HPaE1C7Byri3l/mKom2cJ7jdXX321PUdgPcTCBqT5nnvuWW6VKl8HCPCfrIQ4OViJupJ1eMDV5L5828mYMvmO59tXybqbLY5NPjy1r3EQEJFQp3N57rnnWs9Z7faHZ8zMEZQBlGoUY1/NZzUTE3cUGkgCguixD3cAlGgEQqF79+6BVUCIBxdcHlCWCwl9wIIAlwlWIffaay97yDnkkENsNRZCAdN9CAxk7733zlaHCT4uBi6YMSOs0rPyjuLMQxRKCX3jIQZFlvMgLyAePv/882y8AxQivifN/r3u5Ccr9giuE0kSoZR+Yr4OiQCRgTUGQsYIj5juLh0EP0RcOcOyAL9vxEmWUtojvgFWG8wRFgkod8wl+ILRLLPMYnX6GwSSt80+HjxxRYDcKUWcgErWQd9xyWDVGrwgniCNXCAfhg0bZnOD5UszEgm42fDf+8Mf/hBGjBhhcSmwILj33nvtgRvTbF5nn3122HzzzcONN94YIGP4LTO3hQJZVisjCf8pHuwgDLmuEJATheWWW26xqcW1CeWgreLXoLac7xYSyfgnufVgCbX11lvbbq5t7uKUW07f6wsByINms0DAFY5rJ4Qx8Xrc/a/QzEFEcv3IlXKuLbnnFvvOtYjrBYol5Dmuk5B53N95cW1r1oDHxbCr5+P5CAAWUMqVUs9pRALRnxHLxUzlhUBaERCRkNaZKdIvlFEUOR6aUaxZCeYBBAWPGzyKCzd3V8rZz6o+isoqq6xitb/44ot2PvENWJWHRGC1GUWIBxkeTnhI50GhGJFAhSiSrGLusMMOFhcARRdze1YusJDwbAJYTKAgYGGAvzd+9W6FQD3ER0C4iaDUoHCvttpqFkcBRc1XyzHj5zxWaFi1QrzPjJ+YDYXErSByXTdK6aevlL711ltmCQKJcumllxr2tOmKPZYBCKQDq9Aol8wbypWnKSulPerA4oDVbPCCQMKqA2sM8IRESipQWJW44sm5l1xySTjjjDMCc+59Yn9r4oEZsTJAYOOxwKAdFEt+Y9TDqpjPHQop7iccK+X30lrb9byfmCUI8TKYZ4R532OPPQw/yDBcaA4++GBzoWFFj3L8zyDH9t13Xzsn943/OLgilX5AZ7Xf67777ruz1j7eB8ZSrtDfSmT/cEKO31lrAiHo1jpcL7jOSYRAPSGQGx+HvnPP5prOvQPh+s09i5dfc7lfcw/NJ6VeW/KdW2wf9z0XiAyeNZIWg9zTKn2d8vb0WTsEtJJeO+zVshBIKwIiEtI6M0X6BaOLsozvNcLKBdusCGPqSJA8bu48zCPEI/BVcRQbBHZ52223NVcGHlZYGWUlH0IC5cYVG1YmsVAo9GAAGYGiCZHAqjer/Jg3svrKgz0KtMcDYDUWhYrMDi4oHqyaQxJ4n1EKfGXclWRWPVjtRbC8gBh56KGHsm4bsL2QDii0gwcPzq76ezvJT/fthGwh24ELSjhSrJ+77LKLtQNxgjBulBpw4yEQQelmpZl4DggKG8QM7hoobYy71PaoA8yIG7HjjjuaJQLxGJgb+gCZ4Q+YzB9kEMQLpvYQADxwlkIi0E/vE8QDAQPdzcXnAVcWVrxo9/e//71ZPxBfASsSlDqPEUBdzSROHvC7ZXURKw7+hwsvvLDFIIBUYx74vzI3EENY/OC2kPwN5mKWXJHPt/qIWTErmNRR6H+aWy/fPfYC2xBcBDhNmrBCEJUjEA8QSU5OcC7EF0K8iHzZP/gf0A+uAVg3OVHnFgmFiASuGTfffLO5ZlQyuKV1WG9CoAMQgEjkmsC1ASsvSHS/T0N0Q5pjeZYrkNFYER144IFmrcc9HXKhd+/eRkIUurZwTfH7a269xb5zbXPhus//E4s3F/pQT9La9RPLQxYIeHbh+QlrR54XmBMWXiRCQAgIgWZHQERCnf4Cjj32WFvRhgBAecFVACWeh2oeOHhwRyHHxYCHckwNXVA2WRX1VIcoqAQMJB0iwkMMFg74bLPiDdmAQlkoewMPEiiRtIcLBcokijpKCUI/CYJIH6l74403tqCLPMywkoGFBVYRKDCYxPNQlVSYUECwpEDRwW8bSwdiQ3CTR1DMUagZK2QKVhWsDvvKuhXKeSMzA+IuBn641H4yB8R5QCFEwSZThPfHiQQURUgW3B9w34DR54EE0uX000+3VH6ltoelBm4eWHdAJEGiUDcCLlhmOAFApgUIISeaKEN7pQrzh+A64cJqOXOEMHYICsgcVzqZLwgrHrp8/H5us3wSsBDhf0gQUcgWXFEgt1CS+Y8g4MtvB0FZzjX15H8B2cZvq1hGEtx7wN0V91133dWIO6u8hDefPwhISC7ID78WcHqSxPDq2IcJM3FZkOWWWy4MGjTItnko977YjvhWKPsHBAKKkK+88huDICPoqZN9yT7wcI8C5KQZbYB7MlMLxAS4OLkHwQjBx/+POBVJob6///3vRqyiIEDUebvJctoWAtVCANccSEBItOTvmvb4Lzmhlts+1gCQ9cRI4l7t/yFSAHOfyHdtYbHgpJNOsmsT/zWuF9w/W2sjt02+O2lAQGHu3Vwv/NrG8XzEXyUzTBWriz4gPH/ccccdhiELC/nI2kLXT0hRLEF4xoJE8Osi9zePf/TflvQuBISAEGhSBOJqk6ROEYisfyYql5n4kD3NCKLSMs2+3B2c7xJ9ojNRKcjEm6Pvyn5GQiJvG9kC/9uICkEmmmxn4qpKi1d8SMpEssBK0WYkEjLxASRbJhIEmUiEZOKKem6VLb7Hh5MW36OSlYkrLpnog95iP1/iqsE0+3J3gFt8EMskcfAybe1njA9h42JeismUKVOyRUppj3mIDzWZSFpksQNrsIwPONm62IgPWplIFmXANhIseee1xQl5vjAWzo+WJZmoXOYpkbHfBb+dGAws7/FydkZXjXKKp7JsJMBsbqIrQyY+wLaYJ5+rGGwzE0mYbP+jRU0mrqhnv0d3kkxUylucyzxwPnORlPgQbPsjSZWJpEUmWsnY9+jWkizW6jb/qRh4ys7xvvv/N1pS2P5IGrU4P66CZmjPy3nfYgyPbLn4AJ+JhEImkk9WLt81isJcb/z3HBX8TLRwsfIxG4rV9cYbb9j3SBrad37ntEub0bza9vHGfykqVNn/cszyYOW41kRCx7a9v+DrwrUjWk+0OB5XWK0fXBvqRRrhv1MprBsJC/43/G75H+UT/z/4/TQSBJloqZiJFg5WPPfawn0mLgxYnf6/pf5oYZZJ/i/yteX7/DrBtSYSyS3+O37N4NqXlLhQkf2f0x7/eV7J541ouWd1UdavY963cuuifCTvW/SN/zn/aa7NMeaSVVns+sl1hT44vpwbScdMtIxMdqlhthvpv5PWSRHGaZ0Z9autCGAOJxECFUWAhx8e0KOfZEECguOlKPwV7VwbKiunnyhAPHjEVZ82tPTfU0ppL/q1Z3ig8weiNjeWohMb4QYbTX5t/qPFiSELOeeKcnQdyvt/iIFPTZn3qTjqqKOsDgi4uAqWiSv/2Yd/HtRdIJa8bn4LKAKuuJdCZFEPiga/V4g8BPKJ77xol0/64RKtXrIP1dF9KBNX8420ohx9ySUMGDPHWvs/OCERrQWsCc6P8U6MFGFHXBG082N2l0x0NbJt6uMF6eASA8baPicVua5QxhUAlCYnORkXApnjJEqMp5KJrkCGRzQPt3OZh3qRRvjvVArrRsLCiQT/f+ZihGLs/wcn25Jlcq8t/p+GkKRu7h9+z4qZkJKntrodrf2sTdrj/++EBP//mKHGjkHquUAW0EeO01/IS7/ucL1xiRZYVs6vCfy/Yzwg2+fXlVLrikE67TzajVkljLCgbfBgH2RoKddPCHnHtzUyx/vfCJ+N9N9J63wI47TOjPrVVgT+a4fbpNYYGnZ1EMA0E59wzCZzzTSTLXK8WGaFZPlabZfTz3fffde62VbfU04upT384PE1L8cctVb4NVO7uHsgnu2iX79+liUlPkSbuT4uLZjlJoW4FXEF3cxv4wOzmeDjJoLJLb7OmPi7+4FnJOF8jrsLAe4xmOXjmoCrUrFUkpwfbxrZjCO4LyGkVY0PzpadA1cB+oELFGURMofgz41pNO5FuBl5ZH36QtC4pPj/wPHgGK4TuBNEwsziIuB+Q6wNhOsFbgi4BCF+PjE+yAaDSwjn0y/SakZlwMrhSoLEFUT79P30FSFFnQdkdZcusAL3qAhZDBFScGIi7v9h3KkkQqCWCLiLTSQJ83bDXdn4z/p/KFkweW1hv//2I8Fm/zXuH7hFYbqPK1YxIQ0l/0UEVyj+/5FQtO9R0Ta3Rr4kYygkM0zRLm5IXgeucX4Nwz0PwdXJM0xFy4TsPjZKqQu3CgIQI7gU4qrE9ZdrJNcM3BJwLyzl+pnMohOJRatTb0JACAgBIfB/CIhI+D8stCUE2o0A/qeIK0DtrlAV1BUCHszSlVE6z0M+sRIIEhpX4iz4ose24LgHRyTgIvEFkNYyknCMIKsIijhCsLO4ymFxT6LbhCn5dqDIG/E8eLBGiUCBRogpgoJNPAEEIoQHfY914kQBD+UIZVH8PSYGQQ+T4jFKXBHy7B8EhfP0qyj/7tudPJdtCAckWlwYwUa/llpqqWzgOTBDHEOCsSL+P2SbWCooEgSvo5+QMQhB0xDOJaYCL/y9iWmBJGMu2A69CYEORsDj9xAfJ5+4ogsJ5qRDspz/L/x/4pmC8Pt3ZZ97lQcp5T/QmkS3CIuZw/WAaxnXDYS2qZ84JxCYXO/4H3ldbFOW/yD7uFZ5hinO9+uZ/x/5j+bLMEXZUuqiDSclwId+k5kGIgDikODASKnXT/pOnxRc0WDTmxAQAkKgBQIiElrAoS9CoDII8PAiaT4E/MHdH2QdAdIYEmT08MMPtxX9Aw44wA9lrQcIlumKASt1rBSyMo+yT7YHD/TFCiAWAr4aiXJNgEvq3mijjUyhILAjr0JCAEQEK4mk5RBkiCsltItEs2D79FV6UpDSJkFbWZUkAwkP3NSZtLjwPhKsFeU+mf2DNgm6CklAv1FOUEZ23313IwogRVzxoXG+O1ETzZ+tP9SLuGUTK6ZIjNthnwSeZRXUJboyGJnD/5NsGvQZIoYgdwRfxcqCucMqKF9gNq9Hn0KgIxFglT7fPcWDu7ZGNLhlEtcWxP8fXBsIRErwY4K+Uj9WPk5c5Bsb/wtX+gnOmBT/n7OP+iAbyBqEEEiWc7E8QoknGxLbfj3z65BbEXHdy5dhqtS6SL1M8GkE66zFF1/ciFkCuCIe5Nb7XMr1k/E4qWmV6E0ItBEByHSJEGgkBEQkNNJsaiw1RwCFCCn0QFbzTqoDVUMAU2GUbVd0kw3xm0DxHj58eIsVc8+QgfLqGUl4cMVigAd8HtrHjh1rK+dkJGH1HmUdpXuNNdaw1Tsir19yySXmmkCGFjI9kFmjkKA0s3qI6W9r4tkkyALDSh9pRzFppn/R39oyr3AMNxtSviLJByUfG9k/WOFnRRETaMaKQK6QdhZTZhQPUqWirKD4oNh369bNVgPJtuB1cR7jox8vvPACX60+6sSlCgF/0s9Sd1IYM0oUrhZYREyYMMHGhGJDVho+EVc2kuc2w7a70DTDWOtljL4ijttTrkBcujVQ7jG++3/G/29uJUAmAywESO2M+w9phcePH58lEPPVBVlHWldeWEy1Jk7cuXUS1yHagjDkuoGSD6HIdRKij98cJAIZn/jP5ssw5cRsqXXFeCiB9NFkryALFemKHSe/ppV6/XTyNB+R0xoG2i8EhIAQaBoE2hpcQefVFoH4QJCJCkVtO6HWp0EgPmxk4kPPNPu1ozgCjRKEiGBi/A4KSe5xgnolpdSMJGRGIKBhfFDPBgWLbgcZAgV64MFkvW3ZJhJ8JBwsQJqfT6aOfFHeo4I+zdhLyf5BvWACdrnCGPPtJ4CjB07kHAK/JbNh5Nbj3/PV5cfITsJYiYZfT9Ke/w7BJWNqPHuxXe/SHizSOHYCrvJqTcheEsmA1g5bMFQ/6MEG/Tv3Kg9k6Pva+0l9nnWG4KwI/20CwOZrKxJ7RZtMXi/bWheBGwkMmZRSrp9c65LXmeT5jbbdaP+dNM4P11qJEGgkBGZsGsakwQaKuTOra/hey5c3PZPLqrP7m6anV+pJRyLg5saF2sy1WHGXBj+HAIu88omb8XOMGAQxino45ZRTbMWPYx54MN+5bdmHbzFuB1gIuMwzzzy+2eJz5plnbvGdL1gj8ComYJKLC+d4nIXc81mp5eWCNUcpUmh+PLaCr0KWUl89lnHLA2JVsELrATPrcSyN3mcCrhYSXBIKSfLaknRh4pxq3KtoA+uGmGEhey3if+1uFrl9xRWhmCSvC22ti/gIffv2bdFUKddPrnV6xmoBm74IASEgBLIIyLUhC0V9bXh0+Jgerb46rt4KASFQcQRQjnvEYIKVJhG8oyjWjZgh5KmnnjLXkGilYEN1v25cLRpRIBAIjhnT89nwcBnB9FvSHAi4Mo+LQTUFQrEYAVLN9hlfTBmbDeIKiYB7RGt9qvb1s5pjVd1CQAgIgVoiIIuEWqLfjrb9wdcJhXZU1a5T8eFmNZQAStVSYtrVQZ0sBISAEGgFAdLLoXRwHSPIY8xlb4p17sptK6fXxW7IAycOSIEJeSBpTgQ8hsgbb7xhaU8bFQXS1J5wwgkWF4EYLgRURUj1KhECQkAICIHKISCLhMph2aE1eUT2WivvBGoiOBrpnPIJxx9++OF8h7RPCAgBIVBTBCAPENLNEWiRVUsivde7QB4MGTLEXowF1wVesj6o95ltX//dZcczJbSvtvSeTTpbAkxCEpJhBiINFxC5KKR3ztQzISAE6hMBWSTU57xlUxF5OrRaD8PTSuX2Y+utt7aH89NPPz1su+22uYf1XQgIASFQMwQOPfRQy9Zw5JFHmhk0ZEIMFFez/lSqYWIf8EJIeenblaq/FvUQy0FESPuQJ3sCCrWnTW1fbek9m2w0pKwlOwSZYRCyODSSpVF60VfPhIAQaCYERCTU6Wx7GqdkIKWOHgps/yeffGLNXn311ZbGiZgNM800k6Vb2mGHHSxPPHmaScNGCibdyDt6ltSeEBAChRDA3Pm2224zxYN0mjPMMEOh4nVxDPcFXsRDcJEi7kg09+e4ceMs/Wmjo0BMF4jCzTbbzNLJyq2h0Wdc4xMCQqAWCIhIqAXqFWgTJR5pzSIhpkgKhaKTcy5mvDF1lOVed99J9pciI0eOtLz1Xpbc9rzI1cwDqwdmi6njAn7IMVVcXhKBWA+N8ODuOFTzE5ImpvSz3OCzzTZbtqmpU6eGmK4ukBc7ppSx1Ufmn8BSrUXXz56sDSEgBOza1L9//4ZDIhkPwYMsYqGQ3N9og37yyScbbUgVHU9r2WAq2kiKKltqqaVS1Jt0d0X/nerPD9dfiRCoFgLoVMR8Wm655arVxDT1ikiYBpL62IFijiSJhClTppgZ30MPPWQkAWa6Mad82HXXXc1KwEeGNcOFF14YcDdwOfjgg6dJ0fbhhx8G6oJsIE3U5ptvHhZaaCE75d133/VT7XPTTTcNRxxxRFhkkUVa7OdLbgT0mFs6nHfeeeHuu+8OxFBgpYCL6x577BG6dOmSPZ/AZ927dw8rr7xyuOOOO8w0kbIEdkymg8qeUGCDMUOsOLkS83KbQu7f/dRCY6YMUd1jPuwwYMCA8Nprr9mYiVeB/3Gu0l6sLupD8X/sscfC3//+9zDvvPPaXOWmu6PvBI664oorOMXk3HPPtZR8fMGEEx9Q/EKPPvrobKRq5gScJUJACAgBJw88c4Mj4vv9e71/6kG93mdQ/a8VAvrv1Ap5tVuPCKC0n3HGGaYPtJYRpqPH9cgjj4Sdd9453HjjjR0WE0ZEQkfPcoXacyLBV/5vuOGGLBFAkKGBAweGSZMmGRGAEn7BBRdY8CEUV/LCX3vttWY9QH74W2+91ZTzrbbaKpu7/pJLLglYHbhgaXD77bfbeQR4ZHWL1XH+SAQzWnbZZfOSCD/99JORG/vss4/lg8c3kx851hDIxhtvHFhph9gguvLFF18cVlttNTs2atQoIy6GDRsW9t13X9v33nvvWQAxTJALCcr36NGjzRrizTfftABq22yzjf3pUbrp/4477hiwmHApNmbK0cerrroqkDZu++23z44Dc1EioruUUhfYHH744eGWW27x08xygznFBQRyBznkkEOsDOQFeOHzOWLECMOdcp6H+7DDDjNiZu+99zZiplh+8Wyj2hACQqBpECDOgMca4DrIy6XRSAUflz6FgBAojAAEo0QICIHSEWDlnzgsLOKiw6RBPJMfelVHBZdV1oY0zHwb+uCuDeRrRljdRzbYYIPw4IMP2o/70UcftZVqVt9ReiERSIMEiYCS+fjjj1vqRv4IEA9YHSCsrkMisPpPeawPdtttt/DSSy9llV7IBExnfPX866+/tnNz3z777DPrC6vmCDcrSATIDrb580FQ3HzzzYGxQGawko+gJEM87LnnnvYdiwXEc73bl1befvzxR1uNZ6X/zDPPtFLgcdddd2UfnEkRhQsAUsqYKecxHsCDcQwdOpTdRtrYRnwrtS4CvEEigAXkBBhgRUC8ifHjx1t1WCtQhmjbWCGwYgBJwly5S4hbcWDdceKJJxpRtP7664fFF1/cu6RPISAEhMA0CEAc+IuDjaBMyDx7mmnWDiEgBBocARb1eF487rjj7JmZ5/t6FRbZ9ttvv/DCCy+kegg8cyPvvPOOfZbzhi5yzDHHlHNKSWX5HSBOKJR0UjsLiUhoJ4C1Oh1FGXETfwIcIiiSnTp1sm2U3i222MLMbvjBExjRUzFijuOm+Ouuu64p+wRudDN6oh6j3GJpwJ967NixVifWC0lxZfaXX37J7v7oo4/CM888Y989PSXuEYhbUKBEo0C7QFq41YGfS38hTFDY6e/w4cPD/PPPX1bEaUiEiRMnWjP0i9V6rCs23HBDq5t+lTNmiBEEUgULB1wOyExBGxA1pdYFWwiRQV8gHnBLAANcVRgv24hHnKa9ZZZZxuJPYJWx//77Z+celwiEOSPAZb2KFIB6nTn1u9YIVOK/A6Hglgq1Hk972scyrBEIkfZgoHOFQLkIkNlFFknlolb78iz04e7br18/WzDEOpYFQBTVehX0G7eALncMPIOzgOiB4Ms9v5zyL7/8shV3Paicc7FqJu00ekl75Omnnw7eD+rB1Rpx3cu+VPlNREKVAa529U4oOPvkPyJvF6UcawWU9s6dO2fdD7BaSCr/Xh4lFeW9b9++AWIBpfaAAw6wfSi9PKC5xQDneIyGpEUCD3LHHnusVelkhbOj3s/ctlHQL730UjsHSweOu9UF7aO0Q5oQ86Gch0T6T8orXi74DpFBAiFQYTljJj4CwgM36aToE64Y9BVWstS66BcCfsRpgIQgWCXZLRD3VWSsvXr1sjmEaeZGT/8hiFw8c0fPnj2zVgp+rJ4+fcz11Gf1VQikAQH9d/5vFrg2474mEQJCQAg0KgIojzwPsgiFGy8KKYtauDLz3OjP4PU8/q+++qrs7vN8jPXykCFDLFtL2RWUcQIuDUh7lPZvvvmmjBZbFmWBmDnHvRz9AWHhF3HdzL5U+U0xEqoMcLWqR6lHPv30U1P4iTgOC0n8AX5YWCjg0sA+ymIuj4UCrCXCSvdll11mK9z42BNzgR8gFyTKY1qP/w/xBVCS8dPHGoBgfhw76KCDrB7vByZIlIPV5iLmJv8oyZAYX375pZXH+uH44483hRlrAMgN/gzXXHONHcfNguCMziayyu6xAihA4EVM/fkDl2q6j8KPEo7A3EJUeL9xneDBs9Qx+zio061AnKSAGSTmRKl1QdbASq611lrWt+QbOCG4NODKAVa4UySFoJVkb/CAkU5yJMtoWwgIgcZGoBxitbGRaDk6cGkEC4uWo9I3IVB5BJJxUipfu2qsNALE6iImFsJzOc/9KM4LLLBApZvq8PpYRPTFShY8GSfP+7/++mtYccUVbQGvUKfQEcAEvYLU827pXOicth5zoqMc3Fk0ZOHVz0WXQDfj+R1rciyv3SK5WL+6du1qC43oCNSDhQMWGYgvMBaroxLHRSRUAsUa1EGKRVL+obgvueSSRh6wGo4LAmQAgkKLn9FOO+2UzbbAnwxffFb/iVtw7733Wln+eJAMKPYo85zHjxOlnvMhBrB+wGwKxtOJBE4m8CEWByussILVRbu4ELhgReAr8MRmGDNmTDjttNNaBCdhhZ00kR75lD8mjCqKtMeBoD4UdW56SQsIbyf5iYLNmIg5wJ8SVwBIFzJPIGSXwCrB/7yljhkSBJyTgQzpI20wRi4EpdbFn56sCjCJXDzJiEH8CsgTT8dJ0EbGwHwQHBLyhIsqeHOhZOUNNw0wr3ephHl2vWOg/gsBIdB+BLCK494oIqH9WKqG5kBAbg31M8+uLNLjbbfd1p633aW5LaPADQLL5VNOOSUbvNvrITsZz85YPrig1LNQiVttblY2yrAAiX4Bmct1mGdx2ij2nMrCp8dEox4WJyFNEK7lHpONRU90GGKq8dxMX7BqRgdhYY9YEc8995y5A9vJiTf67ouAid1t2vTV/3wY5MOImGyDBg0y12hvELIE4bm/R48etl3qG5YQ6HOM32PcgRmStEhAN7nvvvsCz9jMC5brLC6XSlgU7U9kRyR1iEC8kGRimo9M/PO06H38oWaikp2JK+eZGHSjxbF8X6iHc3Il/gky0VQqd7d9j0pvi/2vvPJKJirlmbiKnokr/pl40WlxnDaixUOLfXxh3+eff56hrXKklHFRH/XmG5u3xTH65lLOmP0c/8ztU1vqiiZOmXgxyUTrD6/WPsE3mmrZMY7ziqZMmUgiZHGNFguZSCy0OK/evsQbToaXRAgIgdIRiMRx6YWbqCTXEmHTRBOuobYJAf1H2gRbm0+qBN48X8Z069lnwqgQZuKiVIZnyNYkuvFmouVvJsZRs7J8d9lss82srqhk+i77pJ24EGjH2EZiPLDsPp5Fo2KcSeoEMU15tl8c5/xoJZ2JSredX+gtWkm3OBedgudfb9vPff31161cVIYz0WIhe04kEbzINJ/oSpFgtrLRFTATA71n4uLoNOUK7YgB2zMx6HkmLuJmwC9mUrP6YgyzFqe1hlF07c7QR3+O5zNm1MtERb/F+ckvzGlcvLV545mfugtJXKS1+tGtEO6DyTb5rdBvcK2U4JstEQJCIAUIQAZwYeFCnE+4EE+ZMiXDxahRZfDgwY06NI1LCFQFgUo8mFalYymoVGRCCiZBXUglAvpv1GZauF6DfSWExaMY8DurmKIwRovYaRYRY1r1bBmeMSnHYlR0j7VuxJTwdpxySYluzLb/0EMPtd3RFdi+cz7PqTFFu32PAcPtuC+G0UaM91W2os7CXnSTtvNoI1pbJLuT3eY5mDYgGvhkoS0GWMxE92Ir89BDD2XiSn22PIuG1EVZFGk+ebEAmm+RM3tiYiO6dWfP8/P9M7lgWQwjCIgYbN3w4/xCv4VoedyCBAATXkkSACwgGLwP0ZLb+hktE6z3MYObfYc8iC7jiRFVblPBFovabKiAEKgOArhIkP7S4y6QmQHB/SSfYLqG6VOlzLLytZGGffL5TsMsqA/1gIB8mwvPEuawuAGCk7AqjJWONgcC3F/xp8ctUu4M9T3nuLqSQpBnR8/YhnvCgQceWFZq83322ceAiCv9WUAw2z/99NPNHYEsa8hx/4s1FskQyxCGywLiQdXxy99uu+1sH266kWgwlwPbUcIb2Q94/iW7G6b57hKde6q3i3svqetxAd5ggw0s8DllJ0yY0CKWwqRJk8zNIirTFpcMdw0CuJNtzTOj5baR/E62OrLY0W4kUALfcTd2cXcCvhfDCFeM7t27Z2MYRPLFq2nxicsz/1OENiNhYPoCbeEe7sLYmA+PK+F9cZfwvfbay4pSH7HukhkevI72fipGQnsR1PlCoI0InHrqqeG2226zmBMXXXSRxbygqsg4trHG+j9Nvs31P4caQcciIGWgMN6QCR4rIR+ZANEgEQKNikBc8bSh4R9Ndhd+76ScltQvAsQrIw6YCwo8ccw22mgjixvAc+Xhhx9u8QNIUR5Xvk0RphwEQTKdOynDiRnGc+f9999vwfoI/jdy5EjLBEHMLxRoMsCheCPJGGjEC4ur3rafLGYQGQR89+B/xAJD6d59990tBpsVLOGNBTNih7ng10/6emKCJQMJRmsKL5L9hIQgiwVKNXEZXHkmiDlj4wXxwnhZzHOiJFtBzsYNN9xgeyAQIAHiWr4ROF6MmAyQFKVg5Od4ysjkGIlLR9wJ5iu6UFhRYkQQZBK5/PLL7ZP5Jc4cY/OMERANxFbzTH7MBUIMDf7zBJqnrugSb7HmiBtH4PlKiCwSKoGi6hACbUCAQDEIFw8edPmDw+a2J2hOG7qRqlOSK4ip6pg6IwRShgBKsUiE8iYFvJIvkQjl4afS9YcAv3F+85AHfDqpOGp61wAAQABJREFUVn8jUY9BgOB8KP0xRoIF6kapdUE5RdFFUKRLTUdO+Y033tgsACAZyOhGxgOUY1b8EV/xZjWc4yiiLIaRRQ3FPCmkREf5ZiWd9OWQEX369DFLgWS5Qtso1EmLBKwOCMT47bff2mmQGyjSPt5kXV26dLGvBFxEojuBfZ5xxhnBrS4gKjxAYXSpsOOtvZFFjuxztBVdCGzcPLd70PXbb7/dTi0HIw+GSPY1BKKEYPKewY55ZozMNf3D6gDiwwNWeqB8HytZ45LihAL7IIoYO8EsCd4OIcLcQhYlfz/J88vZbjn75ZypskJACLQLgfXWW8+iqI4YMSLceeeddtGIvmjtqrMRTvYHHSlKjTCbGkOlEfBI2CgFkvYh4Nea9tWis4WAEBACHYOAK69//etfAy8USxROVt9d8WbVnvTirHZzvJR07mQFQ1k96aSTbCDUiVWBC4o9wso2z6u4Erig6KIIszqORUKM42VWC1gArLPOOpYpAMuBAw44wDIrkGmumNA+yvo777xj9bEaz0q9K+Ccz5ixsMAVIimejtGVdHcfoI9gE4NLBlK/4xoBnr56n6wjuc3YcQ2IcR9CDGJoCj398/SSkCm4mJSKEXW7OwgZF8hah2UE4q7NEICQBeCHQAqxPWzYMCN3IBwYB5n2EB+jEw1k2sByA/IANxOeF8gwR6Y4XF9wwYCcWWaZZcxqwSpp45uIhDYCp9OEQCUQ6Natm11AUA5gO51drETd9VyHP+C7KbKUpnqeTfW9EghwjcCvGZFpciUQVR1CQAgIgfpCAGWaFOysWMegeyEGJzQlkxSEWAKgbMag1aYcl5OOHMU4BlsM+NSzTXpAPl1I407ad2IKYL1A+vSYTSHgo09fWLHnHoViT5p4rBYgG3imxYrALQlQ3kshElZddVVT2F2Rph/EbHBBKY5BFbOxIHw/n1hBIPQJcYsDcCMeBIo/Qv9wEXA3A9uZ5w1LYVKux2wNdpTnU3CAsIhBGE0Rh5hgcbAUjKgEDFD6cTfwFJfMH5YCSAyaaJYUEBjMA+4k1A1ZQ3wHziG+GmPk5SnjISDoJy5NtBEzyhkhASkBuURcDebt3XfftXbeeOMN+2zP23TEbWxPBTpXCAgBIVBtBJxQSLYjs+QkGrXd5oGGVQ9ufpLKIJDPt9kJtsq0oFqEgBAQAkKgIxHgWYZnl468lqNIs5LOwlWuYD3ggfk49tVXX4VZZpmlRQwGPwd1EdeGG2+80Vbz2Y+Si4JKDITVV1/dlFSOU45VdBfK4a9PwL9ke3489xNrAtw3uA9ijo8yn4wfFtPch5jpzFwmcs/lO+d7LAUsCVCuXXlGAceyIdclI189vo/2iLWAO0SyHxwHM9qivlIw8johNrD66Nq1q5EDWCaAvQt1YVkAdrl9xdrEy2JpARmCuwbEAZgR/8CtFYgtQcyFp556yqu2T3Dlmc0tOFocLOOLiIQywGr2opgR3XTTTeGDDz4wUyIYSvyeKi1uroW/UCMJvlXTT9/xYUm4sOAfBdPZu3fvhoAU5luSHgRgxyESMKGTVA6BjnzYrFyvVZMQEAJCQAjkQ6AWREK+frR3HzEYUFxdWc1XH8o87hYo30mXhHxlq7mPYIq4AjiRUM22knWXglGyfLW3IR8+/vhjs2rADaNS+ohcG6o9cw1SP2ZJ+Bbxx3DBnyrmag0xL6vvqsgn0VSRQYMGFfVdqkiDHVAJzOPw4cPNt6y97F+53Z08ebIFu/H0MeWen8byUrDSNSsw4G4horlJ19yoN0JACAgBIZAOBPw+mY7etL0X7jZQqAZW6d0qoFC5ah/zZ27P4lDt9rz+UjDysh3xiQXDYostVvGmOn55tOJDaN4K8UUirQo+UtUW/IEgEfAvYuURH12IhUoLZjz82Xm5T1Wl26hFfeSthZnFBKmjBZ805J0YtEYiBCqNgLudkFrMzfEr3YbqEwJCQAgIASEgBIRAuQh4/IBKxAMot+1mKC8ioY5nmfQepB2ptjkx/lVE98RPh9y0+EHBqrIPawQUVXxwKiEo3C7FIql6uXr4xL8KAcOOFs+hWyygDP1irv/+978H0t1IhECpCHgwTHKVy+2kVNRUTggIASEgBISAEKgmAgRmRDy1YjXbasa6RSQ0wKwT6KOa4ivaxCzI51Oz9dZbh5122ikb0bQ9fUn6MM0222ztqSpV53paHiKudrTg0oCU0jZBcvbYY48wZMgQC1bT0X1Ve/WNwB//+Mf6HoB6LwSEgBAQAkJACDQMAgRHJM0jmRUklUdARELlMe2QGgma8eGHH1pbpF457LDDwlZbbRVQ9gksUkkhOAeC6XI+IRUMQmRUT7OSr1wp+3zlnrQouVFKSzk/rWVw2SBtTy3EiSb3EyvUB3LYYjUBeUSOXIkQKISAuzV4GeIjyL3B0dCnEBACQkAICAEhUGsESEmJi7ak8giISKg8plWv8Z577gnLLLOMpUShMeIJEDV94sSJlk1h7rnnztsHoveXK0RdxYUCIetAPjnppJMsTymBF9ur/JOKBkGhrbSQO5X0JwQfbKuQQsZNt4k5cNddd1lKmGL1QcbkS72Tex51OgbJY8xxW4VYGgh5hpGpU6cGFEBIHzDBLQUyChIH5vaxxx6zGBik6mH+IYjIQZsrnE8+Xre28OPvv/++KZP+u/H94OZuOJAbuFAwHz5ePu+8884wYsQIy+9LUJgrrrjCT9dnGxHIVfbbWE2rp7lbgxfA7cn/I75Pn0JACKQLAdyQeLBuL/mfrlF1TG9IH7fWWmtlF3Oq1armqFrIqt5mQ4DnSfQmSeURUNaGymNa9RpJv5gUTHbOP/98UxRzFXnIg6uvvtoUPogGyrJqSE7Wnj17JqvJu73bbrtlc4+SeQBLAZTN3NVtV1KphAcTUjgSjJH8qCgyrG6jcOACkRSCnzz00EOWRgaLBywtkE022SRZrNVtFM/u3bsb8eA5WYnbcPbZZ7fI+PDMM88EzK49r22vXr0saGRuPlusPOgP+WlJWbP55puHhRZaKNs+Su76669v9aBgu9x///1hySWX9K/TfKJs5+aezS0EKbH33ntbXldy8roMGzbMFHDmeODAgb671U+IgGeffdbmqF+/ftkAj+utt56d88ADD4SzzjorrL322uHoo48Or776qu0np+x5551nZJRHFn700UfNZeX111835T7ZKCQCOYHJ9bvvvvvavJ9wwgktlH9y13oaz6uuuirQ9oorrmj5hJ0cgYjq37+/uVO4Gw2/M35TjeTeksSu0bf5fRGQVSIEhEA6EYCkJcYS195i96Z0jqB2vYKc51mC+2zy+aDSPdIcVRpR1ScEhEClERCRUGlEO6C+nXfe2QIeLrXUUqFPnz6mrOd7EGCFGYUUAgFZZ511zKqAgCO8UOB23HHHgj3mIYNVY+S2226zF9soesRGOPjgg03ZY2WDjA5YQ3z++eeW6pD2UdRR6hHSH2655ZZ2Lt+xYOD8pHgwwtVWWy25u9XtUaNG2Y0cZRtlFuEGj4//GmusYd9feumlbLuklmRF/sILLww33XRTGDx4sJXhjeCRI0eOzH5njB7M0uMLdOrUKTz33HPh1ltvtYcvsmZwrFBKFVbaUZrpF6QK7UPwYHWBwu5z50ERk+nzsGTwVXzHJtvBPBtgjMKeT1ZYYQXbTQoYBHcYFHfIC0gcSCYECwUsBjbbbLPsuJ5//nnrswdshCxCWUQGDBhgn5AKkAt8x92F3wTEC6QQBBfYgYPPE6QDVhqMl7JOIkyYMKEkkssa1VvNEOC3nGuNQGeSv9+adU4NC4EyEYBExiIMYrpWbmhldrldxZ1AZtx+D2pXhXV0MqQ9hLunmi6365lMxk5x99Jyzy+1fDPPUakYqZwQEAK1RUCuDbXFv02to8yhhM4666xhrrnmmsa03CslcKGTCKwOXnnllWYZ8Pjjj5tZHqvRrOgXkr322svM9ylD5NNjjz02QGTwoAWxwI3us88+M4sIVpsRt4ogcB+KPgrwFltsYcc8KwN9cxKBMlgTXHDBBdmxuF+/nVTgjbYIoLLnnntaKQIFIii+Lscdd5xtjh49Ouywww7ZzAnzzDOPF7HVU0gErBlwHaF/WGNAQqAcu5AXFkKAzxtuuMFW21np9zF7ueSnr7yDFco3biiQEccff3zYaKONAqv+CG0iSesOyB4EM8piChrkBiQCeLOSwXeIDhfvR5cuXWwXijsPUkcddZRZWSy++OK2H0X+5JNPtu1FFlkkS7YkLWFw8QCHQw891AgIHsrAid8IVggQE5ANWHU4+eDtch4Y8DuCdIB8ShJM+++/f7j77ruDP6x5//WZLgQwu21NsP6Re0Nr6Gh/WhDgmsi9A5IVUhdLPa61WH6x2lxvwjW9lAxK33//fZa4rUR2JK719ZTth8URnodIad0WmWmmmew0jx/VljqKnVPpOSrWno4LASEgBNqCgIiEtqCWonO4obk7AN36+eefTRFmmxVgZPvtt7eHJPsS38ip6gEZUQCLia/OsGqBhQMryTD6kyZNCmuuuWY2GwDuAAj+g4ivMONa4dHcfdUdRRHBWgHlHnN3lHYXXAVKEdIU8jCI68AZZ5xhVg8o0h6dFZcGJ1NYeWfVHeWcT1wUEB6CGBPjRBFfdtllA6aLY8eOteMo5C64aiCY82OxUIp4jALIB+qHUHD3As6/7LLLrBpX9D0zBiSPtw3pU0wgNhDOWXfddW1VPzm/vj3vvPNaOcYL9rkCOcUDlvfHLQ5ccWRe+f3we3DrAiwKEOYQPzQeyiEMIAX8QdUtKnhYZ76Twnce7iAmOA8CC4sIYjeIUEgilY5tSILWgq/SQ0gvt1hJR4/VCyHQEgEs5ogDA3HMtY7rE/c3iGGuY7i11Vu6sFIzKCVJ4Uq4j9Vrtp9vvvmm5Y+ixG8s4iDEGKqWVHqOqtVP1SsEhEBzIyAioc7nH6UwGewO83xWWL799tvsTQ5yISl8xxceKSVOghMSrbHvvrKPpQOCa4MLK+MonD169DDF21d5yGKA4KePQCzQJ5RzXrg9oOAXEggUV3YPOOCAsM0225jSCrnhq6FuejhmzBhT2FFsTz31VFs9dysCFFfq6du3b5hzzjkNT+pjH32hLq/Hx+puAoX658dQzBFcIHC38Ac3XFMQghMi7msJicKDLK4iCLELSjE9hVSBrMA0l8CYjBPLDHdZwE0DYYwIc+/WArbjf29uOYDVBOKWEFgaQNB4/IbTTz/dYltQBoyIO8E8YgGCyTsPl26JQhkPAtpaIE3wOeigg4yggqCg71gtEFejrQ98tCupPAJkZsjn1lD5llSjEKgOAlwfnbxGAYfIxOLu8ssvtxetQpj6fa06vahsraVmUOL5wKVz586+2eZPrukQMZDMac72AymNtaNbPGJ5x/0MCxSyXvnzSTEg/B7elgDWxer245WeI69Xn0JACAiBSiIwYyUrU10djwA3bxQufDvxxechiJVmlNflllvOFEsUOhRGVtohHTBL5xMljRWZYsK5mKy/8soreYuygo4C65YIfpNGsWdl3IUVTAIZouS6Qo7iSHwBf/ggoODTTz8dUPxRqAnY2JqwooQwXneT4DsPNZjZT5kyJfjqO5YPrPBvsMEGFDGBqIBUQYGHMBg/frxldHjzzTeNRMDnH3yxBuAYfXXFG3eOUiPAoiBjus88oBRDJoCRB6NzdwxWwDC3dDcN7yf7SxHGirUDQSAhc8CP/oMtijmYHHPMMcEtHlojhjyQJhkbELA58MADzWUBUgM5/PDDDWf7Et/4ffA7xCoFl5CkUA8PXm6Z4CRSsgwkCOeBMXOOxQc4sKoNJsRaqHb2gWR/tN1+BNy9wYmo9teoGoRAZRDgWoW1AddHru1OtnrtWCXgasd1k/sAxJlfv7xMsU/usVwPsQDklU+w0OO+3Rqpm+8cSFvc4Ijvw30EiztI2t69e5u13S677BIwi3eiPF8dtOmSr2/l9guiG4s3yOfkfREM7rvvvoA1G1Z43G+xUMSFsKOF545BgwZlySPax+IN4RmCxY58wrMV9yyen5wMd2zLsUjgeQVcwcfJ+nzt+b5ic+Tl9Fl/CHA90X2x/uZNPc6PgIiE/LjUzd5VV13VFEYCKbqwUoxws8NsnlUWfNJduIDBxCeVaj/W2ifKHTEGUL79JposixUADw0ILgMogbkKMcQFPvtYEhCAD9LgkUcesRdEBOQBQRZ5qCLrA24JhYgEFF7GhhKbzL5AlgCUTm7c9AvlFNN7VmtQ6Ln545bBQwTt8mBGX+gbD5jEKEDhHzp0qKW+JP8sMRyoxzMzlPtQecoppxi5wzz4ChcPL+z3rAYEzmReeIDFnQBLCVb4GUMpgssAdUMUIcwz4wYnyBBIIywKIHQgB1oTLAsQsHHBkoObHw+tu+66a9Zawo9jCQPJAIYE8CTeAkQO/WGVCkLAH9bzYcfKDquDuDSAP32AtPGYGhAkknQgwP+lFOH3V2rZUupTGSFQKQScuE5el3Lrdpcu3Lx85bmUbETcIwnm6/dh6oXohpBwQTGFnPX/B4QG1223UvNy+T5xj2st+w3X3mSMHT+fezPuiFh28czgJDFjdDN9yranX9Tj2X6oi7FBDrvVIGPknucWjpQpR5LPHrgLouDnWuphccA9g3s7938WCSBcaJM55J6UFCxOuC8SyydXwIr4QcSCcmGhxrMfsS9JJNA/lH+3VvBz+OR3Qzwix4J7KOR4Ukqdo+Q52hYCQkAI1ByBeOGV1DEC0fwtE5W3TGT4M3G1OROtBvKOJirvmbhKnfnxxx/zHi+2M94kM3H1o9ViHI+rIK0e9wPxZu6bmbg6kYkrFZmo1GfiDTi7nw36WUp9LU5KfEm2E1ciMlGhzkTriEx8kLEXeMWYCZlozpo9Kz4UZOJDY/Z7cgP8EMrEh7gMdbZFOJ85ihYNBU/nOH2ND58Fy+UeZI5i8Ma8v4NoMWL955y4UpaJCn7u6dnv/K5yhTmKD5q5u7PfGVe0rshiTP8jYZSJD+vZuWS+4wNa9pzkxuTJkzPxgbvF+dQRzY7tN5Isq+3SEYgEYOmF21Gyo9ppRxd1qhAwBCI5m4lKaMHreLTYsmtRXOG3c7g3cD3iXhKJghbXKb9XcV+IFmF2jPqj5Za1w3lR8bV6uP75vSi6V2QiMWDlufaVItwTqM/HEInuTCQJMlFxtvtmJKdt2+uKJGy2D5zHi/sfn5zr0t5+RWvDTHRJ9OoycUHB2ohkRSZanGX3l7oB/pGMsXtWJPqtrki22LNCjO1j36OVXba6SC7Ys5CPEfzZjmRAtkzMmJSJroSZ6HJpxyI5nj2W3AAL+s35jCNaV9k2uLlQf7RYsa/REiOLaSQevIh9RhIhW0+0Sszwe6LeaPmYLVfqHGVP0EbdIsBvTvfKup0+dTwPArJIqDmV074O4O/u8Q4K1cSKPSsCbRVWh90dIV8dHC+0yu3nuFk930lDSFyCfJJcJcl3vNi+ZDusgLP6w4vVJQJU5vMLxdKCdIT5xC0eKJN018hXttA+zo8PIIWK2DHMbZFkjAHbUeSNOerXr1/eUu7mwUG3DshbMO70OArJ4+BWyCSTcWGZgPkqbhOYzHp0a6+ntfnmOKtxrBASNBNXB+aQ9vJZwHh9+hQCQkAIlIuAxxaKz0StuizgCob4Krtfh3BRw8qK+ykxfkgjzCo4FmUEbiRdL9dX9nM9JjMP1ga+6o2VIOdHhdLc0DyIrR8vNha/BmOxhqVcMnAt+7CuwwwflzhW4bEMZCUci0BW53F7YEUcScYzam+/yPaDhSFBchGsy3Czw5oMawxW/5N9tUIF3nADIC4ProB8Irg9Uh/tIPfee2/Wog93OKwHsMwjtTH3eDDA+oSx41LgcYj8/hYJA6sn9w1XSNrBghHLEuae893qkvK4j2KRQNalZNBixkzmD47jekIgZwRrBuaY7BYILo9IOXNkJ+hNCAgBIZAiBBRsMUWToa5UHwHM9fORCNVvufQWMJGMK0X2oFqPfnSYkeJvmksilIoAD22QEMyVP7yXeq7KCQEhIASKIYBSiHLtbma55VFQPbsP7gKIxwCCBEDyZSPy1IuQoU68Qzyj3KO8YpIPWYpwjec6iXKPJJVR29HKmy8I5Mt+48qpZ1B64YUXzEWOsii0KPL0wU3sPf1zJfqF4gxR73XjMoCSTawkFH/cGSHz3V2tleFNs9sDH3MAkgbCI1oGmAsH84RQJ8QN7nW4B3KPx03Rgyd6ligrHN881hFuli6Uh4hBIIRYGOE34Pcg4mUMHz7ci9v9DfdL5o2y9I25ZPzusoJLg+OBiyJBmgl6zHx4LKJS5yjbsDaEgBAQAilCQERCiiZDXRECIMDDKA9kPGz4Q4yQEQJCQAgIgcog4NmCWDXHnx7LBCSavltAWs9MQ9we93lPrt63lo1okUUWsXqoM6mk2s745ivgpCImXg4r9SinXPM9/o6Xbe3TA/7ly37j5IUTJL6C/vvf/96qg2Bg5R7BaiK6k1lAyEr0yy0lPNsPbYAHpAqKOUo+qYmJyzBy5Mgs5pQrJIwhaZlHDAisDLC8Q0kn3gMkAAJpgwUi1gSecpr9WIT4HPMd0gPxWBFY0RGryNN9EuOHut3ywQrnvHHc8YVEgPR3UgiCAfFsT4yfGFPEELrooouMoPDqvI5ic+Tl9SkEhIAQSBMCcm1I02yoL0IgIkAwLYQI0xIhIASEgBCoLAKsjhN8kNVhzN5Z5UdBd2sD3LQgEZLBDzFTRwplI3K3MoLcsnKOWwQufLgTsOo/atQoqwNlEkuHZLYhDqDQO1FgBfO8ebBaAiPmCu5gWHK59YTXRVBflFsUcBRglGxcMQgqjPLMqj/Snn75Crsr5+7mQZpYAiLjgolFAumBcYHDKqSUrFHMzbBhw8zigD5efPHF5hZAlgoE0sDdBXFpwC3QLQIYGy9cHnAhcQs/J1ywWICkIDgm4uQMgajJMAXRFOMZ2H4sBRkb7gm4OzgBwHj8PIIEY51AMGfE3QnBnWCLSYG8QEqdIzIuSYSAEBACaUNARELaZkT9aXoEePBESl2hanrABIAQEAJCoAwEsPRC2e/fv7+l4WVlHkURn3iyGqDg+nXYqy0lGxEKZQw4GC699FLLrOCm9yjDkAzdu3cPWDNAXhA7gawGuDyQsYb0iSinrIKjvLYmHt/GCYXccpjQu5KLso2SjbINSYBAZmCOzwo92Z5QulFS29uv3Gw/+P4zfl7ExmGVn5gCpK5E3njjDfts7c3jGaCAs40lBfj6+Jk7rBOIx4M1ASmJY/BKGw8xCkirDOYo/mS5oB9OJHBvReHHKsQzWpExCmsJhIxNKPiQEODjLg/MC3Xw+wFXyhDrwoX9xILAyoTxQ5yQ6YgUxh988IHFeyB1dAzybG4XWDDgPlHKHHkb+hQCQkAIpAmB6eLN5L82fWnqlfoiBJoYAVbFWP1ixUgiBNqLAKlQWRWstnRUO9Ueh+oXAuUiELM1WHDY3PNQJrESyFX6iU0A2YCS6UJQQYiMrbbaKm9dXo5PFNHlllsua6KfPEabrHajKCP0LWbUMasIV369PGWxgvBAj+3tFyv2HsiQNnDZIFAi/U0Kbg6kbnYrhuSx5DbkTiH3Pvrv8Q44D6uPmPFpmsDS1IMk6yJQJfEUunbtalYmWCbkkkd2UnzLbYf9tMW85qazpC3GjasCx8EXsgCrCKxBEAgJ3GtwdSAeUDlzZBXora4R0L2yrqdPnc9BQERCDiD6KgSEgBBoJAQ66qGlo9pppLnRWJobgZiy0ZRL3BGSmYZqjUql+0W8CCwHCAaJuX+axtpRWEMWYNlAIEgPitlRbauddCGge2W65kO9aR8Ccm1oH346WwgIASEgBISAEBACZSOAr77765d9chVPqHS/WOlfbLHFqtjj9FcNedIjZumQCAEhIAQaCQFlbWik2dRYhIAQEAJCQAgIASEgBISAEBACQkAIVBkBEQlVBljVCwEhIASEgBAQAkJACAgBISAEhIAQaCQERCQ00mxqLEJACAgBISAEhIAQEAJCQAgIASEgBKqMgIiEKgOs6oWAEBACQkAICAEhIASEgBAQAkJACDQSAiISGmk2NRYhIASEgBAQAkJACKQIgcGDB4cHH3wwRT1qrK48+eST4Zxzzgme5rKxRqfRCAEhkGYERCSkeXbUNyEgBISAEBACQkAI1DEC7777brj//vvreATp7voVV1wRzjzzzDB58uR0d1S9EwJCoOEQEJHQcFOqAQkBISAEhIAQEALlIoAydu2115Z7WlnlUfZ233338P3335d1XlsKd1Rbd911VzjmmGMKdvH9998veLxSB0vpS6XaSks9r776qnXlww8/TEuX1A8hIASaBAERCU0y0RqmEBACQkAICAEhEMLTTz8dXn755WmguPPOO8OYMWOm2V/JHW+//Xa49957O2SFvqPaeuqpp8KVV14ZPvroo7xQzTrrrKGjiIRifcnbwf/t/Oqrr8Ldd98dfvnll0LFUnUMQop5RqabbrpU9U2dyY8ArigSIdAoCIhIaJSZ1DiEgBAQAkJACAiBggigdG299dZhk002Cb6Smzzhiy++SH6t2vY333xTtbpzK+6otlprZ7bZZgv//ve/c7tV1e+t9aVQoyeccELYa6+9whFHHBEymUyhoqk59sEHH2T7As4SISAEhEBHIjBjRzamtoSAEBACQkAICAEhUCsEunbtGnr16hWef/75cPLJJ9tKOkHqvvzyS1uJ/uGHH8Jhhx0Wpk6dGtieffbZw8UXXxzmnHPOdneZ+j755BOr5+qrrw5PPPGErdTPNNNMYcsttww77LBDu9vwCjqiLZTtr7/+OrCSj4DnjDPOGD7++OPQqVOnMHz48LDKKquEOeaYI3z77bfetap8ltqXQo2vtdZa4cYbb7TXjjvuGPr06VOoeCqOJXHt3LlzKvqkTggBIdA8CIhIaJ651kiFgBAQAkJACDQ1Aii1N998c3j22WfDfPPNZ4r8gAEDjDRwYK6//nrbXGmllcIiiywS/vnPf/qhgp8QA//4xz/C448/HjCxHzhwYDj//PPtnJEjR4ZLLrkkez7WELwgKn73u98FzP/LEYiO6667Lhx44IG2ek67//nPf0Lv3r3NPaPUthjbfffdFzC3fvTRRy1gHyvzO++8c8Hu0NagQYPCSy+9lC3nmRkWXXTR0KNHj+x+Vsp//fXX7PdiG5Rlfuadd96w9NJLFytu4y61L8wRwR/JJAEBMnHixDD33HMbbpA5a665ZnjrrbcCc58r9AvSJ02S/G0uvPDCaeqa+iIEhEATICAioQkmWUMUAkJACAgBISAE/ovA9NNPn11tfvHFF1uQCJS45pprwqqrrlqyco9Fw0EHHRRuv/32LMRLLLFESK4Qo7wmZdNNNzUTeoiKfILSipKLco8st9xyprh72QceeCCcddZZYe211w5HH3101k2DepPKJeVbawvriCFDhmR97CE1UNxLMZHHVWHKlCneHfs88sgjw7bbbmsETfIAVgrJPmE9gG9/PiuPZ555Jvzxj38M7733nlWB9cj48ePDzDPPnKyyxXY5fbnqqqsC2K244orWVyw3kJNOOilghYDFCq+kEE8DjCE3sLDYbbfdwh/+8IdkkaLbBEJ86KGHjKSAwNp8883DQgstlD2P+Bzdu3cPK6+8crjjjjvMuoO2zj777BaxD3C9IaAkrhv8Rr/77jurAzKsXDIq27g2hIAQEAJtREBEQhuB02lCQAgIASEgBIRA/SHwzjvvhFtuucWUfxS3e+65J3Tr1i2gCEMG/OY3vzET/VJHxoq+kwinnnpq2GabbcIMM8zQ4vQ///nPAX92lF7iMyy77LJm7dCi0P++oHQOHTo0m85v/vnnDyiQnIsCiswyyyz2iRsGcR/23ntv6zcERpcuXUpqC5cND9Q3YcKE0LNnT6uzlDdW5gkaiWUCqR3J2oA1BEpyruDm8PPPP9vuzz//POy7775msbHnnnua+4OXx7oBqwAIjRNPPNHcSy688MJw0003mQWBl8v9LLcvkAf0AcH6grn/7W9/a9/HjRtnJBO/CwSXF+aTcxZccEEjE7ACwTWmWKYKqyC+YR2CRYoL4+P3QoYQLGSQUaNGGbEwbNiwbN8gUyB61lhjDSvz2muvGT5OfrCT3wbSr18/+9SbEBACQqAjEVCwxY5EW20JASEgBISAEBACNUVg0qRJYfTo0cHT5aHUY97uSl25gfpQQlk5R1BMx44dm1WcfaDUjVUB7SDEFsgnrNQTK4HUjdT1+uuv20o2ZY866qiA9QMCWYBABKB0c2z99dcPiy++uI2jlLZcaaee/fff3zIWlBNkkBV1VtHdsqA13FgpR/klqwPWEbh9ICjYWCC4HHfccbbJ3ICBK8nzzDOPF2n1s9S+OG4o6biw4MLBar7PyznnnBOIX+Hyt7/9zfpOvAfcInABWX755cOll15aUuYNzodEwLoAwgrLFCwaIE3+P3vnARhF9YTxRwsQCL1LFRBFilQFBQERsGIvKNgbioq99957L9jFglgRu4ANxAJiV1D4S++QENr932/inJvjkruEXHKXzOhl93bfvn377d2x872ZbyCz1IjaIDoGcgU78cQTZQlhgUEisQ8cGTNRC6S2BAkaaWh/DAFDwBAoRgSMSChGsO1UhoAhYAgYAoaAIVCyCChhEBmar/nvwfJ/RBtkZWXlO2CcUGbNSTWoUaOGOI7MIj/77LNblBLUSIXgOXCw1aGmH8gBQu1xGJnNxxnFcCK1HfoBGHoEeYk0xjoX4f049eeee66kElCxYOjQoQ6tg4IQCtHOgwOs6QmaljBs2DAhE3Csb7vtNhk/DjHGdZHKgRFdQWQFGLCEIInXYo1FyYkjjzxS0hsi+yWigpl/NdWA6Nevn2wieoHoEgxHPj+D9IEM4h6RUgFhxWcJogl74403woeTZsL9JfIEbCAuGCvkAjZjxgzBk3HTJ/eOvjgGIzXCzBAwBAyB4kbAiITiRtzOZwgYAoaAIWAIGAIlhoDOSk+bNi3XGHRWmqgAjNlnZo8RMoxlOLAHHnigRA/gAGPk1e++++5h/QK2QTRgwYgENAGuuOIK2a5EAaJ/GCHwOK6Ew2MIRWIaBUA6gjrPsiPwJ9a5aAqpgr4DURqE+0MAQGAMHz5c8vAD3eW5qufRfH1mydEQQGsCUyJGoyfoG3FEjFl+TKND7rvvPvf4449LhARpIszaM1sfr8Uai95jTV2I7JfIBrQQMjMzZZdqW3B/SHPANH0jrwgMaeT/QKTg6Pfs2VPuFyTBGWecIdu4n1w71w2ppIQA+0mlKFeunAg/Kj4ci/Xv31+WCEJSphKDbCGChW1mhoAhYAgUJwJGJBQn2nYuQ8AQMAQMAUPAEChRBFQEMdIR1Fl+ZoHJ5deKC4SyxzJminGA0QxAtA/ygZQDog2IGNCUBCUEmGHGeURnAGcR4TxMqwWgo3DwwQe7kSNHSlTCxIkTZYYa55ySfwhGYpRazMtinYtZcCpL0DfOMY4phAL6DJMnT3ZXXXVVXl3n2q6pB+qAK27qrKNJgQ0aNEgICtaJtCDNgRl/iAfFHnFByBe0AtAHgBgAOyV3ODY/izUWHHRs0aJFUbsh4gBTIkEdeCpxQO6cf/75YWc+VkUJSAnuAWKRECuUl+R+n3POOZKKwnnYp6QSkQtnnXUWm8XAj/MTOaMEyE033SR6ChAxfLYgoa6++mppr8TNv4fbIkkRQIPFzBAoLQjET/OWliu26zAEDAFDwBAwBAyBMosAonm8Isvlqc4Bjp4as/S0jWU49ISc33///VLOkYgBHHUMZ5DZenWWSXvAMW3fvr3sx9kknB+DhMCZJxKBUH90DJilproDjj6OLJES9KFEgRyYx5/8zkXePY48KQ04xVw/0Q0a2k95ynisdevWMhY0B7R0Zvfu3UV7gOO5Tvq68cYbc1Ug4LreeustmU3HSScyAo2CvfbaS66byhVgQaoF90Bn5/MbU6yxMHuPKaEQ2VePHj1EBFEJCapNQGwce+yxch9IZ2AsRKrgxOdnkCWQKpBBRHqAMdEYEDUQFQg7ktrBdRPxAImkaSD0C/lANApEA0KWEFrg+PDDD8tpEWiEpCINhTHGg09+47V9hoAhYAgUFIFy/gcoVNCDrL0hYAgYAoZAaiDAg+jo0aMTPtjiOk/CL8ROUCYQYBYcp1l1EfSiEfpD2wBHmBnxAQMG6K58l8uXL5fcd6ISNEydA3BccSQJV1fDGSQHnlB50iGIZtB0C22D88jYIskCHFu24wiTKsASgcW8LNa5fv/9d0c6AdoMQSMcHwFHRALjMS1ZSOlErpXr0soSPGYSRaGz6sH+cH5xkNlHO8Yybty4cDUJdAIYywknnOBw8uOx/MbC8ehCIEapaRCRfTJW3UekCBhwXyFeuC9Eb+RFRET2xXsiKohw0WiHYBvuZ5A8CO5jnQgXjT5h/ccff5ToDMVM2zM2Imw07UK32zL5ELB/K5PvntiICo+AEQmFx86ONAQMAUMg6REoroeW4jpP0gNuAyzzCCxevFjC9UmhoGJBKhjOLhEUOK2QGgXRJUjE9RG2D2GiaSiJOEc8fVKRgxQDKkyYGQJFgYD9W1kUKFofyYKAaSQky52wcRgChoAhYAgYAoZAyiOAI04qQqqQCAAOcUCqB2H7JU0iMB7GUdIkAuMAExVZ5L2ZIVAQBCAN4rF428XTl7UxBIoTASMSihNtO5chYAgYAoaAIWAIGAKGQEog0LJlS9ElIAXBzBAoKALomZgZAqUZASMSSvPdtWszBAwBQ8AQMAQMAUPAECgUAghQonmB7oKZIVBQBBDkjCWCadEIBUXV2icTAkYkJNPdsLEYAoaAIWAIGAKGgCFgCCQFApSsxKhuYWYIFBQBNDbuuuuumIcVhyByzEFYA0OgEAhY+cdCgGaHGAKGgCFgCBgChoAhYAiUbgSotEAVCVIczAyBwiJAVAKkgpkhUNoQsIiE0nZH7XoMAUPAEDAEDAFDoMwhcPjhh7tPPvmkzF13oi+4W7dujjKUL7zwgnvjjTcSfTrrv5QhQHpDXmZpDXkhY9tTBQEjElLlTtk4DQFDwBAwBAwBQ8AQyAOBv/76y3300Ud57LXNW4vAtdde6y666CIXCoW2tis7vgwhQCTCF198Eb7iSAFGS2sIQ2MrKYiAEQkpeNNsyIaAIWAIGAKGgCFQthC4/fbb3dixY/O96Llz5+a7v6h2vvvuu+7yyy8vqu6Svp9FixaJ6CLCi6tWrSrweMsaXgUGqJQf0KtXr5iii6UcAru8UoqAEQml9MbaZRkChoAhYAgYAoZA6UFgwoQJ7r777svzgqpWreqKi0iYOnWqe/rpp938+fPzHE9eO/788083adKkvHYn5faff/45PK5y5cqF1+Nd2Rq84j2HtUteBKKJLpLWAMFgZgikMgJGJKTy3bOxGwKGgCFgCBgChkCZQWDp0qV5Xmt6errbtGlTnvsTsWPlypUF7vaQQw5xw4cPdy+99FKBjy2pA0gbUQPnwlph8Crsuey45EaAFAcTYEzue2Sji42AVW2IjZG1MAQMAUPAEDAEDAFDoEQQ2Lhxo1u2bJnLzs6W8PrzzjvP/e9//5P1atWquUceecRlZGS46tWrFyrsviAXhT7AihUr3PLly+WwG2+80VWsWNEtWLDAValSxV122WWuS5cu+Xa51157uWeffdadf/757qCDDpLj8z0gCXZyzRh4c73xWlHgFe+5rF1yI4DoItUb1HbeeWddtaUhkLIIxP9rmLKXaAM3BAwBQ8AQMAQMAUPgPwSY2f/www8ds4Iff/yxW7dunXvuuediOsH/9ZCzdvfdd7vy5cu7UaNGRe6S8P369eu7HXbYIbwPh3TWrFluu+22c+yLZaQqDB48WEgDbfvyyy/LaocOHVyzZs3c+vXr5T0z5Rs2bNBmMZe0/fbbb13t2rVd27ZtY7bfvHmz22+//dwPP/wQbqtVIpo3b56rRCIOE7P4VJKAdPj6669dzZo13U477eSuv/56d+yxx7o1a9Zs4ZTjeBNVURBnPTyYiJWsrCyXmZkpFRcidglOlSpVityc53vFuGPHjnm2idxRELyCx/L54HydOnVyFSpUCO5yRfW5zdWpvSkWBIg+0CoNltZQLJDbSYoBASMSigFkO4UhYAgYAoaAIWAIJAcCOLnHH3982DmntB+OMDPqkYazjRM8ZcoU2bX99tuLM80bHNU77rhDth933HESESBv/J/Zs2dL+P7uu+8uWgJsp3wgyv8I9mEcc9VVV8l6Xn8gHrS9tnn++edd165dHZoIQcP5VoeX7TjlOOtEK0Ta9OnTHTOkf//9t+zq3Lmze+WVV1xaWlpk0/B7HHyuK2gXX3yxO+yww1ydOnWCm90zzzwjBM2OO+4o+/UaIBGOPvroqMTFO++8IxENOMv77LOPO+mkk+ImdiB0mjZt6g4++ODwONhG+gTXqroGS5YsESJj3LhxrnHjxnIPRowYsQWWv/76q/v0008dZAMzx0SDYHvvvXe4f1bAGP0ECBXuVZMmTYQ84bNUELzoC0FHCCmdteZzyfjbtGnDbtke7+dWDrA/SYcAxCUVHPhMWVpD0t0eG1AhEDAioRCg2SGGgCFgCBgChoAhkJoIEH6PY0ukAIKBDRo0iHoh//zzj8PJ/O2332Q/jh1OLg7iAQccIE7mtttu6xAP/P3332W2XTu6//77ZZUZfOzFF1+U0oHM/J9++unujTfecE8++aSQDa1bt5Y20f4wA/7ee++5Ro0aOZz2t99+W5yQaDP2OK9EVmA4zKeddppD5A+HnGtWI6KAlALC9CE2SJN46KGH3GuvvSZOsLaLXOJUf/DBB46ZdspMUrWBCINIEoHjGAsYMwbsmmuukWvAeYKAueeee9ypp54qUQrsx3nWtuDMdfJ68MEHt3DeaR80JXS4n0EiYdq0aXK/Fi9eLPcYpx/sORfnQCjyhhtuEHz5HIAHNn78eHfWWWcFTxGOaujevXt4O1ife+657q233pJtHM81Q0JAmBQELypBEL3BZ4kxQkhceumlIq551113Sf/xfm7DA7SVpEMA8i5YCjLpBmgDMgQKiIARCQUEzJobAoaAIWAIGAKGQOoicPLJJ0t+/k8//eTOOecccdCZOQ8aM/lHHXWUOHY4wTh5RCeQTnDJJZe4fffdV8LvzzzzTJnZ/+OPP8JEAjPUpB/07t1bHFtC++kDgzzA8X7//fflPboGsaxdu3a52iLYhyMcaUQo4MjiIB944IHhigqPPvqoQ5egW7ducsiVV14pS6Ip9txzT/f444/L+1q1akV2ucV7HFxMoxzyEg/UtA0iHog0COLLtgceeMBxXRAymFajgGAhOoKUC/BXMqRhw4bSLtqfOXPmyObgOTieSBJMCYJvvvlGSARSRTg/9xMyhHsFsQFRQzqGkgiQDBAlbFOSQ7Uh6Peiiy4SEuHII4906FbUq1dPrgf9h2OOOUbSV+LFi3sAiUDKB9oRzFxjQZImns+tHGR/CoyApuhwYHCdqBS1zZ6Iwib9u61fv37yPr8/wb60HZ9lfnf4rGNELakF+wyu635bGgLJhoARCcl2R2w8hoAhYAgYAoaAIZAwBAjFp+waoe84kZMnT3b777+/zASTuoAxO49jp6H4bCNcH8NZJ1ye8GR92Cf1gdlwZseZdcRuvvlm0U8gpYFjsN12202W/MEBzc9BDjf8d0Vz+jXMns3oPEBYQCJoWsKwYcOERLjuuuskMgAnF2ceIoFxq4N9yimnhE9BZMUee+wRfh9rRXP3g2P5/vvvRW+BNBElOrjGoINPv0qeQL6o4eRzjLZFsJEZeJz7iRMnSmSIto1cahQG58WIGAlGYGhaA9oDGPeMiA5eRGQQXUFEhp6LNnw2lOQgMkKNttxDyCI+IxBKCE5yDq4fAgNjzOhgqOWHF6SLRh2MGTPG8VKDTFGL53OrbW2ZNwI497wgCXDir776atGjaNGipZv+zXT3j4/Q4TMCQQWxo44+2xJhkWSDkheMK2jBcSRqLMHz2bohEA8CRiTEg5K1MQQMAUPAEDAEDIFSgwAihbfddpuE/TMbzewgL9IACCnH4cbU8ceZRCBNw9cJf4dIQKiwZ8+ejpx7iARIAyIdiEBQx5YUCYwUBdIKSINg1p1ogIIYYoUY0RIYs9bkzBPlMGDAACEx2A4BgoNMiUWcbIgEzbvXsRABAPmAA884yf2Pli5Bf9GsRo0asnn16tWy5DyQMczcM1OvY40mTqiRD59//rmkBhDVANHC65ZbbnEXXHCBjEVJlryiHnRcSkx89913sgnRTHCGmCAVhYoSECWkcGDcd0gVIiIgZ5j1px3VMdApwPr27StLCAHSVDSqgftORAqkAYZDB4nAPVcCie1oG5xxxhlhbYb88MJZxSB2Bg4cKKHvCGcOGjTItWjRQvbpn1ifWyVNtL0tcxDAWccxZ8k9Y0na0lv+ew3+RJBg7CtuizynvtfIIR0PY+bzx2/NlVdd5UKbQ/5731/GrMdoW1saAsWFgBEJxYW0nccQMAQMAUPAEDAEShwBHPqxY8e60aNHS6oCjiIidzy4kwbATDIpDMw442CTe88sPo7p66+/7oYOHeoQPGQGGweRY3HadfaYh3req0E2YIS84+AHTWfTowk9Btuxrv3MnDlTnF/C8zGtCqEh/jigen76ZdacPH7OpX0w4z5hwgRxXKUT/wdHmjbqmOv2aEslA5iBJ42CGX1MiQN1aNUxD/ZBlQuEDilpiSkxgrP+8MMPS9oH/YA1BgmQn6ExARlCtECfPn1EQJJrZgaXNAGiRehDCQmuEYy4j2AJ8cJ+xqzXRcoKTjz3DANrNBcgYDiPYg5Jg0ilEjV8LniBN0SPCuppv9Hwqly5spyDa0eIUlMrZKP/w7ghZuL53BK1YPYfAoiZ6gw/3+/Ro8/xhFeObsl/rVJjjd8VXkHbf/+h7tfffvfk52WemBzouF4zQ6A4ETAioTjRtnMZAoaAIWAIGAKGQIkiQOg7ooG8iCZo1aqV5MuTC48hloeDyGw9kQiQCIgTMsPMjDAz7prHTlQBs9dEMkBC0B8RDjjLahAN9IGg37x58yQVAQFAhBBxLNFfYCY+lhHFgJFfrUYEAE451r59e5kZ11B7bcO4cWwRjSTCAieZMaKbwHWhFcC1MuNJX+oU6/HRljjvOP6khvDCECJEfwBT518JBdkY+MM4iALAIDAwcGKdiAGce4gbUhSo4JCfgTVpJwgfQk7ce++9cgxVFOjjl19+kcP1PKR5IPSoRAVRAOBP+gHEEaQB6S68wAPygGujHCMRJ0SrQCJdeOGFkr4CXhAYJ554ott1112F5KGkKJ8vJRLyw4tIkKeeekpmxYcMGSJRJmhQEFXx2WefCU6MJZ7PbX44laV9fJaJQIBM4l6UVnvjjRyyjesbdtTRbriPsmjtSTEjFErrHU++6yrnVWxDyTcsG5EhYAgYAoZAUSBAODYzr4m24jpPoq/D+i8bCEyaNEkcTpz5oDGTfcUVV4S1C3BGCX/X0HZtS5lFtgcd5YULF4rjGi1FgFll9BZw6FUvgVl0SIiRI0e6bbbZRrvOd4lAIrPkOLZHHHGEpDToATzOof6vaQW6nSXOLrPo7KMdzjEh0jjsGA43JMgJJ5zgevToIdti/cEhh7Sg6sWhhx4qkQk6u86xYIvmhIb1B/vDKSYyAFwRX8QRR/gQZ5ztaC9Eu45gH/GsgzX9cX2QP6QcKGEE6cDYIu8X5yZ1gftLZApLNTQwqFqhnwfeZ2ZmSv/ahqWSFsG+Y+FFhMhjjz0W1rCgH/QvIHtIm4Ewifdzy7Fl1XCiiULo52fvI9MDygImp58xytWvV9fIhLJws5PgGo1ISIKbYEMwBAwBQyBRCBSXg19c50kUTtZv2UQAp5EcesL5CfsPRhIkAhGcUBxnFP7jSSFIxBiCfVLhAUeZ8ZSUoduA+CXRB0R2JMqIIiDtQImERJ1na/uFvIIAIRoir89jcX9ut/aaivN4iAQIPqIRIBPKokHgIQhqZggkGoH/Yu8SfSbr3xAwBAwBQ8AQMAQMgSRCgBl0cuGZsc7LaSvK4XKOli1bJgWJwHXhrJYkicAYtMQhDnQiTcUbNSIkkefamr7RUyBCJb/PY3F/brfmeor7WCJQSG0oq0ZKB0KiZRmDsnrvS+K6jUgoCdTtnIaAIWAIGAKGgCFgCBgCUqISIgdNgESapo+ggWFWehGg7CrWv39/0UkovVe65ZVBInz44Ufun/kL3bjX39yygW0xBIoYASMSihhQ684QMAQMAUPAEDAEDAFDIH4E0HxgBjWRaQfoHWCkN5iVXgQ0neHc8y5w773/fphQwMkujcb3BtKEFyTC3Q8+Jpd53ImnlsbLtWtKMgSsakOS3RAbjiFgCBgChoAhYAgYAmUJgQMOOMBNnDhRKkuQapIIQ2ySahKUfDQr/QiglfDbnHnu4QfudavXZLqpX30pF43jrWRDKuooMH4MYkTX+/Tp604ZeYZr33En2detR09Z2h9DINEIGJGQaIStf0PAEDAEDAFDwBAwBAyBPBGgFCUlECkLmUgbM2aMVIRI5Dms7+RC4JSRo2RAazKz3NLlK1237j2FWMioni7VHajwoA55kGDgIH1f3Fek4+G8Oj7GAjlyyaWXuht8BZidd+nlnn3hpTB5UNxjtPMZAiBgRIJ9DgwBQ8AQMAQMAUPAEDAESgwBVPaLw2lLVLRDiQFnJ44bASUU9AAiFbDvvvnaE1h93BdffCapEBXKV5AUgcmTJ2lTWUZ+PiPf52r87xsiHjDIgGimhIH2xXtevO+9665ySHb2Bpe1LltIEK6hZZvt3Tc/mM5HNDxtW/EjYERC8WNuZzQEDAFDwBAwBAwBQ8AQMAQMgRJCIJJYOOrYEws8kurVqsoxU7/8QpZVq1TO1ceyFavkfcfOXdznn32Wax9viI5Yv2GDkAS8p1279h1ZFcKAZfceO7vCjI1jzQyBRCNgREKiEbb+DQFDwBAwBAwBQ8AQMAQMAUOgWBDQSIBEn2zN2iw5hWoT5He+Vm13yG+37TMEUhKBUk0kUEt21apVjpC59evXuw2e9aNecvXq1VPyZtmgDQFDwBAwBAwBQ8AQMAQMAUPAEDAEDIGSRqDUEQlZWVlu9uzZ7u+/57rFixe733//zaWnp4u4zoIFC1yXLl1cq1atXM2aNWUJsWBmCBgChkCqI/DllzmK1LvsskvMS7nzzjvd6NGjY7azBoaAIWAIGAKGgCFgCBgChkA0BEoVkbBkyRIRKZkwYYJbsnSpq1qlqlu2bJlr1LixS0tLc/PmzRWSYfny5RKVcOihhzoeups3b+5q164dDR/bZggYAoZASiDAbxkEQSwigTZmhoAhYAgYAoaAIVC6ESD1QnUcSveV2tWVFAKlhkj466+/3Jtvvum++uorIQ0OP+ww17FTJ5dWuaqrVauOC/n/Mqqlu2rpVXyUwu9uypQp7uuvp7snnnjCDRs2zB1xxBGuYcOGJXUf7LyGgCFgCGw1Avz+EZkQi0ywaISthto6MAQMAUPAEDAEDAFDoEwjUCqIhJkzZwohsHjxErfvfvu6fr7cSqNGjdzmzSFfK3atW75yjatatbKrnFZJbnabNm3ctttu67p07ebKlS/vXn31VbfMRymcdOKJrmnTpmX6A2EXbwgYAqmLwNlnn+1LWH0Rk0hI3Su0kRsChoAhYAgYAoaAIWAIJAMC5ZNhEFszBnQPxo0b53755Vd3uI8q2Hff/V39Bg2ky/XrN7iNmza7mjWqufLly7lVnlTYuHGT27R5s1uTmeWaNW/hbroDx4oAAEAASURBVLn5FnfnXXe733773V155ZVuqU+JMDMEDAFDIBURiBWJQFpDr169UvHSbMyGgCFgCBgChoAhEAcC06dNjaOVNTEEth6BlCYS/vnnH/fCCy84yIQLL7zADR40yBMHm9zazHXyysrOdpUqVXS1a2a4GtXTXSjkHPlCq9dkunXr1vsIhTSJVOjWtYuPRjhBSIRHHnnECzOu33pkrQdDwBAwBEoAAYgCFV6MPD2pD7HIhshj7L0hYAgYAoaAIWAIGAKGgCEQiUBKEwk//PCDmzRpktt+++0dNWPTfOpC1SqV3TpPBCxeusJt8tEIEAgYpAHr2b4E5MpVa12VKmmil6CAcPzgwUNEN2HGjBm62ZYJQmCzjwpJFXvnnXfc3LlzU2W4Ns4yjgBEwV133RUVhZ133jnqdttoCBgChoAhYAgYAoaAIWAIFASBlCYSEFiktGMwVLeC1zwgjcH5/0M+BGHDxo2Cx2a/TrQC+yERvPaiW+9JBdrg1K7NWufa7bCDy8jIcB999JHb4PeZJQaBq666yh155JGJ6TwBvd56663uoYceSkDP1qUhUHwIWMnH4sPazmQIGAKGgCFgCBgChkBpRyBliYSVK1e6P/74w6cmpPvyjtt4UmCjkAar12YKOVCrRnVXoUJ5l5mVLboIpCtkrcuWKISG9Wp7kcVyboWPTCANYpVPddiwYZNr03pbXxaympsx43ubgU7gJx9xzN9++y2BZyjaritUqOBWrFhRJJ1mZWW5kSNH+s+YRb0UCaDWSVQEEF2MTG8grcHMEDAEDAFDwBAwBAwBQ8AQKAoEUpZIwLHL9hoIrXz1hWrVq7tVq9e6lf5FOgNlHiESamRUIzBBRBYhDCpVrCipDwBHm3SfBrFsxSo5rlKlCq55s2auefPmnoCo4MmHnEiGogDZ+siNwLJly1KqOkZF/7lZvXp17oso5LvMzEz39ttvu7FjxxayBzvMEIiNQGR6A9EIltYQGzdrYQgYAoaAIVA6EJg8eVLKXQgV5LCvpxnxn3I3r4wOOGXLP5KSUK5cOZfhIwiqVqkihAApCnVq1XBVKvvUBW8VPSGAbsLq5VmS0pDhNRIoCUnqg6Q0hDa7ChUrSJoD2zm+du3askTIcbvttiujH4vEXvbChQsdJThTxUh3WbRoUZEOd/m//1gUaafWmSGQDwKjR4/OZ+/W70p0/1s/QuvBEDAEDAFDwBDIGwEc+ZOPG+5atW4bbrRbn75u6AEHht8fP/xIV7dBIx8RXUW2devec4v9bdvtIPt+nDXDnXXO+a57j//0iTi+aYuWLsunVM/+4zd30aWXh/ePPOk416xFKzl2yqRP3W59dw/vCw/AVgyBJEIgpYmEJUuWuFq1arnNnhBAZBFygNKO6CIQfUCpR01nYB/VGmiXlpazj+iFOr6ig+zz1RyIXpjjdRcWL17s2+SQEUl0r0rFUNCeWLt2rWvUqFHKXE91H/FCGs3WGhE0EFTYJ5984s477zw3e/Zs0ePYcccd3Y033ri1p7DjDYEwAtHSG8I7bcUQMAQMAUPAECiFCCCevjUGibDH4H2kiw8nvr1FV5126uK279g1rv0QE2tWr8nVByRDl569ox6/3fY7uN5995B92ZlFEwmb6+T2xhAoYgRSNrWhZs2arkmTJp5E8KkLK1e56tWqulo1q/soBedZvmwhENBLQGCRCAVKQFZLr+JFFbPcsuWrRBuB7RAL6Z5V5Pil/gu/ePESmS1v2bJlEUNdOrvDOX744YeFfAleIVUOvvjiC0cof9BIa8Dq1asX3FzgdfK/Cdc+9NBDXYsWLUR3IK9O4q0QMWfOHDd16lSH/kakLV26NNcmNB7GjBnjfv7551zbeTNr1iz37bff+jSbTeF97733nkS47LvvvrINMuXll1/2VUK+9qx2Vcfn2cwQKEoESG/gO5hXBYeiPJf1ZQgYAoaAIWAIGAL5I2ApC/njY3tTD4GUjUioU6eO22mnndyXXkBszuw/XZPGDQX9dJ/mAIGwYtkKSW2AQNBUB0iD9es3uMXLVvqUiHRJe9BbRpvpU79yP/04yx1++OFCUui+srp85JFH3FtvveXuvfdecdaj4UAFhueff95BvAwePFi0Ja655hr31FNPhZtz/P777y/vlUgghaQwhnbFmWeeKToDevy2XicjGjFBadAnn3xSqnDUrVtXqnvsvffebp99cphmPR7i4JJLLpFr1W0cN2DAAH0bXtKWyIEXXnhBth100EFCaPCG9IdRo0aFRe4450svvSTE1Lx588J9sMKYH3jgAde2bVuHBoNZ/AhAIuEgIx5I3r+KCJoGwJYYBgUXId7MygYC+t3Qq6WyEcSSmSFgCBgChkDhEYhFBMTaX/gz25GGQHIikNIeTNeuXcVJfO+9id4xayXh8lRjQDuhvH9R6pH0BaIS0Esg1YH1DB994AMXfIh9lkQi0P6f+Qvd62++6Ro0aOB222235LxbxTwqSITvv/9ewvqZ9WdmnwgDQv0xKg9AIiBQ2adPH9l2zjnnuNdff11Ihb322svdc889DrIBBx6HWasffP755w7nesGCBa5GjRquU6dOjnC0hg1zCCHpLMqfDz/8MEwi3HzzzRKRgDhmpF166aXu2Weflc0dOnQQYujjjz8WsmDYsGHuyiuv9GVAq7hVq1YJcfTTTz+JU9+xY0c3btw4STv45ptvcnX7xhtvyLUQndClSxfpAzIL037+/PNPd/rpp8v5GMN9990nM8LHHHOM69Gjh5AK3bp1k8/ZDr7cqFn8CCiBgFNk+fjx4aaYGV7x4VVaW0EiQb5h9lkorXfZrssQMAS2FoEZ3+Z+7ovW34zvvg2nNkTbj/ZBUdn0aVNNI6GowLR+EoJAShMJiCHiVLz22mvulVdecQcffIjLqJETIl6/bo5o4hpPFmzavMlV9poH2evXi3ZCTV/RIdtHJmTyZfeR9yjyM3M864cf3GmnniKRDglBO8U6bd++vRAJDJtQ/KFDh7p27dq5+++/XyIPLrvsMrmi2267zaWnp7vPPvtMSAQcd6IQcLiJICB6RJ39NWtycsUmTJggx1arVk2IhGeeecY1btxY7iXLvIxZtc6dO8u4iHzg3g0fPlxIAT0GwkNJhPPPP9+dccYZsotzQ2yQioEGxtVXX+3uvvtuB4lAZMGtt94qZAefq8hUBjog2gC74IIL3CmnnJIrkuDxxx93kAjHHnus45w6S861Y1w/JAUGcRKtf9lpf7ZAAGeY8Hxy/s0J2gKefDfwfbGZ6HwhKhM79XsDoXDEEUfId8k+F2Xi1ttFGgKGQIoi8OMPM/3zc+Gid1P0km3YKYhAymokKNbknDObzSzyWE8GLPTh5ZR1rOyrNZDKUC29qtdLWO+W+HQGKjOke50EohOqeV2EWhnVvfjdQvf4E2Pcc88+43bq3EmICe27rC91xhwxSvBFF4BZLRz15557Tpx5HGcNKcdJx37whIySPH///bfM0BP1galmAtEHRC4Q1QABcfTRR7v58+fnSi+QAyL+oCUAcYRjiUN+3XXXud69ewtxgF4DVt5HokBQEClBdIAakRSQAOz76KOPZDPaBby//vrrw8TAaaed5pQkoRFVG9QgMRhrMB0hy+tuaB46ugktfZoH6THYUUcdpYeGl5UqVZLSpbph3bp1jnGYbYmAzqi/+OKL5hBvCY9tMQQKhACEAt8lfq/4bpkZAoaAIVAaEejXr1/SXhaVHOKx9h1yJp/iaWttDIGSQiDliYT69eu7I488UpyMiRPfdY8/+oib5Eum6IxvpUoVJNWBSg5el1HWARuHdt68ue6dd950H74/0fXaZWcJZ2c23SwHgWbNmsnKjz/+GK4oAK5EJFxxxRXiqF944YVhuHgwxdGeOHGihP3z0AoBceCB/5XNQTcAw8knLQCHnNl6NAMwUh1iGe3p89NPPxUCgPakEUBOEF2AEUFBhYig4CGECI4++7p37y7tWrVqJe8nT54s7/P7M2jQICFPIK9IzaB/Ii5UnJEoBQQUSe+AiECjoXXr1lt0iT6Efj7Z+eijj7qTTjpJ0iO2aFyGNyiJoLOpZRgKu3RDoEgRMDKhSOG0zgwBQ8AQiIoA5R0LYlWrVC1Ic2trCJQ4Aimd2qDoUTrvrLPOEifuTa9zMNWLJsJG4qhW96kOlSqlySz1n39kuUoVPHfiy0VS4hHnESfwlJNPcjiJ0QT79BxlcamkCqkL2C233OLQJdD3iAWS0qBGe9VUOP7443WzLElBoC3RC6QukMrATDyONkQF+gPYIYccIsv8/kAcDRw40KF1QHQAlRvGjh3rLr/8cokAoPICqQqQGEQE9O/fXyIAmPUnWgKyg0gGjH4gJE4++WQhN0g/gBxgvKQlQJoQKYERcUEqxIMPPijkFduIeIAEwEiZYDx8FoPGZyxYlQEyBZyoErHep9sg7AixQoSF2X8IEP1iJMJ/eNiaIVCUCEAmkOpgKQ5Fiar1ZQgYAmUdASIOtLxjLCzm/jU7V5OCHJvrwIg33Xr0jNhibw2BxCBQKogEoEGkj1z4XXfd1Y0fP95NmzZNwvBr1qolJEKOuOJa37KcCP41bNjAIXqHI4hyvtmWCCA8iS4Aegc4+ITrg/NFF13kiETQnH89kpl1ZutHjhwpDjWz/bNnz5bZe/QDCKclkuDVV18V0UJm79V4mKVygqZT6PZoS6IW0EfAyUcjg9SDhQsXSlNm+iEBiJjASUcwUkN4iXq49tprvZbGwZLOwAEjRowQJx/RSNqRioHh2OsDNqkKpHNQppFrR2gRPQVSPSAJiDCgSgWCikOGDHGQKIwJ0oK0DcYEaUWfmIqEBmsd05/ZfwhYhYH/sLA1QyBRCPD7ye+e/tYl6jzWryFgCBgChoAhYAiUPgRKDZGgtwanD0HAWbNmiXNJqHvlypXFmSM3ndlwCASqCCAeaJY/AgjcEd2BDgXGujrmkUc2adJEtBPuuOOOsNghbYhUINyfqA9sm222kXB+xA/nzp3rmjZtmkuHQBrl84dIgyeeeMIhcAhRoAZRAImhpSUhGogg4DzoJuQ148/nQD8LpEKQOhE0yj2q/gLbKXNJJAP6DkTDYODy0EMPuccee0yIF9no/6DfQHQE16h2rNeV+Pnnn4XognghwiIeAkWPLwtLxCqZMTUzBAyBxCEAgYD4on3XEoex9WwIGAKGgCFgCJRWBEoVkYDzwaw2zunOu/RyJ5x4siieNmvewpV3m4VM+O677xxl/cipJw2CGem+ffuW1vu71deFhoHqCcTTGQ4xkQmkLRA5AGkAgRPNED8sjAMNUXDuuefKixQVzkVaChEDkcb4a/molHgtkkTgOPrgFTTaEZkQNMpd8qLEJToMkFYQGJFGtAIkh1l0BIhGUAHP6C1sqyFgCBQlAkURlVAUfRTlNVlfhoAhYAgkAoENGzfk6rZmEqelrl7rS7b7kvdmhkCiEMjtHSXqLAnul9ld8vanTJnidtttNyET2m7XzmVv2Oyd2IquQb26Lr1qZRHHIxph8OAh7oOPPvZ5+a9LGSxmjcm3Z2lWNAhUqVJFqhcUTW9594LYZrIZxEVByItkG38yjMe0EZLhLtgYygICRJ0V1iAPtGLN1vRT2PPbcYaAIWAIFCUC1X01t0Ta9GlTE9m99W0IFDsCKU8kaEUBZr+ZCSeMnpnujZs2u+Ur17hNmze5zKx1QiQwM167dh1XqXJVd1i9+p446OU+/vgT9+67E9xCPwvK7LHlihb7Z9BOaAjkQoDIIjNDwBAoHgT4N68goouQBwihYmgsWFpE8dwnO4shYAikBgIbNmxMjYHaKA2BIkAgpYmEDz/8UCIRWnpRvwuPPd7t2KGTJwpqunXZ692qNZmuapU0CenJXr/BEd6TUS1d9q3375s0auiaNmnkWrRo4Wp5cuGF55+VfHrIhJ49Te20CD5b1oUhUCgELK2hULDZQYZAoRGIh7xTAoG2RB8Y6V5ouO3AUowA35PiMCXzEnGueH4PguctzL/ZiTiHRTIG74qtGwLFg0BKEglEH9x3330i6EfpPR5qNoWcjzzIdouWLnehUMil+eiDGhnVXAVPDFQoX8Gtycx08xct9ZEJVVytGtV9znuOoF4jX71hHy+82KBBQ/f9d9+IgN+iRYuk+kBhb4E+cHG8/bAVFkU7rqwiUNAHjLKKk123IVBUCOTlCPBvWTB1wf49KyrEi76f4nBgE+m8gkhBfvvz+szGQrY4zhFrDLqfiJ7CWrzHGuFXWIRL/rjVXijczBBIdgRSkkh4++233cSJEyUaYb/99pOqDJAHkAbLVqx2ldMquZqeRFChu/LlywmZQBuiFSpUKC/aCdycjRs3ufRq1dwuvXZxbdq0dm+9+bqEaiKmh3BevGYPXPEiZe0MgfwRKOwDYv692l5DwBCIB4EgER5P6oI5sPGgWjxOcnwjyUlJibdtsF28zivHmAMbRM7WSxMCs2bOSInLQY9hn72HpMRYbZCpi0BKEQkQAVRaeO/9D9zpo85yewwcJCQC8G/ymgjrN2ySVAYEFtd6XQRSGTDIg+z16z25UN1rJmx2azPXuXL+v8qVK3nF/2xX0RMLNerUcrVrZvgygAe6l7Kz3YQJExzlDDt37ix9RPtT0AeuaH3YNkPAEDAEDAFDoCQRCM7SMutMFII6jUU5C619FvRaC3KcObAFRdfaGwKlE4HJkye7Q4dtWzovzq7KEEgSBFKGSNjsCYDx48e7e++91x1wwAHu4IMO8ukKWaKFUKN6uggqbtq0ydWpVcOVK+dk+6KlKyQ6IdsTCWk+SqGqr9zg8x489CFPJmTJ8UQxaKrD5s0ht13b1m6Ir+rw2GOPugceeMCdccYZrmPHjrluVySBYA8uueApNW8SPdNWlA/oQdCDTkFwe+R6YWb+4+2bc8XqH+fAvjuRd8XeGwIliwDpC7wQYOT7zvfYUhpK9p7Y2Q0BQ6BgCHzyyScFOyCBrRNdCSKBQ7euDYGYCKQEkUAkAk7XI4884nbaaSc3atQoSVsghYHognkLFrsqaWmeRMjw2z2L4C3D102FfFi2YpWrnl5VohPKwzD4VzX/npSG1WuzJAVC9RI4tpzf37xlS5/q0Nu99OLzbuzYsa5Ro0bujz/+KPFc0dLu2HLfYjmftAlaUTq2wX4Lsl6Q2bJgv/EeZ852EDVbNwQMgeJAIEgeGKlQHIjbOQwBQ6A0ILDd9juUhsuwazAE4kIgJYiEv//+W4QV13jhEXQLVPuAKIP1Gze6CuvLe3HFiuHtXPk6X5mBag2ILpLOQHpDtfQqAsr69TmlWWr41AcIBSo8ENVA5ALkQnWvmbDfvvu4TRuy3dSpU92wYcPcr7/+KqKOdACpkddssjm2ArH9MQQMAUPAECglCCipAJkNqaCm2/W9LQ0BQ8AQMAQKj0D7HTsV/mA70hAoAQSSnkggXWHSpElu5cpV7qzR57pdeu8WholoBMgCtA3WrVvvFi1Z7mr5dQIPIAUo/1italWXuW6dpDF4WQRHVAKkQpXKlSXtYaPvH/2E5StXO9YrepHF6j6agRSJQw45xGVlZUlEQuRMuT1AhW+DrRgChoAhYAiUAQSIjtIIKQgFIxXKwE23SzQEDIE8EZj9x2957otnh0UvxIOStUlmBMon8+AYGyTCmDFjXOvW27qh++/nIwg2+qiBTCEGVq9d69IqVvSkQJqrUaOaJw4qCyGwaMkKn9YQknQG0hZIbaDNylVrZD8RDbynegPpEZSEJGqB6AQIhkq+T6xhw4aud+9d3YIFC116erobMWJEOFdUH6ISnW4gA7E/hoAhYAgYAoZAEiEAma4vhhUkFZJomDYUQ8AQMAQMAUPAEEgQAkkdkQBp8PHHH8ulDxw4UNIXiBSgxOMaTyYQiUD0AEakAetUa8jyEQgZPlVBUyBYIqoIUbDBvyAcVEuBYzds2CiEBNEIRC8Q0QDRQORC0+YtXPMWLR2EQc+ePR3jCEYj8PCEwrUJUoGkmSFgCBgChkBZQyD4b2JZu3a7XkPAEDAEgghkeT/EzBAoKwgkNZFA6ZbPPvvMDRgwwO2+++5yT9b7VAbEF6m9kJmV7Us4pgnBwM5M/+UlmoAyj5AJlHUk2oDtEAw1MqoJQbDeEwfoIqR7QmGDJysoHZmOfoLvVKIdPEkBiQDxkJGR4fYY0N/9OGumREd069bN1a5dW8bCn+ADFKSCqVyHobGVMoAABJuGOpeBy5XfHq4TUdZksN9//93Vr1/f1axZMxmGY2MwBAwBQ8AQMAQMAUPAECgjCCR1akN2drbrufMukl7A/YBEQAyRdITmTRpIOUeqMqCVQCnIbC+iSFRC3do1JEWBtitXr/WkwAYhEIhSINKgmicXKAO5ZPlKOZb0B6IRWGZ4AUYqRK7waRAY/XXt2sX179/fzZs3z33//feyPdofSIUXX3xR6m9r6kO0drbNECgtCCA6esQRR5SJsOaVK1c6iMTHH388aW7f/vvv7+65556kGY8NxBAwBAwBQ8AQSAQCPFfH+7zRr1+/Qg+hKj5CMVnVKjlR1cV0OjuNIVDkCCRtRMJ6L4D4/vvvu8zMTNewcROfypDlNnsPv3LlSqJ5ABIQA4QRQCYgpFi7RoZEJzBbCCFAJYcly1bKMbVq1AynOqCNQBuEGjeW3yRRC4osZAKpEBALpD+gtVCjRg03dOhQ9/PPP0uEBCUoa9WqpYdssQwKUm2x0zYYAqUIgbIUkfPnn3+6pUuXumbNmiXVHfztt+hiTyeffLJj3yuvvOLq1q2bVGO2wRgChoAhYAgYAgVBQJ83rHpMQVCztoZAYhFIWiIBbYSvv/7aHXTQQW6Hdtu5fxYt8U79ZteoXp0wIjnBxd7Z9wRDOR9FQLSxhhxDAmT5Sg6kNlSsWF6IiJx1r4Pg0xyyfLQDJR9Jk1jrKzPQnmiFrHXZPj2igkuvXdOfb5Nb7VMgNvu0h/oNGrq27bZ3334z3c2aNcvtuuuu4XHYiiFgCPyX5lNa/5GfPn263OYuXbok1e2ePXu2pF0RMUWVm7Zt20q6yYwZM9z8+fMl/erpp59OqjHbYAwBQ8AQMAQMgcIgEJysi4z+VbKhMP0W5phWrdsW5rA8jwlGQ6xevcYlddh4nldhO8oSAklLJCC0iC4CIoar1qx16b6awubQZklHQOuA9AQiChBKrOsFGCndSCpDOR9NgPYBEQxEK5CaQJQB79FJwCgNibYC1RwgEtBF4JVDIlQUvQQiEqjkADHBdkQa+/cf4H7wD+eff/6569ixo0QqSIf2xxAwBMIIJNM/8uFBFcHKW2+95Tp06OAaNGhQBL0Vvou1vlrNtddeK9EGrPMaPnx4uMM+ffoIkfD222+7559/3lWpUnxhmuFBlJIV/n1Qclovac6cOaKTgy4F5DYpeFV9mWEzQ8AQMAQMgeJFIEgcKKnw7bffuuXLl7tq1TOKdzB2NkOgDCKQtETCr7/+KrNpa7z+AQqokAdEFKzymge80Esg7YAogvSqleXWoZ2wctVat2LlGl+ZwWsheKKA9AYeBCENlq+k2kOW9AXBQCUHjDQIyAr21axRXdIa2M7+tEqVRNQR4cVtmjZ1O7Rv7376cZb76aefhOSgnZkhYAhERyDyH3nyG1Oxwsnff//teDi57LLLol/ov1v/97//OQgH2jb1vxddu3YVQrRatWq5jkMk8fLLLxdSkggCiIFevXrlaoOT+uOPP7olS5a4xo0bu3bt2sl+Ig1eeOGFXG0vvfRS17lzZ7fjjju66tWryz7SGUaNGpWrHX2SMoaILWkajA/ih+PUcJ7/+OMPX3K3tfx2vvbaaxIddu6557o6df6LCNP28S45N6+K/5bXDR63YsUK991330mZ3e233z4XScs4+Q3n3OD75JNPyngPPPDAYBeyjlMP9kRmtGrVyjVp0mSLNlk+Ag1tD0r68lmMJAo4YOzYse7mm29267xo77777iv3nRQ3DIL7zDPPFL2Mc845R3Ckos/LL78s++2PIWAIGAKGQPEjoM8b6BlBJMyY8b3bFMqJxjviqBHFPyB/RiIWpk+b6rr32LlEzm8nNQQSjUBSEglEI+Col6tQydWpVz9MIgAGhAIVGyALatWsLuQCKQ0YpEJ2lQ1CJpCeQLqCPiSiiyCzS34b/RPJUMG3x9Zv8FoJ/sETIoJ9RDqwjiHiyLGca52PTOjTd3f/oPqNlINs70kFqjoEDUa0tBmVKMwKhwCOilluBCiXiuk/+rn3Juc7nGlsn332yXOAzz77rMOhj7Rtt93WPfroo65NmzaySwUqecM+dAwgWGbOnBl2oCdOnOguvvhicVK1P3DDecZpxcmFqICMqOCjp9BDiDR+yz755BO3xx57yO/gP//84yADiKjCIDcgPTAc4jPOOEP6+uuvv+SYe++9V0iMq6++WtrgpN92222yntcffmM/+OADEaclFYQxn3XWWeKwX3HFFbIPQdqWLVtKF6tXr3bnn3++mzBhQrjLHXbYwb300kthLG644QY3depU9+abb7qDDz5YCGYao1UDWYBBUNx9991yPtnw7x9Ik+222y68ifeMhygO7JJLLhGCgvuAkCZ26623uvvuu0+IGcgbSAV0MYKkDONB5BKy5rTTThOiRw4uJX/4d0wrEEVeUvDfg3h+3yIJsmB/kFhmhoAhkBgESDMsCuPfrK2x4G9GtH7i+R2J1Qf9aj+Qyfwbs2jRIjfzuaddx047RTttiWzr1qOnmzL50xI5t53UEEgEAklJJPzyyy/ysNhn9wGugS9tFmk4+qKB4CMViDio6lMZMFIbKNtYp3aGlHTMzMz2UQnlJLWBaIRKvm0jT0SQ4oD2ASQDBMJaTxZUTkuTfngQzvRREEQ8sJ8XkRCch3SHVv6Bs2atOjKjRQgxM3pBSyXnKDhuWzcEEoUADzNKHpx99tlS2SRR50pEvzjkTz31lMzcR5vh5py0URJh5MiR4pjjeL/33nvulltuEcd8ypQpEi0AaYARVdC7d29JP4BoUOMYiAEcahx3nFkcfbAbOHCgkJfaxzbbbCNRC3pscElUwQknnODGjx/v0HV49dVXhUQgumHMmDGOmX/0Xkh/uOOOO9yyZcscpIGSrzjujKV58+aeeN3gPvroo2D3UdeJnjjxxBMFL/qkyg2EByTJM888I8dANNAGQV1SMnjow0ln5h+dB8ZMZQz9LYUoISIEAgDNBzCDDEFDR4kEyAYwHDx4sDvllFNco0aNpB1kDNeNQVaceuqpsg6epKhAEBBdQD+0YyyQCJQcpj+iIUgRWbhwoRzHH/DgM82SPjUCJNygFKwo9oW5lFjOS9ApCa7ruSIdBnUO4t2v7aIt8yM1ItsbyRGJSHK8j/X5Kswoo30OC9NP5Gc3Wh+Rn+dobdgWq694+8mr/4J8F/Jrm4zfE1LNmIzs1LGT2330+a5Dx855wZD02yEezAyBZEYgKYkEZujIP+3c0c/4V68mJRydL8tACsNKX5aRaIPaNeoIWbDMEwSQAaQgEFmQ4VMWcPwhBFZ5sgACgQdjiAe2E2lAhME6L8RIX+ggVPNiitX8Dw/bMT2WNnVq5VSCYDvHrltXwc9cdXdjnnxMfuiZ7SqND5Jcr5khUFgEeNjThzMeQpiFTlVjZh2H8oILLsjzEjRcHw0F2vGbU8n/JiEWi8N61FFHOdK11qzJKSuLw45DjA0bNkxerBOSf9FFF4mTykw4v4Pk5OvDMyK0lHxU4xyE36tBaJA2AUmg2ghUm4BI0PQKnG72Y6Q0XH/99VKRRh9ciRLAIBE4BqHGyZMnS/TD4sWLXf0o5K4cEPjD9XFejGOJMCCFg6gI3kMkqON+3XXXhTUetLTmuHHjwkQCIaoY0RXHHXecpBl06tTJ/fDDD+7QQw+V68XpBxeiEqi6w/EYZAPkQ8OGDd3tt98u2x555BEhHHgDQcG93W+//WSfltKENIHY4GEU4/6pQVJwHNdov/2Kyn/LWI5FrP3/9bR1a/qdidWL/k5Ftstru7bT74u+j1xuraMXq//I8xX2/daOM3jego65KM8dHEd+jm+wna7H0764Prc6JlsWDAG+7zph0a9fP4nee+/9DxJCIuzoCYq8jBSGsUnyvPP1tK/cPnsPyWuott0QKBIEkpJIYPaLUFMe2Gr6CAJEE1d69VJeWC2vY0B0gX+Gdo0q1xHNhBWZq6UcJNEJPMTzojzkkqUrJAKhXp1aElXA8UQWIMCIgGK2nxVDI0FJBPYTJos+AtUeiHCAQOB86CRAPPTt28d9NvlTcZSo3sBDrZkhYAg4cXh5AOeBkhn00vDwxWw6xu9RXsZvBkbePb89ajj2lF/EmFnXMozMvPM7BxEQNKIIcGyPPvpoIRGYCb/wwgvDTUixCBIJpFYRpg8BQf8PPfSQhOaTnlCvXj05jntBSoASDowxaDjLONxoLGBEFahBIjBbr8cSwcBDWiyDRCBiC9IAR57Ze8gE0hjoAyNCA4MMwNAYoA2Go040A2PSaACiMdCogLTZbbfdZMy0Vefl8MMPFxKBqALICTXSN4488khJIYEY0d9rwl6vvPJKada9e3dZggXXB7mDjgS/7xAKRIeoaelfPUa32zK5EIj3tyfedsl1dTYaQ8AQUPIAQio4YQHpnEgjNTovW/Yv8R3cb1EFQTRsvbQhkJREAjNNPOQxs4TV8OJhlHJEDLFh/TrhVAb2lf/3oZ0SkOv9lzvNO/0QBdhan6LAdtIW0DeAEOCl+4hwqO21DzKzskW4kciEdZ5YINWB6AXeo5FARQdIibVr18mYWjRr6vbeey/JnWWGzswQKMsI6D/mYAB5sDVh0cmM4zHHHCNOJWQAzjaz60QYEEqPM4wDygMMEQmkPJEqgHOMU00ePfsRgcKZZQYdBxdHlcgBogAgA6666iqBgJn1n3/+WZxtiAJm6nkxU855NcVCyQIICAgCdBq0PKVGIOhvlM66cY+ICOC8OOs471wTIf0YRAbGmNVZRngR415zHfEYApLaligAxBLRNSC1ARxUuwBHnfPTN+cjhYGUB7CDSIB0wW688UYhEViHDEBHgn4gnTFSFDie7Vz7u+++64YMGSKpG6RLjBgxQqIrcBw5n14nx0J6YEQYcA8hPK655hrZpn9IVansqwcp+cP9VQFGbWNLQ8AQMAQMgcQiwL8VGjFUWiYsEouY9W4IJA6BpCQSeIBmVo8ZNmzFqtWSblCvTk1JR2C+j6oL2KIly8Xpb1ivtqRALFu+yldeqCaCiRAENTwBALmA5gEEAcdCDkA2VK9WRc7BeSAdlixfKdEIlJas6h8YiVJgHOgpLF+Ro7FACgTRDBoaPHfuXK+pkCkP8TIg+2MIlCEEEGULzgSUxktH4JBceGbtVZwweJ3nnXeeJxb3FkcXnQRSEnhhCCMSUUDuPkaqAn088MAD7p133glHK+DY9u/fX8oKsg+dBRxiHGP0ElQbAW0AyAQiFjDK0GJ77rmnLPkTFHwl1x8dAAyCgZl69uPkYzjcEAY42UpOMFZIE7arpaWlyTaNDtDtkUsiJLRPIhkQg8TR1xl9Uj2oukCUwvHHH++mTZsmUQuQI5wT7QKcc8ZNegLjZMw48cGym0OHDhUMIUn4/KF9QDQGmO21115CRnBONBIgIEiXg6ThGr/55hu3atUqOYeSFRplQB9EfBx22GEyvtq1a0t6A9ETjJl/m7gujBQ4M0PAEDAEDIHiQUBFYOOdsJjiI+IOHXZM8Qzu37PM8GLsZoZAWUIg6YgEwn0R4eroxVHq1KnrSz9my0xd7ZoZUpWBtAZ0D1asWiOpBqQcUK2B6IWaGdWFdFjhS0DykEcUQfq/qQ4VykNKlHMLFi8TYqFOLdIZcogKohQyvQAj56rg0xkgHjTVQfZ5QmHTps1yPt+xfD7IE2ZGj1BYHmZbtGhRlj43dq2GgCBQWqMPgrcXJ598fma/iURgRlpn+5nVJq2B97xwkvn9IlIBwSdekYZjjYgiL6IQ+O0KpkNQGQKdA86nEQf0QfgmkQfBtuT24xgziz5o0CAJ4W/Tpk34lEQ+8Juqxkw/L/pm3BAbGvmlbZiVj5yNZx+OePDc2j645DeR8pSqGUHkQ9AQh6Tige4nggJMIQ8gK9QUR84HSRNpkCPB80AYINjINQWjBCAYICy07yA5wj2CSOjRo0e4e7B77rnnJDqDqhUY95XIETDhfhL5QASDEgrhg23FEDAEDAFDIGEIpMLzRqcuXb1A71v5YtB+R0uHzhcg25lSCCQdkcCMD2kNbSjZVb6iW7BkmWtQt7aQBYospML8RcvkIZwoBSIEMAQViSTIzFol79E50Adf9pGvjIYCKRBZnjioUMGTCb4N79E+oMQjuU9UdYBIqFSxohAMdFYjI11EHdFM4MG7du06bof2O/p83x8khNmIBIHc/hgCpRYBnG5eQYNkiDScVsL44zElMyPbQlYESQTdrw548L1GF+i24JL2kcewP/I6gsfktR5JOOTVLtr5gm0j90e7Ttqr8x88Nrge2U9ewod59aMpHxrVoX0TuUEaCboQpJVE3mPSGyyvXtGypSFgCBgCpQuBqlW2nAAoXVdoV2MIFB0C5Yuuq6LpSWfP6iKOSKRBuS2HSEQCAow4+0QmUA5SDY0DKi1ANpCuQCUHbNWatSKcSEoE5APEwYqVa4Q4WLV6rVR9IA2CtIjQ5pCkM1DVgTQIKkJU9mNBlJFoBTQTlq1Y5VXI2wk5oUJkOgZbGgKGgCFgCCQXAqQmkCahlRhURJNKG9GM6IpIEiFaO9tmCBgChoAhYAgYAoZAWURgSy+9hFFA0ZtSXRXTvH6Bn/lv2ri+kAGSyuDDgHHgiQqo44mCRl54Mc2nNkAsoIGwkLQF7/QTdYCQIikPq9dkuSXLVoqgYnVPBEAIkK5A2gPpD+wjPQJdBGbcOB5CAaJhpddG4L2kTvwr6sg61R4YQ7369STXVsmPEobOTm8IGAKGgCGQBwLjx48XkUsqWKAz8cQTT0jaAqkmZoaAIWAIGAKGAOUbY9l22+8Qq4ntNwTKDAJJRyTg3G/0egQ49tXTq0rUAdEF5L4u9qUciT6oU6uGEAKkLbCPFIT5nkQg1BWSgO28lExY7sUaqe7APq3ywDGkO2wObZaoBKo7qK33KRCbfVRCho9eoJ+Q/08NLQV0FxgDY503d57kROt+WxoChoAhYAgkHwIQCIhXkq5w3HHHOcpEopkQb8pG8l2RjcgQMAQMAUMgkQhs28anWQcsHqIh0DzmavsOOYLJMRtaA0MgSRFIOiIBde6dOndy2zRpLCSC4objjnNPpID37cOGo08phs2efCBKIEgIQDpk+f6IXNA0iA2eJMBW+WgDHiCFEPBEAekNG32kgegn+FKRkAU1M6oJ+cA+CATKT9Jn5cqVpGrEmlUrHWrfKrwWHpStGAKGgCFgCCQVAlR9eOWVV9wdd9whv9mQCieddFJSjdEGYwgYAoaAIVCyCPw4a4ab/cdv8vrz91+3GIzuYxnNdP+SRfO9QG+VXE0gIoL9R/Yx47tvXR1fLQjj3GtWr8l1vL0xBJINgaQTWyRvdePGzS5r3XoRN6RMIzP/y3z5xfp1a/lUhbVuqS/xWLd2TUlrINWBtIbGDetKZQWcfggA0hWyPCFAZAPpCJs8MYAmAikS6C4gvEiVB0gBBM/W+bb0RdoCqQ3V0nNSHeRYn1JBikS211tAf4ExYYsWLfSii0YkJNuH2sZjCBgChkA0BCCeiUwYMmSI/+2vHFWIMtpxts0QMAQMAUOgbCDQrXtPt2LpYiEBmNQcesCBuS58tz67e5m2nElJ9lOpQQ0SYM9Bvtyz37921Qo/KdrERUYx0H925mqpAkQloOD+nXv1dt9O+1y6o+9+A/bQrm1pCCQlAklHJCBciKI4kQdrfQRANZ/esNIzcqQtEFUAgbBk+Urv9K/0gPq0A08yEFWACKJ/40syprlFS5ZLZEF9L9gIEcDDI84/pSMXss8TD5ASaZ5EYB86C+gxrPQkBP1JCoR/H7RNmzf5t6GcNIjKCD2Wk7Jr/Aikp6cHm9q6IWAIGAKGQBIjYFFkSXxzbGiGgCFgCJQgAmefe0G+Zz9l5Kit2p9f/7H6zvfEUXYiEm9mCCQSgdzeciLPFGff3333nWvdurVr2byp2+AjAf7+Z5FEEFBtAWcfq+fJhIoVfMRBVrYnBzJydBH8dkgB2lAOEuJgja+usMmnPKhRsx0yolJaRZ8GkS26C7qPko/pPnoBooK0Byo+kCZB1YY1fh2hxrq1agqRQNUGaqEvX75capwTMmtmCBgChoAhYAgYAoaAIWAIGAKGgCFgCJQFBJIqIgF9hPW+fCNltzCiAxBHzPRpB0EigX2kLRBhgFNfCeLAvzDSEyAP6tauIfuo6FDbpyOgfwApQNoDZMK67A1SsYF29LV5U464IikR/pSSWoGeApoI6CVoqsPUqV+5Dz740C1Y8I876KCD3KBBg1xGRoac2/4YAoaAIWAIGAKGgCFgCBgChoAhYAgYAqUdgaQiEmbMmOFWr14tEQmLlizziQTlXIO6tT0hkOUWLF7qGkq5x0pCACCgqOTB/xYskXKOGzZs9BoHG0XHIK1SmhAMaCtAJkBK1KieI54okQs+YoHKDeynIoRUfxASgWoPVdzff/3l/rfA50h5EmHWzO9ddvY697///c8tXLjQExEVXPdu3dyAAQOMRCjt3xC7vmJH4Kuvvir2c9oJDYGyjMDOO8cueVaW8SnotfOc8Oijj7qTTz7ZpVLEIr+9vEaOHCnppAW9bmtvCCQTAjkpyck0ouIdy/RpU4v3hHa2MolAUhEJaWlpojdwySWX+DyF8qJ7QIEGSABMl0QTEKGQo5tQwXXxQifrvUBjZa+HgKZCWiUEFMtLqgOHrvhXgBFSABIAIoGKDb///rsvKbncp0N4/YSa1b1AYyX3lycQEGJcsWKFF1jMdO3abedJhTlSNiwrK8vtuuuurnfv3q5NmzbSXgZmfwwBQ6DIEDCnpsigtI4MgbgQMPIuLpjibvTee+8JkdC8eXM3YsSIuI8r6YZPPfWUe/vtt92ee+7pdthhh5Iejp3fEDAEDAFDIMkRSCoioXPnzu6cc85xS5culSgBIgV4QSAE13kffJGKkFaxvPvum6995EC2EAWQBfpCuBHNBMgD3cayUaNGroInLDZv2uArOqx0bdBmaNlS0iv69Okj7evWrSvHdOjQQVS+OQbCwcwQMAQSg4A5NYnB1Xo1BPJCwMi7vJAp3PbffsspCzdv3rwCd8CxN910k7v77rtd9erVC3z81hzw008/yeH//POPEQlbA6QdawgkCQJMupoZAolEIKmIBC70uOOOy/d6I0kFJRhYQiIQTcA6worBV3CbrvOPNIQC73nV9mVbIBs4R7169SR6Id/B2E5DwBAwBAwBQyCFEfjyyy9TePTJOXREozGeJwpqf/75p9dh+sB99NFHbv/99y/o4YVuv2bNGse5MZ6LYhltIUr69u0bq6ntNwSKFYFPPvnE9evXz/XqtWuxntdOZgiURQSSjkiIdRP4B470BF6RVtzsfeT57b0hYAhsPQJnn322w7nZZZddtr4z68EQMATyReCLL77Id7/tLDgCpE1iW1MaeqWPkixOC0ZPxDPuQw45RKJHb731VnfYYYcV51DtXIaAIRAHAmm+Qp2ZIZBoBApOlyd6RNa/IWAIlGkEIBDuuuuuMo2BXbwhUFwIkEo0evTo4jpdqT8PUZFr166V66xfv36BrpfjEGrEnnvuOXf66adLVMLBBx8s7wvUWQEbr1q1KnwEEZmxbK+99pIm559/vkSCxmpv+w2B4kLg6quvdkQlrPffxbJoiNHP/P4b0X8ri9dv11y8CBiRULx429kMAUMgTgQs5DpOoKyZIVBIBO68805n+gg54FGViRTHSCPVEXIgXtuwYUO46bbbbhtej7Vy3XXXufbt27vLL79cmqJX8NZbb4kodK1atVzVqlvmOiMK/dlnn7nFixfH6j7mfkpvq22zzTay+tJLL0l0GG/mzJnj3n33XTdr1izZd/3110sKxvjx40X4Gk2He++9V/ZF/pk0aZJT/QXdl9fYEbWmH3QasG+//dYhXhmMmNA+bGkIREPgyiuv9KlBH3u9s/++i9HaldZtGdXS3Z4DB/rIbXPxSus9TqbrsriXZLobNhZDwBAQBEhvICrhxRdfNEQMAUMggQiUtWiEX375RSoqXHrppaKLBLQ4tVRjuuOOOxyz/2rvvPOOu+yyyySEf5999nEnnXSSrxLVRXfLEuJgwoQJ4mi3a9cuLFJYrVo1182XiQ4as/44/tOnT5fS0bvttlu4DRWjgrbvvvu6iy66yDVr1iy4Obz+wgsvuGuvvTYc/YC+1FVXXRXeH2sFUWuIAVIounbtKqW3OWbw4MFh0oL+9thjD/f33387Ig/U0G9o7cWp27ZtK5tw/sEOYxzBNNPZs2e74cOHu9133909/fTT0ia/sc+dO9fddtttDqFrSATIDAw8f/zxR1m3P4ZAfgjwuV3vy8G///4H+TUrtfsmT54k18Z3zswQSDQCRiQkGmHr3xAwBAqMAOkNzJQyY1rWHJ0Cg2UHGAKFQIDvVlk0nP6XX37ZDRkyxA30s3aYOqgslUggIuq0006T/Ti1lEXk9eCDD7q9995btpOKcOSRR7rvv/9e3vOHthgkASWq1dCiOOGEE8KOP47xww8/7F599VUhH7gfzLojEk3/kBJ5kQgQrJAMOPKkP7zxxhvuySefFIcdBz+W/fzzz+6ggw4Kj4X2Om5KXKtVqVLFIRxJ/5SDHDlypJAELVq0cJAH99xzjzv11FPFySf6AgFG9CF22mkn7cLdf//9sr7ffvvJMtbYKQOOPfroo9LfoEGD3OGHH+6IyjAzBOJF4Ibrr3NrMrPcww/kRMmcMnJUvIemdLvp06a6k447WsQmjUhI6VuZMoO3uJeUuVU2UEOgbCGgBEJZdXjK1t22qy1OBPQ7pd+x4jx3SZ9LSYM2bdqEh4JDj+E4q913332yihP9zTffOEL4cf4hF1TH4IYbbhASoWfPnu71119348aNC8/SL1q0SLuSsP4jjjhC3j/11FOOWfqHHnpIHHk9D7P422+/vatZs6a0I0oimi1fvtxdc801sgvyAEdb0x6CkQDRjmUbRAWRFZAgxxxzjCPqgln/devWySFLliwJH9q4cWOJRmAJ4UEViQEDBghBQjrFAw884D7++GN5f+aZZ8pxf/zxR/h4CAtIG6I9IGjiGbsSGpASRIFAKED4dO/ePdyvrRgC8SBwz523uz33HChkwsnHDZcljnZpM67ptBOPcV07bOeee+oxR2oH30siM8wMgUQj8B9dnugzWf+GgCFgCBQQARwdnB5eZdHpKSBc1twQiIlAWSYRAIcy0ViTJk1k+eGHH4owG2+CZQ8hD3Bqd9xxR2lHSgNpDhdffLGbOHGiRCI8++yzjpl4QvWJPsAJV20XwvJ5j3ChagfgVGt/kAAYOgi33HKLkBS814pUOk62zZ8/XzQDSJXgXCrmSNSDGpERDRs21Ld5LmfMmCHkAO2VkECYTvskYuPcc8+V4xs0aCBLoh8gUYKmpIUSB5Tbw6ZMmSKkARELpKhhN998s5TCjGfsGRkZcgx/LrnkkvC6rRgChUHg4AP2d/8sXOIQYMSYrce699hZlt169Mz1nje6TXYk0Z8fZ34no/nqqy/d9Glf+XShfu7GG66X6IMhgwe5m268QdaTaMg2lDKAgBEJZeAm2yUaAqmMQJBM4DqMUEjlu2ljLwkEcG61EgrOXVkurVqjRg25BYj/tWzZUmbtIAzQDEBwEUM3AMeaF07+BRdcIESBOurs14iBHj16yL7Vq1eHHWcN8//ggw8ckQg46pyD9ACEG0kJQGcA55xz0G7o0KFybh2f9s9G7tmaNWsktUJFCBEg/OGHHySVoHPnzn7mdU85PtYfrhPr37+/LCECIAowxv3bb785tpEioekEiEBGmu77/PPPhXioXbu2IzKDqAyiDyANwBiyonnz5nJ4vGMHKyIkmjZtGnlae28IFBiBxg3quofuv8fNX7RUZusXLF4W7iMYofC1d84xlsHt4cZ+JT+SQckJbV+1Sk6ajr5nWaVK5eBbWY8815TJk2X7gAE539FPP/1UNEbYCGFXp2aGS6tUyb8qynsiENhuZgiUBAJJSySgnkzeIYw4MwfBmYKSAMrOaQgYAiWHQJA80BnV4Gh69eoVfGvrhkCZRoB8fIzSjlqVwYRLcz4ShOaTrsCMPIYjj/bBiBEjJNIARx+nHVMdg/fff9917NhR0hfYjsOtM+dEFLDOwz5OeJ8+fSSCilD8MWPGSH4/v0+QBZqzjHgh6xAUhO8///zzYSJBZ/6JHGBs3EuIIMaH4bBjREMgthg0TU8IpmgE97OuqRM33XSTiD7SD+eBrCDiAWFExkP1CI2OII1hu+22y9VV+fLlHSkPy5b955SNGjVKjj/qqKOkLc4N/akVZOyMiagGTdvQPmxpCBQWAQgFTJcQC/vsPUS2oaeQH0mgzv4MX1YRm/plzm9shQrlw2UWf5z5vU/9yXH+aROvcz/Ip18ETd9DQKopmUBkBcSBpS0oMrYsaQSSlkggJJAvTJ06dUS4h4ch/iFPT08vaczs/IaAIVCCCARJBYahocTqPJXg0OzUhkCJIqCEGsuyHHWQ30048MADRePgkUcekYoE/J4wWXH88ce7W2+91aFtoOUecYxZp4oAOfvMlJPegPOPoTGA5sFjjz0m73H2ccARDIQkIJqBSg1XXHGFRDswQ08fp5xyikNTgPSAQw89VHQEcMh53sHQFGCmXyMBIBc4BmNMX3/9tVRAQJyRtjj6U6dOlSoHCBNy3rwMIUQiIxiLakOg9YDzT6lLCA79TVXhxrwmckit0AgHzte3b1/RX0DXgOgEIi8gHNTiHXuHDh2EmIlWjlP7sqUhsLUIKKEQTz9ddsypUOJcDkkWeUzQ6dd1XUa2hRRQU3JR37NUAoKlrgf327ohkEwIlPP/cISSaUA6FkR5KDcE288/JrD75CjycMR6o0aNChylgMgQMw2EDub1D6Oe35aGgCFgCBgChoAhUHYQmDNnjqQ7EDFAZAGkwIknnihh9mgW6Gx+EBHKNpISQSWDbbbZJrgrrJHARh61ICkgEoLVHNhH35UrV2ZVDCcfwgJyAeKD6In69evrbkm9uP766+X5iJl7jPQBHHkqK0SOI3zgvys8UyE6yfMQpELwunhOInUDUgMSBc0DnJ1oz0y0JQpCoyj0PIhRRrtO9tN3rLGT1kF6RWT5TO3floZAQRGg7Otrr70WTuMp6PHW3hAwBKIjkLREAsPlHxLyCAlDJPSQf+wIKYQFp8YyZYoKEqFAqOCkSZNkNqFVq1bREbGthoAhYAgYAoaAIVBmESCXn6gOnHkqHCSrQQhAeiDoqOKHyTrWyHGl8tgjr8XeJz8Cr7zyikT/QH4Fo2SSf+Q2QkMguRFI2tQGYCOsDuJgw4YNQiTwDzpMN8QCYXyw9MOGDZN/RGPBzGwAbCQhfBxL2SL+4eVHRfMAY/Vh+w0BQ8AQMAQMAUOgdCOgKQZBwcNkvGIcIgQjU9FSeeypiHdZHzPP+hgRNAWZgExm3PBriPBR4dNYY50+fbo7+eSTpcxs165dHROqlMElKqmSF280MwQKg8B/yWuFOboYjuGLQkgdzj7qx9ddd52UX4KBR2jo7rvvlnDB4FA4hlBDahgT1UB4INv23ntvqbk8a9YsqeMMkz9t2jS3fv364OGyzja+oLDmZoaAIWAIGAKGgCFQNhBArJDQfKoimBkChkDqI8CEJFaaJg7ReUEJsKTUAABAAElEQVTAlAjt119/XSZd87tTTJ6SrvTmm2+68847T6qrUPEFTRc0UmbOnJnf4bbPEIiKQFJHJDBiHHl+APjywyg2a9ZMchYR8kG9/Y477hBVX+oek2NIe+o/jx071s2dO1dy92DbECzp1KmTe/XVV2U71SDOOussUSeGpdPaznpOSitR+5lazwgxQUTwBYSggGCgfTDPkfNCSvCiHV9OxhiZOxj1LthGQ8AQMAQMAUPAEEgaBNBimjhxokMDAf0DM0PAECgZBHj2f+aZZ9yECRNET4RSqx9++GGBBqMVTYJaJAXqIAkbH3LIIZL+/dJLL0nUNn4NEQcnnHBC1Eildu3aSTW8p59+2l166aUiaIqILFVpHnzwQfGHxo8fH64gk4SXbENKQgSSPiIBBx0xIYgEZRQJicNRp6rDwIEDpT422gc4+4gZIZAEwfDrr78Kw4Yy8amnnipfFkQc+bIRxqMlnnD+gwZRwJeM7ZQfYgyzZ892Rx99tKRaEBJEKSTqJWMQB3z59tprLzmOsiywe0OGDJEvbbBvWzcEDAFDwBAwBAyB5EbggAMOkAFS0tHMEDAESgYBCACerY877jhHFQRm3tFOQyy0IIagqZZsLchxydyWqCkmTZng1GsjapuUhWuuucZlZmZGHf6CBQtkQpTUcXyom2++WXycHj16OH730IgxMwTiRSDpiQTIAdIMSG9Qx5+L4z3RCRdeeKE4+hAHtENhGHaNL8Ttt9/u7rvvPkmFIKSHUkSUJeJHiGgCnH1ICdRc1fixgRQgLQL9Bb6Qv//+u9tvv/1kO+rFqCJTnvKcc84RkgPi4fTTT5cvLYQF54ERhHzgHCzNDAFDwBAwBAwBQ6BkEWB2k3/fYxnOC6UdiWY0MwQMgZJBgMhhnunvuusuhwPM7DuGeGJBjAnBYHWSghyb7G2ZHCVKg0lUKs/gf1x55ZXy2zV//vwthg85Q/ugQUrgL2HoyJkZAvEikBJEQtWqVeV6gg4/GyABmjZtKqKJRA8QuUAteYRUSHXo37+/pBfAZCK0SC1noghg8CASqPrAF5C8IB4u+KGBNOAL2LhxY1FshrwgwoBZCTQWEHqkdjT7qQ9N/WZqOqPDQJ4SKs/Uheb87777rvRVWn+84v2QWTtDwBAwBAwBQyAZEJg8ebIbPHiwI6UxP2OyAhIhmMKYX3vbZwikCgKIljNzTQRvMhuTcOgAnHnmmZKKzHfyoIMOktl30hwijajlb7/9ViqZRO7jWZ7S74k0fIJ4SMpoY8D3YEKSSOYLLrjAff7559Ga5buNiVfSsB577DHxhUjLosrd0qVLox6H36NGVANRDBgCjGaGQLwIJD2RAFlA+A3pA1999ZVcFx9+fgg//vhj99BDD0mIDjoIEAH8MJK2QOqBGj8+CJKga4BTzxed/siV4kv75ZdfCoGApsLFF18skQ233XabVIOgZOSLL74opMVbb70lx6N9gFAj9Z0bNmzo5s2bJ2IlEBeEF0F8oKLavn17IRfiVVTV8drSEDAEDAFDwBAwBIoeARVX5t97M0OgLCKABhjRuUx2JbM98cQTMrwzzjgjPEzSnCEXiFRQI4SfVGdEA0k9xpnm2Rz/QI0ZePwAtb59+7pTTjlF38oSsgFtNHwJTJf4CGivYTjnnEsrupAG/fjjj4uz3qVLF6mAwPjUaEe1OMrJolFw4okniv+h+1mSco3/QDU5CIRbb71VJjo5T9DZDx4TXFf9B12yb5dddpFy90x2UvEOkkENnDAirSFm8GmYlH377bclDbxDhw7a1JaGQEwEklZskS8PDjpffogBmESiDmDaSCuAMCD85rvvvpMvAUwePzBEJUA+sIxmVHuASICh40eFmQkiFFAw5Yfn008/lS/dwQcfLH1AVtCOLzjkA/lZfOkHDRokP0J8ORkj54wsn8I2jaaINhbbZggYAoaAIWAIGALFh4A+mCuhUHxnzn0mohxvuukmqTxF6qVZYhBg5p1I1bZt2zrKevJMhnPHsyPPbDzbIahdlkx1P3jGTmaD7GNSkHsXNCq4BQ1H+fnnn5dNTALiFD/33HPutNNOk4hh/AZIAp3UI9yfyCR9r30R5UD0AxOMfD4gItBYgwTAiDweMGCAQ6CQz9KoUaMkAgLnHz+C7RjHIHqInwFhgZ4Dac9MZnIMKRpMTKqRrsG9oBIdUc38NiH0ziQm10DkdH6m+nGRmggQFzfeeKODiCGie/vtt5duVHAyWlRHPx+FZWYIFASBpCQS+IeeMB++VDBsfKlgBinlSA4Q+/nh58cCvQJSDviy4uBTtgmLFsqDY4+uAku+eLByhP1wLAwt72EFSYEgioFz8sWEoCCVgXZoHkAe8KIffpwQZOR9sv8oF+SDYW0NAUPAEDAEDIHShoDO2pW0847T8cEHH4hm0/77778FzOznmYLnDrPCIcBzHjPvWF6lPAmfL2tEAk4yxjNsMhsOL6LpTBzm50zrDDtlDUkxxg4//HAhiZhkhExicpG0Z4wwfoz0ZjWe4YlGwLbZZhv3ySefyHcTrTQ1+uR7SeQxFV0gBUhn+Oyzz6QJkQSQU2effbb4LqNHjxYSgTQqIiU0qoGZf777CB1i33//vSxJacC4HqIlIiMmZGeUP0oMkNYRaUQbYJxDiQRNt0YTgcgFiA2IFUg1SBomT5ksNTME4kEgKYkEnHheOOg46nzoURKllCI/BPXr15fQJZhKGDf9EYFEgC1E/DDaPwx82fhHmR8CIhMwWEUYO/Ig6Rc9BM2jYhtpFYyB7bCDHMePrxIN/DjxQKJjjgd0a2MIGAKGgCFgCBgCxY8AzxWY/jtf/CPIfUaeV6IZpd2YEME5Oeyww6I1sW0xEGBCCiNUmwki1OiJaAVXnht32mkn17t37xi9lL7dios61sl6hUwUkiaA8CniioifRzONBqZd0GbNmiVvEVGHQNQZeyURNTKDRvfff78405qerP0QCQ2JAZmB6CN+ANHQzz77rDQh1QEjcoDIZj0njjslKyEbIBGY6Dz//POlLX8QiiddGz+DzySmvoy8KcAf7iP+EBHTalwrkQ5MvmKtW7fWXRJ9zRsmSLt16ybb99lnHxkTZAPXZkRCGC5biYFAUhIJOOrkOPEF4MsAkcCLf/j5AciLReXLBGPIPw68Ig2iAeZ/zz33DEcuEG2AlsGrr74a2VxIC9hNWE4iFqgrjdAibCXREdSx5Udk5513lhwpZf626Mg2GAKGgCFgCBgChkCJI0CKIqbl0kpiQExAoPOEEYJNDjZh3DhE5CwT+YhTxAM9zgfbTPSx4HdK1eeZiOI5zSynXLmm/jJ5lsxGmXeev8nlZ1IPXTIcZp67uQYqp/Xzofg8exN5gv4ABBypKzjxRA0wUYg/gZOuxAETkFR2Q9uAiAJetOUcTDSSCqPG5CTV2hBhR0MNHwNigkpxEABEDXEc7zH6xugDAmLMmDHib7zwwgvSlnFCZF100UUyQUpKhqZZsZ3qCfEa0dlE1IAFn/FbbrlFiAtIDKJOSLtmDPg3+C9ou/HSlA7WgwZZAtGqUVvBfbZuCOSJgA/nMcsHAZ/eEPJfrpBPswj5H7WQJx5CPvog5P9RD/moh5BnIUNekDHkfwhC/kudT0+2yxAwBAwBQ8AQMARKEgEfvhtq3rx5yDsMUYcRz7/j3oEI+dnEkHciovaR30aeJTh/5MsLRoeOP/74kH/oDx/uw7pDPhw6/D644gmR4NuErPNcw3UyjqD5fGt59omGIdj4mdGQTysIHhLyqQVyLZHj9rnlIe90SVvvFIV83ra01YPZ5h03fRte+kjR8HpeKz6SQ3BWDL2jFvJO6BZjy+t43c7533nnnZB3JkN77LGH9OkdRN2da5kXZsFGYOPz5gWPaNembSOx0u1bs/STc+HPniewwl1x37gX3jkPedHAEJ9HxS3cqIRWvGBgyEcFh/zMPoqBIe8ch3zKQcjrncmIwNxHL8g+9vPyaQshH8UQHrHXO5DtnkyQbV7vQPqgrZ9MDD344IMh70SHfKh/yOsThLyGgbT30Rshn5oQ8hEE4c8NnyOfWh3yRFXozjvvDPlJxfB5WGEsPq0h5MmJkCcspR/GTp9q9Me5/cRmyOsyyLonE3V3XEu9Jr1mXXpiI3TssceGfPSEXJN2pvhpO67bl4qU350+ffrIGMCW75yZIRAvAuT2m8WJAD/+fMEmTZokP2CeBQx55s4IhDjxs2aGgCFgCBgChkBJIuBn7cSRwnFSwyH2ec3iQOHgDx8+POQF02SCQNuw5BnA51GHHTHa3n777cEmsu5zsEN+plEmIHzIdIj3an7WNNfxOB1+ZlB357v0M6chP8Ma8rOw0sfQoUNDXhFeJjuCB+L0MsGB+XzskNeCCvkQ6xATI/GaL2stxynh4WeFww69F7ST83uxyC2686WvZR/HYz7yIqQOPX3hpKozx34cVi8GJ06snoslDhykAuteLI+mYfNRGrI96JiFd/674melpQ3H+4gOOY/2D37xOm0+fzyMN8czXsgEHzYeecpQfphpY0gZL/IdHpuPlAjNmTNHd4cgD5566ikZM+djrH72OuRnmcNtWPEzziFfdUG2/fTTTyE+C/TrQ+hztcPJhti5++67pT1Eil6Hkj0QOVyX4sM9oi/IjmSz/Ig+rgcnPxrJBA5eTD2XYx3r2hSfaO3yI3mCY+S8jCmaQYT41KYQ32uvmRCtSb7bfMRBiO8ixAfXxu9YfsQUv10QJRANSnCw9FEe8jm75JJL4v4tyndgtrNMIWBEQiFvd0H+QS7kKewwQ8AQSDEEeOhkxpGH51Q1HKNozlFxXU9pwLC4sLLzFBwBnysvDhMTARizlupA4dQRZciSbThnPq9e2vFvvjqwOF3MKKrzFXQEfU53uD912LwgdIiHfowljh8z9OzHwYtmzBzjqOMQYxADOHg6Vi/EFqJf3rPd53KHu4E4wHnHsdX2LL0oXLhNfiszZ86U47g+nFrICo5nhhPDMeU9s55BY6KF7ZwfBwonSUmPm2++OeTDzWW/L90XPoyx057jcF7pmxlenDglLMBKzSvuS1vaaySD7gsucfSCeDEOny4bghDhWO5t0OELHhtcv+aaa8Lni3Tmg+1iYUZbHHP9zEBW+RQW6RvyBYMEgPRgfLyCbXgPfmq+7KC04fcyeJ3MkKvhUOv1ap/a1lc60GbhKAvwT+V/u8IXZCuGgCFQbAgkt2Srj79JVkNc0cwQMAQMgSACqVKfOzjmyHXyJMlLLSkrDRiWFHZ23tgIkE+MqbAZudEYCuqfeKV2lMunTJni7rrrLinthmq7fyITnSRKvJEPTbk3SjfSFpEyRJsxhNhQiPfOmrQnl9unK0jFAO8gSxt0nhA0U+V08rmjGfXf6Z8S1Bg6Cn5mUwTSWKc0Herv48ePl2uhZDVighh6Ct6xlVLWvCd3HCN3Oh670ueDY+R9o9egeduaW801e8d0i/48ASnHqXo9Oeh+ltR5wkG0Htq0aSP7FS/eIPhGrjZLcrnRsSIvnWsAPyxY/u/666+XbT4UWxTn5U2UP+hfgQ+/Zajlg6MnBdzLL78s50LhXkUHoxwe3oQ+BULfGBUA+LzweYi0WJjRHuE9Pn+emHFPP/205M/Tv1YP4Ho9+SNd81miDToZfN64Xk8eOC3Zp5oZfL74XIwYMUKO41rVOA/3HA0BPn/jxo0LY8nvvBqlCjFPcInugAoG6n5bGgKGgCGQFwJGJOSFjG03BAwBQ6CACKiYU2FKwSJyhEq1n3ks4FkL1tyHw4aVnKMd6Wde5eGfZUnY1mBYEuO1c6YWAgg4YzoZoIrvlJvW8tE4aQi7+Rla+S4gjOhTGuU46tSrQ+1nucXZR7jRz4CLo4qDjdAbomt8p5944gk57o033pCl/sHRxXwosm5y1LenVBymyvIIO2NVq1aVJYJvON1qkBYoxmN6LOPFYcXBZLzUpocMgFyIZfShzizl5yBOcN5Z+pB+OZyxIwZJ/z4KQbZxfbxwaCkpx7VDxmAIzrVs2VKE6ngPOaGGGByG+Jw67LpPSR8V2MaJVhxxqmMZOHXq1ClMhNCe6l1HH320HOojSWSZ358dd9xRVPp91IAQHjjdPppBSCclFOLBDJKH3zaE+/T6+Zz5CAL5rDEG/fxBXvXq1Ss8LAS+ue+YlhqEaMIoa3nooYfKZw+hQe4d4/IRHUJCcN8Q+kOAHNFBSCgMIsWn98g6VUEgz+iHMoCUVIf08KH3st/+GAKGgCGQFwJGJOSFjG03BAyBUoEAM9yqqBztglBRZuavKGxr6nPj4DCDxqxnIg0lc2a6cFqimT7M5jVTGu2YotxWEAwpqcUMYdAZK8qxWF+lFwElFHwIvlxkpFI5ziGfLZxRyj43a9ZM2hG1EO3zxqw6ji+zvxALONk+91+24SDjwGnEAB1p+cng94z685Qp/H975wHmVJXF8YvYsCMq2LArKth7BVTAsqCACrgKimVtKIqKgih2BRv2tqigiwWxSxMV7IrdRcXee8HeyL7f+fa8700mmWQymSGT/M/3Tcp799137++GkFMv4sYKvNGIjzP93iiUUQ0Ba0OkA+ddAef+KIcYTaL0gViJtMZZHnyM7DFPRAFe+CgtwTza7gXnUqIGEM6h3KJ4YqxgWzvEt7XEGEEUABX2MWhgkEluRefzZPesdPFtvKdNm2YK87/+9S9rwm5aUYpAevMq7zHsRAX0zMuePIGBgygOBAU9H8GoExXEs8gGjDZ4+ftGO3hFqQc2z3yYucEEwwue/0yC8o+kfxZ5z/aECIYRJEppsGeMNuxMwBpTmZ+1x0Dinyt2J2DdqODP5wvBuIBEefn2zAOfb4xO/H8JXww2GNKIsHGDSdxYL0RABETg/wRKcvtHrY4IiIAIFIsAWyLhCeKHYPKHsPePhx4vDh62bPtUe9tczx4qW5f9uVGOG0L4oZ/0bPo9fez+o9aPN9RzbRgSqky4LuHBGIvcy9xQY9V9Gh8B93oT2o3Cz3bQKE8ohnh0iVDAW8sx2rI9I98bHn4+atQoU7DxGOPdjvLQzfvO54/27HfP9w2fY5Q6FGgUbDzonON7CPFxEIFEO7aLw9jgIep44fn3GVWXt/ZEPwwfPtxSBIhSwLhB2gDbxyEYQ0kBIBoBITIiqkVgr3lo166dGQNQZGv6nmvevLldE9VusDB6Uj5cUM5RalGs2U6RaAiiBDzcPipQGUdSwAbhGBEAybFwnO8f0js8MgODCFv7JYUt7TB6Rvn8ycO21V2VAxneoGiTfsIf9yY1ACMCyjLrs80228Rb9WW4PD4ET9IHWLdOnTpZ5ATjIdqCsZ1++umBtBIkFzP+j4FVly5dAlsbEiGAQYvtB+EcVdC3Nec7DS5EtWCQigo72jOfUaIHEP9cYETwqBo3rkT1MixFhHZRQUr7nEfF+GzecCAKAqMDkSJsZzhlyhQzYEc7DYS2bdua0QLDEOkaGNpZF78vfUpEQAREwAnIkOAk9CwCIlB2BEgx4EcjOb2ZjAhMmB/fGBLcg1MoBH5kuyewtvtz40V0rxYez0GDBlnIMMo8obX8WKyr4FVijm6ooE+Y8IObKAS8hSgGbkiICpHV9Za1vr62DPlRzI9u/lBWNt1001rfUxdUFgEMAChmKO54xjEeEE1ACoJHLqHkk2aEx9m94ijieLLx/pNv795cjAQYGVDsUea5Do813ytcj2EAZRGlLdpNITYkQB1llogD98ZzXzz4LkQRoEgieJGJEsAwSn0EF1Iw+kU1CAhdR1q2bGlRDSiEXgeC49QeQIHM9T3HPVGaMZig+GKk43uI3Hu+mzBuYPDAaIcyTRg833u0x/vtgkEiKtRoBhoUZ5RxDDeE4hPBwLwIo/fohExGQP498z1FZAHecdaJKBHGmEui7fksmgJPPgo+fy4o7FGF+qz/J3g7nvkeZMykNLCmGABQ8j3sn+iCfJnBKCrGaZ8jPiP8IRgA4MD3MVEgRKUQxeHiUQdJow5GJXh4dAFtWXO+w2HLdzqGB9bAI1b4LEYFJ+1zceKJJ9pnCSMGc+TzzB8RNRiaWHOvURHtNOFD0bMIiIAIVCHQJPpxWb1qTJUmeiMCIiACjZMAP97xqvDjLPkjLDkbfiDy4xRlNKmI8tXID6xsBohkH7zG20VoMYKigscuH8Hzme5x8+v4AckPQ/KHk8KPPLym/Fjnx20uod5BVL3bfhCnt8VzSbgsBdm4Fx4owln5sc+P8XyE4lyEXtOPexjzuS69TSaGKC38oMVzhhEEow+eTBQnFCU8y3hooz2yrR3KTVRdv5rXlR/XzAnFJ7mm2cbOGsKGNSBUGMWB8F8MOwj9RdXlwzPPPGOKJZ5avNcwlJQuAf5NY0Tg3yrKvwv/3lGq+LfC58vz8v18+jP90CZdAcYYRu55q1at0i+xfyNJ5R4lFAMe3mUMAr179w5JIyT34HPl0QveIYo7xxln8rPs57M9M7dc8+JaWGC04DuRqAcEgwlKJkp40mDAWJgzY8kkeOBRZPl364IBBQMFnnzGRH4+tQPSWXp7nmHK9zOGHy/qmDyf7TWRDqRGEImB0s13lH9PZ7sm/TjRJfCYMGFClVPwwCDBv/naMKMT2vOXbT34PiUdAcOu18eocvMsb9LXmO/OaPtRi35IT+WAqf8bIOUk2h7Q6kEkuybNAcMGBiqJCIiACKQTkCEhnYjei4AIlA0BvC7UHCDf2X8wpU8OrzaeHXLzPawXzyE/8FEWiWZA0U9XEFHm+ZGMkkkIKl4l+uJHP+HKyR/4KCgosYwDrxweLDda4AnFu+TCj10PU0724efpg1xXxozgISNkOqmgeFt/Zqy084gJjlO8i3DVZAV1jvt48D56CDQ/aBl3uqDEEwKLso+gbKCAe3X29Pbp7/NhSI42HmD6Zbw+BwrAedE07xcFA68fXmHP1fZzRHng5XODUa6x4yWmuBxrimHCBaUE5QQPq4+FeZMDjcfXw4u9vZ5FoDEToJYKofPZvj/znRuREPx7IaIhm/JcU19EYRCdgLEun4iEmvoq9BwGE1IdGD8Gn0zfz/RdLGaFjrMu1xEdR5Qa6Sv8f1jIWtXl/rpWBESgcRFQakPjWi+NVgREoBYEUPgQFL1MgicbhZzzbkRAKfYq6BynACJ/hNfizUb4QYz30ENTOeb34Edu8gcm3k+8eK50Ymggb5itzlA6CT/Fw4fyjXEBhTSbMkqILZ48+qDKPJ4mfmDjKcNjn01QBAhbxVuFIkx4Kx79dCMC13uxRTyeKPpEJxDZQU4t+die+4xxhHvisUTZJwScPHA8d16tPdt4OJ4vQ8ZDW18T6iLg7SVSAGFscCP03KMzPOzYGkQPGHswInj0RT5j574Ylyg6xnpgnODHNXnNhJ8zJo6TJ+2F1Px+ehaBciGQqY5KIXOjqKIXVqzt9Sjw/DvnO9b/3de2j2K053s93aufqd9iMcvUd30f4/ud7ziJCIiACORDYL58GqmNCIiACDRGAnhTULqzhcxiIEDIBXZBEUZQIMkLJi+aPlBkvZBZvvtzE7rcq1cv649cVcJrUfxRQv0+pAKgBBO+SiV3oiCyST57lWe7FkWfVAWPLPCq6untPYwWQwLpDvyARwhNJkXEhde59oj3tpme82Xood4YfDAGYHghX9pDqYlAwEuJNNT+9tp3PdOK6pgI1A8Bwu7x8mO8TRpp6+du6lUEREAERCBfAjIk5EtK7URABBodATzFKO2+E0ByAh999FFctCzpzcd4gOfLc+FJaSDNAaGWAl76sWPHWr5trv25yTlFUIDbR1XXMWyMHj3ajlFNm7ElhciB5PZuKPPUUEBIafA842z7uyf7yvbaaxgk70NkhadK+A91Cq6R3gAbUj0Q0gIQahl41AGGhlWz7BFvjTM81IahR3qgRPiaJLskqsIjEJgbRiGMMRhtEAxC/BVzf3tSLLTvenIV9FoE6o/AmDFjrHPqvEhEQAREQARKh4AMCaWzFhqJCIhAkQn06dPHeiTknjx/F2oYsL86ijx59r43N156jqGIUh2dkFrEC01x3que57M/N4o4ijAh8PRFVXhSC4hwQLzyu72JHkivSEYkUPiQ+gyE4vuuDkQyEA2QbX937yvbs+9f7zwwVlDR3beR4z2CYQEPP/vEo8BTK4AdMGDg0Qy59ojPNobaMPTIA6I2MgmRFhSepDI+0hD723Mf7bsOBYkI1D8BT6fyHR7q/466gwiIgAiIQD4EZEjIh5LaiIAINEoCKJ8owNQ9YBcFahWwFRmeLUJlMTQkCx2yJzyCok8dA/aYxzNPYT2EQoieGkBEAXUKqLbONmbch4KACF56KnKz1RyGASqSd+jQwbYg47W3c+XdLooeMDpgyCCnny23iF4grx/l32s4sI0ZfVBIkrQJzmGk8LF7X9mePU/ZlW8KOyKuqLNlJkKeL8XNPC0EbgjpGv7DHkbUK2Cfdgwenlvrhga7IMNDbRj6/SmOmEm8Or4bEpL727shiXFS3wDJd+weueF1NpL3JkqEzxI1Kyi0yRZzRKuQv43xhwgUiQiIQHEI8F1HNBQRWxIREAEREIHSIaBii6WzFhqJCIhAPRBAsUNZJpfeIwDYtmvgwIG2j3vylh6BwE4EvB45cqTVAUDBJ70BDz2S7/7cbJtFQUSUb/rAg49hAqWWiAgUTrZ+86KHbGFIxAKGApcRI0bYy3z3Kvfrsj3j1cNQwr1d4aWQInUHEPf6ET3h0QAcZ6s2jrFdIgpzPnvEYwTJJLXZ49z3SXeDQnp/RIawM4cbSGhX3/vbsy0fnyX+tO96+orovQgUl4B/BxS3V/UmAiIgAiJQVwLa/rGuBHW9CIhAoyCAp5+wfZR490qnD5xwfiIL2NWAQoO0p5ZAUqH2a/Ldn5vIBLzpGBK8/oD3Qd/JsZBuMHjwYNvnnv27qQuQ3MGBvkhtyGd/d79HpmdqHhBtQA0JDBpEVSTHQeqBK+bJ64mSYJtJaiIgufaIz7V1WL4Mn332Wdv73dMy7OaJB1I/0s+x3hiDMq1dPmPPtb+99l1PLIBeioAIiIAIiIAIVBwBGRIqbsk1YREQgWwEqENAOgLRB4Tql7KU0l7ldd0jfl5yruvYMQZp3/V5uYK6twiIgAiIgAiIwLwgoNSGeUFd9xQBEShJAp5i4MUAS3KQ/x9UKe1VTvRCpgiGUubnY6vr2Ink8NoQ3qeeRUAEREAEREAERKDcCajYYrmvsOYnAiKQNwFy90lBoIieRAREQAREQAREQAREQAREIDMBGRIyc9FRERCBCiVA4UG2bSR/XyICIiACIiACIiACIiACIlCdgAwJ1ZnoiAiIQAUT2HPPPW32s2fPrmAKmroIiIAIiIAIiIAIiIAIZCegYovZ2eiMCIhAIyfANn0YBNq0aZP3TNgZ4bHHHgtst5i+y0LenaihCIiACIiACIiACIiACJQxAUUklPHiamoiUOkEZsyYETp37hxmzpyZN4omTZqE9u3bV6QR4YcffghvvvlmwJgiEQEREAEREAEREAEREIFsBGRIyEZGx0VABBo9gT/++MPm8NFHHzX6udT3BN5//33b+rJTp06hW7duYe7cufV9S/UvAiIgAiIgAiIgAiLQSAnIkNBIF07DFgERyE2A1AbEDQq5r6ifFqRX9O/fP/z000/1c4Mi9Dp+/Pjw888/h9atW4eXX345PPfcc0XoVV2IgAiIgAiIgAiIgAiUIwEZEspxVTUnERABI/Dbb7/Z82KLLTZPibz77rth6tSpYdq0aRnHwfnp06dnPNdQB++4447QsWPHMGrUKLvln3/+2VC31n1EQAREQAREQAREQAQaGQEZEhrZgmm4IiAC+RP49ddfrfESSyyR/0X12JIaBJmkZ8+eYf/99w+33357ptMNcmzOnDlh7bXXDhMnTrT71aZAZYMMUDcRAREQAREQAREQAREoGQIyJJTMUmggIiACxSbw119/WZeLL754sbvOuz/SBb744gtrf8stt4QjjzwydO3aNfTo0SPwHtl1113t+YQTTgg+ZjvQgA8LL7xwmDx5crj66qvDXnvtFZZZZpkGvLtuJQIiIAIiIAIiIAIi0JgIzN+YBquxioAIiEBtCKDEI9kiEigoON98NdtTv/nmm/DOO++EFVdc0f5qc/+zzjorXHfddfEls2bNCvwtuuiiVtiwWbNmdu7ss88O/fr1sxoKmbacpNZD06ZN437q48WCCy4YSLFYfvnlwxlnnFEft1CfIiACIiACIiACIiACZUJAhoQyWUhNQwREoDoBL26YNCS89957VgfgscceCxgJdtxxx7DddtuFAw88MCywwAJxJ0QG4J0fMWJEfOyYY44Jxx13XPyeF59++mmgL4wNSy+9dNhzzz3DCiusYG0++OCDKm332GOPMHjw4LDyyitXOc6btdZaq8qxH3/8MVxxxRVh0qRJpuBvvPHGYcsttwwHH3xwWHbZZeO2Dz30UFhppZVCu3btwoMPPhjOPffcQNtLL700sJVlPkItCS9Iedppp2U1vOTTl9qIgAiIgAiIgAiIgAiUP4GaXXHlP3/NUAREoIwJuCHBPf/sTNC+fftw1113BTzwu+++e3jrrbcCEQF77713+Oyzz4xGKpUKp5xyihkRiB7o3bu3RRGgnCeNA0QbbL311mYc4PXll18eDjnkkHh3hosvvtgMASj4yDrrrJPRiEAth/PPPz94DYVXX33VDBxXXXWVGRFIfaD4IYaNzp07h+eff9764+Gcc84JRD7MnDkzHH744eHDDz8M99xzT3jqqafiNrlenHnmmWZUod3DDz+cq7nOi4AIiIAIiIAIiIAIVDgBGRIq/AOg6YtAORPw1AaMBgjefWTnnXcOjz76aLjyyivD448/Hi655JLw4osvhj59+gSMCNQKuO2228Lqq68ennzyyXDeeedZWwwPRB0g48aNMwUe7z/tMTAcdNBB4bXXXjNFnjbsFkHRwiWXXJK34fvvv7fn9IevvvrK+n/kkUfs1NNPP22KPWkGvMaA8MADD4S7777bDCDUVyASAiEVAsMDBgyEiAWELRzzkSlTpoSxY8eGLbbYwowl7N7wyiuvxJfCbMCAAbbrRHxQL0RABERABERABERABCqagAwJFb38mrwIlDeBX375xSboIf6euoAHnuKCCIo4xQXx9FMjgMKIvhXjyJEjw1JLLWXtiGTA8EDhRtIeqCPQunXrMGbMGIs0IKrg3//+t7W999577dkfvL7B77//7ocs+oEoAsS3pyQ9AvEIipNPPtlqFtjB6AGjBVEHiF/LeDGYkKbBeIcOHRpatGhhxgVrmONhwoQJ1sKv5Q31GjCMEBFx6KGHmmFkXhWBzDF8nRYBERABERABERABEZgHBGRImAfQdUsREIGGJeAGBa8DQE2ApKCU43knAoDdCryGAVELSeXfryF9AOUdLz6GBZT4o446yo6RCkEUgUcMcI3XaEhGJBx77LFh2LBh1qUbK4h+QHyc6fcmcuH666+3NkQ6cN6jLrg/6RkYTaj5wBhyCdcT6dC2bduwyiqrhF69eoWOHTvafHbYYQeLxIAJhpEuXbrk6k7nRUAEREAEREAEREAEKoSAii1WyEJrmiJQiQRQ6pEvv/zSFP5ddtnF0hD69u0bevbsacUVSWkgNYG2bMdIhMK2225r140aNSrccMMNVgdhoYUWstoHRB5cdNFF1v7OO+8Ms2fPDm+//bYp9BRiJBpgyJAhgXOkBCA+DlIGUPypX4Cif8ABB9h5do5AYf/222/tPdEPw4cPD2wHSZQCxg2iJW699VY7T2QExRl9W0kiIygE6ULhReokUFhytdVW88PVnn3HCgwhMGBupHNMmzatStv77rvPdregX4kIiIAIiIAIiIAIiIAINInygVPCIAIiIALlSICiigMHDrRiiv/85z8D2z1iBCAFwT35KPkYFvbff/94twVYYGDA+0/dAm+LkQAjwwUXXBCeeeaZcMQRR9g5lHquxzBA9EO3bt3MIDFx4sQYKwUbPeKAg9wX5Z0dF5BBgwZZJMDo0aPtPco79yH6wYUUDNIONtpoIz9khg4iCtjRwQUDQ4cOHcwwQjpETdK1a9dq9RQYW6dOnazAo8+/e/fugeKREhEQAREQAREQAREQARGQIUGfAREQgbIl8Pfff5v3nzQAvPou2E/nzJljhgUKIbpn3s+nP9MPbbzWgp+nbsDXX38dWrVq5YfiZ9ITvMgjB2fNmmX1C4g6wCCAYSG5jSP3IOXCoxe8I4wYHGecREvkKxhNcs2LvtgNgsKSRCW0bNnS0hzg5feinzfffNPm2Lx583xvr3YiIAIiIAIiIAIiIAJlTECGhDJeXE1NBERABERABERABERABERABERABIpNQMUWi01U/YmACIiACIiACIiACIiACIiACIhAGROQIaGMF1dTEwEREAEREAEREAEREAEREAEREIFiE5AhodhE1Z8IiIAIiIAIiIAIiIAIiIAIiIAIlDEBGRLKeHE1NREQAREQAREQAREQAREQAREQAREoNgEZEopNVP2JgAiIgAiIgAiIgAiIgAiIgAiIQBkTkCGhjBdXUxMBEWg4Al988UU466yzwpdfftlwNy3jO4lnGS+upiYCIiACIiACItDoCciQ0OiXUBMQAREohAAK/4033hh+/vnnQi6vds3kyZPDddddFyZOnFjtnA7UnoB41p6ZrhABERABERABERCBhiIgQ0JDkdZ9REAESorASSedFE477bTwxBNPFGVcs2fPtn4+/vjjovSXqxPu179///DTTz/latoozzc0z0YJSYMWAREQAREQAREQgXlEQIaEeQRetxUBEZh3BH799dcwbdo0G8Biiy1WlIG89NJL1s988zXM1+q7774bpk6dGs+jKJMooU5qw/O7774LkyZNCr///nsJzUBDEQEREAEREAEREIHyJdAwv3jLl59mJgIi0AgJ3HPPPfGol1xyyfh1XV68/fbbdvkiiyxSl25qfe0PP/xQ62sawwW14XnGGWeEQw89NAwePDikUqnGMD2NUQREQAREQAREQAQaNQEZEhr18mnwIiACtSXw448/hgsuuCC+rBgRCX/99Vdca2HZZZeN+66vF9R1oBghcsstt4QjjzwydO3aNfTo0cPe19d9G6rf2vLcfvvtbWh33XVXeOGFFxpqmLqPCIiACIiACIiACFQsARkSKnbpNXERqEwCI0aMCN98801YdNFFDcDCCy9cZxB//vln3Mfqq68ev8724vbbbw9PP/20nX7//fetQOPrr79epTl9Pvvss8FrBfhJdoZYb731wqmnnmqHZs2aFe6///6AB3+ppZYKzZo186YZn5n7L7/8Ep/LZyxx4ywvuDeFJqnZwNhQ7OtSxDITz08++SRcfPHFASMD56dPnx4effTR8P3334fu3buH5557LowbNy60bds2vPXWW+GII44I7733XrURM/97773X+kmehP+LL74Y/v777+RhW6fbbrvNjpFCMWXKFFuXP/74w47RHwyPP/74sMkmm9j86UciAiIgAiIgAiIgAuVMYP5ynpzmJgIiIAJJAiieN910U+jYsWNA4b/++utDkyZN4iYvv/xy+Pzzz0Pnzp3DG2+8YaHyv/32mymoKOkuKLIPPfRQwAiwzjrrhHXXXddOYZzYdNNNvVnW59NPPz3stNNO4cMPPwwnnHBC3I66DWussUaYOXNmOPbYY+08JzfccMNw5513hgUXXDB88MEHcXte7LHHHjbOlVdeucpxFPkzzzwz7LvvvmHjjTeOzx1wwAFhrbXWCpdccokdq2ksFHLMxePmm2+OjRp02Lp169CqVavQtGnT+J65XuTD85FHHrEx77DDDmHIkCEBAwrC/K+44oqw3HLL2R/H7rvvvvDAAw+EVVZZJVBUMynnnntuuOOOO8KKK65oa8XuHUcffXRs2GnRooUZBtZcc027bMyYMYF7r7/++mGfffaJDSRnn312oM1BBx0UH+Na5l8M41RyzHotAiIgAiIgAiIgAqVGQIaEUlsRjUcERKBeCODRxkuNsk9qwzXXXGP3WWCBBeL7oWCiOBIJ0KdPH4tc4CTbRKLYIyjovXv3DhgdXFAgke222y7MP3/ur1UUTYoJ4hnHCMG4SLFA8X3ttdfMw844MQQw7quvvjpMmDDBjAJ45dkZAs/5brvtZoaMdCMCY2F8//nPf6xfNyRgFKH/ZERCTWPByFATjzlz5sRGBAwWw4cPzxkRwdiSki/PhRZayC4bNGhQoNDkYYcdFrbcckszCHGCNcKI065dOzOUcAxjUFIw/LDGKPsbbLBBYPyMm/5ID1lhhRXMSHH55ZfHhhb4MMbDDz/cuqIeA4aSrbbaylJJOMcaYlDBmCERAREQAREQAREQgUogoNSGSlhlzVEEKpwA1fxRBFH6rr322kAdAw+fJzTexY0AeJkJWcd7jyTz7s855xxT0rfYYotA0Uby8vHwI3i385Hll1/eog14Hj9+vNU3IEqC+7MlJXLRRReF/fbbL7iRwiMiMDi0adMmeJHI5PiT9/ZihURMuKBsI4svvrg981DTWHLxoB+MKgjh/7D56quv7H2+D/ny9NoTKP0YWE455RSL6lhttdXsVqNGjYrrQ+y+++5mLEgae2h04YUXWlvSWzAg3XDDDWZE6Nevn0WGeBTC0ksvbe148PsSPYIRom/fvhaxAn8KPCJERxx33HEhPT3FTupBBERABERABERABMqQgAwJZbiompIIiEBVAijnKJUozU888YR5n12pbt++fXj44YftAleC8drvvffeAe9zz549w/PPP2+7AWB8GDt2rHnB8fZvtNFGFkXg9Q7Ijf/666+r3jzDO/dcs8uA12qgGSkN3AvB4076BSH0PJMKkRRPHUhuefjZZ59ZH7Rji0tkpZVWsmeKMxLWjyS3qMw2Ftrl4kFayHnnnWfGkM0228y88jyff/75eXGoDc/mzZszJDMQYGBJF5R/j0CAza677mrGIK+TQPQHfxiHiCaAj6d38FlYddVVLTqBfpP9uyEHgwnpDUkh1eHxxx+3z8qMGTMsQoQ0CR9Hsq1ei4AIiIAIiIAIiEA5EZAhoZxWU3MRARGoRoCQc5R+BEX7yiuvNGXbFUS8266kUw8AQdFE6UZRRjEmkoGwePf+b7755hY9wA4QnvLgRRanTp1qfdT04NEFFCZMyqeffmpvCa3HW064PUo5kQ8eHeDtl1hiCXvpY+INYxk2bJgd96gDjCIUKKRII4LhAu+6S7axcD4XD+8DRkRWUH+Ceg4wJs2AWgU1iY89H54+H1IS3IiS7Ju0BAw5nrZBhAcCP4xHKPisuddM8G0zMdgQaUBEwdChQ62II3UqXDzyg5SJTEJayciRI8PkyZOtXgPGCmpswFtbUWYipmMiIAIiIAIiIALlQECGhHJYRc1BBEQgIwHqILC7ATnxePbJ93/llVessB6KI5IsjPftt9/aMYwIXjvBCymyK4Ars+ySgAFir732Cnii2aWAyv0I3u1cCqQrwu7xtwujB/e6X3rppWHHHXcMJ554YujVq1fAaIAxgOKHLh7JwHwwdGDAIDKCnQOQbbbZxp5RaEnDQMGFAUouaRterDDbWLg4Fw/aEJFA5AYRD0R3YPQYPXq0RX8cddRR4Z133qFZRqkNT4+icONGeofULUDckED9BGpDUBSTehcInwff7tNrLnCMa4855phwyCGHWIQJbd3Q4MU4M6WtYDxgpwqMNaSQUPRx0qRJZohiFwsMFBIREAEREAEREAERKEcCuauCleOsNScREIGyJ4B3mvx76heQjuCKpk/clWSvJcBxigXirffoAo6xnSAKKco3Rgdy5PG8s+MDQqg8xgp2VEDxp5AjRfzck22N0h7c4+1Kqp+mWOOAAQMC+f6E5rOtIeH/1GhgxwlSMzyNgmswFjz55JO25SDvMS7gYUcI1WeczIn0BSIcmAd1AKjrwLaSGEmyjYU+cvGgDSkCGE/of+edd7aaAsyfP4SaBn4PO5B4qA1PahW48STRRfySqAbqNHiEBWxJXaAgJYYWmNLGBaMNfFjPLl262O4LGDYwChDBwHpjJPLPQvpa0Q8FLzHg8IexhnoNrJfvrME2lBIREAEREAEREAERKEcCTSLPWaocJ6Y5iYAIVDYBFG+U7IEDB2bcSQAPOh7oAw880CILaqI1d+7cKnUFUBTZTYFdFthGMCnUSFhmmWWSh6q9JrqA3HqiDtIVVL6SSW1A2UcJRwjJR1HF+51UhokqIBwfowjREeTxe3HAajdNHGDuGDpQ5GsaS+KSKi+TPFCcGStjTqZMMGZqCBD5gZGlJsmXJzzg5QUW0/vEeOEpH34OIwJzzGbYIWIBo5DXpuA6DDQYcXr06GHrzi4eFLhM75u206dPD5dddpnt9MF7F7alJM2kZcuWfkjPIiACIiACIiACIlA2BGRIKJul1EREQATKjQA1HUixyGWYKJV5UzMCTz6FDzMp3aUyzkzjoF4DRgeiPjyNIlO7bMcoeknaBakTRDsU0ke2vnVcBERABERABERABEqNgAwJpbYiGo8IiIAIiIAIiIAIiIAIiIAIiIAIlDABFVss4cXR0ERABERABERABERABERABERABESg1AjIkFBqK6LxiIAIiIAIiIAIiIAIiIAIiIAIiEAJE5AhoYQXR0MTAREQAREQAREQAREQAREQAREQgVIjIENCqa2IxiMCIiACIiACIiACIiACIiACIiACJUxAhoQSXhwNTQREQAREQAREQAREQAREQAREQARKjYAMCaW2IhqPCIiACIiACIiACIiACIiACIiACJQwARkSSnhxNDQREAEREAEREAEREAEREAEREAERKDUCMiSU2opoPCIgAiIgAgUTmD17dujfv3/46aefCu5DF4qACIiACIiACIiACNRMQIaEmvnorAiIQCMm8Nxzz4XXX3+9QWfw3XffhUmTJoXff/+9Qe/bGG/27rvvhunTpxc09L/++itMmTIlfPHFF1Wup8+pU6eGadOmVTmuNyIgAiIgAiIgAiIgAsUjIENC8ViqJxEQgRIigELZs2fPsNtuu4VZs2Y12MjOOOOMcOihh4bBgweHVCrVYPdtjDdiffbff/9w++2313r4d911Vzj44INDr169wo8//ljt+h9++KHaMR0QAREQAREQAREQAREoDgEZEorDUb2IgAiUGIHlllsubLjhhjaqc889t8FGt/3229u9UHRfeOGFBrtvY7zRrrvuasM+4YQTAhEGtZF27dqFFi1aBAxGY8eOtUt//vnnOELhlltuCUceeWTo2rVr6NGjR+C9RAREQAREQAREQAREoDgEmkQeM7nMisNSvYiACJQYgblz54YXX3wxLL300mG11VZrsNF9+eWX4Z133gmbbLJJ+OCDD8Ill1wSUJbTx/DNN9+EJ554wqIm5p9//nh8pGP88ccfYYMNNghNmzaNjxfzxZ9//hkWWGCBal0+/fTTNuZ99903kKbx/PPPhyWXXDJstNFGYcEFF6zSHr7zzVc3ezQ1DahnsPHGG1fpO583v/76a3jppZfC2muvHa666qpw3XXXVbts0UUXDVtvvXXYfffdQ/fu3e086RALL7ywzSt5wS+//BIWWWSR5KFqrz/55BOLoDj66KMt4uSpp54KcIDPUkstVa19Qx346KOPwscff2zGs1xzaKgx6T4iIAIiIAIiIALlS6BuvwDLl4tmJgIiUAYEUHI33XTTWIHH6z1mzBjzWmNDveiii0zZ51htBEPBTTfdFIYMGRIeffTRapcSDYHyutBCC4X77rsvPPDAAxnD94mUQCF9+eWXrQ/6RYEnHWPPPfcMm2++eXj77bfj/jk/bty4gAI9Z84c87hjrECZzlcwUtD3mmuuac/33ntvlUthMXz48PDaa6+Fbbfd1tIH9t5773j87733Xhg4cKBxwzBywAEHhGuvvTZgmEjKmWeeGQ488MAqx2lz6aWXhp133jnmttZaa2U1IiSjFJhzeopKs2bNjDORCRhskrLHHnuExx9/PPz3v/8NN9xwQ2xEwBCwxRZbhOOOOy7ZPIwfPz6su+66YdiwYVWOp7955JFHzDDEmv3jH/+w1Iy+ffvaZ4G2fK4YJ4YN1pfPyW+//Valm4ceeii8+uqrduzBBx8MRLEMGDCgWioMfTGH0047ze6ZKV0DRox5u+22szQP5pC+plVurjciIAIiIAIiIAIiUAwC0Q8ViQiIgAiUJYFI6U1F0QCpyGNs8/vss89SrVu3To0aNSp19dVX22ve8xd5xfNiEEUQpCJlrcq1kdKd6tatWypSZq2P0aNHp1555RV7fc8991jbfv36VemfsXHfSAFMRdEHqUhJTLVv396OnX/++alIobfXxxxzTHxdpCDasSeffDJFfz72yNMet6npRRQBEY99yy23jK+P6jrEl0UKth1nXMzzxhtvTE2cODH1/fffp+688874Gq4//PDDU94P8//000/jfvbZZx9re+qpp9qxDz/8MMU4GXNUFyH1+eefp6IIgNR5551nfdOIYyNGjEhFBofUlVdeaW2j+gnGZ7/99rP38HR57LHHUnfffbe9jeokpCIFPsVacI/IYOHNqjzPmDHDzrNGLpEynurcubMd5/NSkzAe+ve1Ovvss1NRccdUlGKRiowdqSOOOMLO08Y/J6ecckqVLmELnyjaI25Lez5bLrCJjExVzkfGmdTIkSPtM+3tvM0hhxySitJpbFxRdIcx9DZ6FgEREAEREAEREIFiE1BEQjGsMepDBESgJAlQo4Cog0jBtfF5+gD1C8455xzLsd9rr73s3BtvvJFzDoTh9+7dO5CLT6G/SMEOkcJrO0OQQuGRAZGhIs7JJ6Q+UhLjqAO/yYUXXmgvI8XZUgzwmpPvHxkILA2CiAGEtAwXT0WIlHPblQBPdtu2bS39IOm99/bpz0QzMPahQ4cGUhieeeYZ88Jff/318S4Hyy67rF0WKf7hjjvuCHjbIyXb0gDYjQLxiALmjsec1A3m36dPn9irHinYgbQCPPKDBg2yPkiTIAIjMk6Eli1bhq+++sr44eVHiJa47LLLwrPPPmvPHGPnDTz7kQGAt7Yjg72IHoj28PoXiy22WGjTpk2crhAZPrxZlWdSAJB11lknPn7bbbdZFAHjJYqiJnE+rBVRF5GRIOy0004W9UKBzfvvv98+IzNnzrRoCFI2qOHw1ltvxd3yOSQiIVL+7RifJcQjU3h98sknh8hoEpZffnmLookMJoEoC2o9RAYdmlhaDG34DMAtMupYrQk+M/WVEmM31oMIiIAIiIAIiEDFE5AhoeI/AgIgAuVLAOUSIRwf+fbbb+0ZJRBBKTv22GPtdT7bRKLsIyh+KPOEkWMoiCIE7Ph6661nzyhybphAoaOoIPUQfByEnvNHWsBWW21lqQoo4whK9qqrrmopDryPPPE8mdAHgkGDlADC5zE8+DF7UcMD6QpI5E2351atWoWLL77YXvvOCaQJIBhM1l9/fXvtD27IQIGmxgCCUowxBmMDXH07RgwhUdSHtcEggQGDOWJU8LoKvj7Uk0jKUUcdZe05hpIPdxRy5szWji5LLLFEiKJM4rYcdwU6uf0mbVDsEcaBeDsMJijtCIYA+qxJmjdvbqcxDiXXhvWeMGGCKfsYN5ZZZhkzDGBgQdwIw2sYMQ7WM4owMMMO3D3dAWMHfWHYwPizww472PwZG9d4PQkMVgjrSp0I0mmYD0UmmzRpYuf0IAIiIAIiIAIiIAL1QUCGhPqgqj5FQARKgoB7j/FqI19//XU8LjzlGAJQ2lHYXOGLG2R44UoySh/5/hTnu/nmm2Olb/XVV7erVlhhBeuP80jHjh3tE2OMcQAACb9JREFUOUpZMC8yXnn6OOmkk+y4574fdthhFgVA/j5RA9OnTw9rrLGGteEBDz7CeLnv4osvHiuVroRagywPXkeAnHo3qnjEg4+BwooIuyKkCwUgkfScf5R0FGW85yjQ3gbGLozZlXA/5sUJ3RDjx1GWPVKEYxgQ8OpTswEF3Ld79PX1SBDauiEgGZGAschrHzBGhPHCgK06EdYD40kugTmSXgjTowkw0qDEUyfBjVS0x1AThRQGDBxuzMBgQv0J2lPjgCgRxA1GzAWjC9fRHwU7ESIPENqzMwlzoY4CtSuItkmys4Z6EAEREAEREAEREIEiE5AhochA1Z0IiEDpEHCl1pVkdiFAUN7cK897FLMo396q7/M+m/Tv399OYRDA444hgsgEhG0G3dOOpx9xQwL940WmyB7h/8g111wT3CNPUUY/xrVRXQQLe19llVXsuI/flX8iAjBWIBhCEHYPyCWuoKK4o7iimHbo0MEuQ1lH3JNNYcd02WWXXewQ6Q4UTSS1gfB8dkPAUECEBxEKpDAQhk/0AEotRhGUZ64jCsMNGvBCsfd5+f1Q6k888UR/a8UcYcXOCAhKNUJ6BOKGBV4zDiSqUWH3ZAwo3BSlRFh32pDOwZrgwUeYg0dc2IEsD77GUT2HKi34LCBEXFAws0uXLhahceuttxoL7kMqiRs4iGhgnV0w3LA+RK0wTwpCEklB+gprTH9wRZgDQkoDBgwiOg466CAzXFBcFIHJ33//ba/1IAIiIAIiIAIiIALFJiBDQrGJqj8REIGSIYCSyt+KK65oYyKXHcXXPbs+UBRcvOzJcHg/l3xG+SbUHqWTlATSGlyBROFzYbcFxD3uKOeE9buSS0i6t6Ednnr33qMwEu6OoYHIBRRgvN8oonjPGT+7LriguEcF/mIvth/P9ExEwY477hiiQoN2Gi85Xm/u4x57j6pwg0Kyn549e1pbFF5qT3iEBfdHYSd6AiNBjx49LP0iKqpoqROMmd0JYIXBJqmEwxRFGXHjiBtKSDXAOOFjwpCBwcOvxxuPeJSBvYkettlmG+NFqgnGH7gT7YHwmmgO+mH9WHuE9JN8hCgIX8dke9bII0wwXPB5YE2JoiDygGtghPED1qxxcjtNDFG0cUMDY2RdqEdBXxgnEAwQ/nlmu0uMLvBnBxGMIzxjHMLIoN0bkiuk1yIgAiIgAiIgAsUk0ITqjcXsUH2JgAiIQCkRwEBAPnwub3O0s0McUVCb8Ue7DlitAhRkV4i5nu0ZPcze+8MrT1FETx/w4/5MxALKoHueOY5SjOEC5dy94d4++cxXeSblP9kGowReeGoO4K1GaSW1If06ih1SuDB9/N4X92J+MGMuyXGxTSNecWomoCx7LQK/Nv2ZcbBGrpzDB+NINqF9sk88755u4NcQsUAUBJEORESQsuBpEN7GnzHcEH1B+kuyXz+f6ZlaEDBj+8t0Yf5EoqDgJ8WLYdY0t5o+g/AmagFjjhfqpH/milFn8uTJ8e0wInTq1MlqeTjX+KReiIAIiIAIiIAIiEARCGT/tVaEztWFCIiACMxrAl4UMNc4kspwrrbJ89RNQFnDU5yUTEp4LqUOrzh/KPgYHfC05zuudGNAciz+Gg+494fSnK7sejvC6msS7pXNGNKsWbPAbhn5cmccSS41KdqMKV3ZTzci0IbIh/Hjx/OyRqEuBor4gAEDqvVb04UeIZGpDfPnL11yzYv2vjbp1/Le63t4FIa3Ya5EJmCMIVKDaIVcRjO/Vs8iIAIiIAIiIAIiUCgBpTYUSk7XiYAIVCQBitlNmTIlnjvRA5tttlmNSmDcOM8XpESgENakWObZVZVm9Jlej6BKgyK9ydeIUKTbFdwNaRNIt27dCu6jvi4klYVdL3y9fMeNTEUwGQPMiYiREaG+VkT9ioAIiIAIiIAIJAkoIiFJQ69FQAREoAYCb775plXGpwnbJi633HKWi7/PPvvUcFXpnELRJH2CWgnJ/PzSGWHDjYQ6D2xLiYefwpmlJtSfuP/++622BPUyfHtOr8lRauPVeERABERABERABCqLgCISKmu9NVsREIE6ECCknZoFCFvt7bfffvaaQnmNQVCaSZmg8GGlC5ElCDt4lKJQEwNhVwYKe86YMcNqPTSWaI9SZKoxiYAIiIAIiIAIFI+ADAnFY6meREAEypwAYeNs55fcgYEdIHybxlKfPgX4EA+TL/Xx1uf4fMtNikqWonTs2NG2i/TdJKhncfzxx5fiUDUmERABERABERCBCiSgXRsqcNE1ZREQgboT+O6776yoIApfPoUO637H4vQwc+ZMy6XPVmixOHcp/V4oaAkLtkosdi2KYs+e7SRXWmkl+yt23+pPBERABERABERABAohIENCIdR0jQiIgAiIgAiIgAiIgAiIgAiIgAhUKAGlNlTowmvaIiACIiACIiACIiACIiACIiACIlAIARkSCqGma0RABERABERABERABERABERABESgQgnIkFChC69pi4AIiIAIiIAIiIAIiIAIiIAIiEAhBGRIKISarhEBERABERABERABERABERABERCBCiUgQ0KFLrymLQIiIAIiIAIiIAIiIAIiIAIiIAKFEJAhoRBqukYEREAEREAEREAEREAEREAEREAEKpSADAkVuvCatgiIgAiIgAiIgAiIgAiIgAiIgAgUQkCGhEKo6RoREAEREAEREAEREAEREAEREAERqFACMiRU6MJr2iIgAiIgAiIgAiIgAiIgAiIgAiJQCAEZEgqhpmtEQAREQAREQAREQAREQAREQAREoEIJyJBQoQuvaYuACIiACIiACIiACIiACIiACIhAIQRkSCiEmq4RAREQAREQAREQAREQAREQAREQgQolIENChS68pi0CIiACIiACIiACIiACIiACIiAChRCQIaEQarpGBERABERABERABERABERABERABCqUgAwJFbrwmrYIiIAIiIAIiIAIiIAIiIAIiIAIFEJAhoRCqOkaERABERABERABERABERABERABEahQAjIkVOjCa9oiIAIiIAIiIAIiIAIiIAIiIAIiUAgBGRIKoaZrREAEREAEREAEREAEREAEREAERKBCCciQUKELr2mLgAiIgAiIgAiIgAiIgAiIgAiIQCEEZEgohJquEQEREAEREAEREAEREAEREAEREIEKJSBDQoUuvKYtAiIgAiIgAiIgAiIgAiIgAiIgAoUQkCGhEGq6RgREQAREQAREQAREQAREQAREQAQqlIAMCRW68Jq2CIiACIiACIiACIiACIiACIiACBRCQIaEQqjpGhEQAREQAREQAREQAREQAREQARGoUAL/A3rflrHNt1fJAAAAAElFTkSuQmCC;" vertex="1" parent="1">
          <mxGeometry x="480" y="360" width="1011.13" height="524" as="geometry" />
        </mxCell>
      </root>
    </mxGraphModel>
  </diagram>
</mxfile>
